<svg width="1920" height="1080" viewBox="0 0 1920 1080" fill="none" xmlns="http://www.w3.org/2000/svg">
<path d="M935.2 1052.5C921.7 1046.4 906.9 1046.7 892.8 1043.2C857 1034.1 824.5 1019.4 798.9 991.601C754.7 943.701 748.9 888.001 783.8 833.101C789.1 824.701 788.7 820.401 781.7 813.401C742.7 774.601 707.5 732.601 689.6 679.501C659.3 589.901 663.1 503.601 720.1 424.301C746.1 388.101 782 363.701 821.2 343.701C834.6 336.801 848.1 330.101 861.8 323.201C849 315.101 836.4 308.101 824.9 299.601C802 282.801 784.7 261.801 780.6 232.601C777.5 210.601 783.4 191.601 800.9 176.801C804.7 173.601 807.2 172.001 811.6 176.601C816.1 181.301 813.1 182.901 810 185.601C801.9 192.401 800.7 201.201 804 210.601C807.2 219.601 814 224.701 823.5 226.101C836.5 228.101 848.9 224.901 861.3 221.801C904.2 211.101 946.8 199.301 991.3 196.201C1136.7 186.201 1262.4 266.401 1304.6 405.701C1350.4 557.301 1323.3 695.901 1208.8 810.601C1156.8 862.701 1093 893.801 1018.2 897.501C955.3 900.501 896.7 883.501 841.4 854.501C830.1 848.601 819.2 842.001 808.6 834.901C803.1 831.301 800.7 832.801 797.2 837.301C764.1 880.101 769.1 933.701 810.2 970.101C838.5 995.101 872.9 1006.7 909.3 1011C978.6 1019.1 1046.3 1010.7 1111.5 985.701C1143.9 973.201 1171.4 954.101 1188.8 922.901C1191.4 918.301 1193.3 917.801 1198 920.301C1203.5 923.201 1202.9 925.601 1200.4 930.301C1167.6 992.101 1113.3 1024.8 1048.2 1042.7C1033.1 1046.8 1017.6 1049.3 1002.3 1052.5C979.9 1052.5 957.5 1052.5 935.2 1052.5ZM872.1 793.501C875.3 798.201 877.3 801.201 879.4 804.101C882.7 808.601 885.7 813.301 889.3 817.601C931.7 868.201 985.9 890.301 1050.9 879.901C1118.4 869.101 1167.1 829.101 1197.3 769.701C1246.4 672.901 1249.3 572.801 1202.7 474.601C1164.8 394.601 1101.4 347.401 1010 342.201C967.2 339.801 923.5 343.501 881.9 329.001C878.4 327.801 876 328.801 873.9 332.101C853.9 363.301 833.2 394.601 825.1 431.301C799.3 548.901 807.1 663.501 859.4 773.401C861.7 778.201 863.6 779.901 869.2 777.901C915 762.001 960.5 760.401 1005.5 781.201C1008.7 782.701 1011.6 784.101 1014.2 779.301C1028.9 752.001 1034.6 722.901 1011 694.601C1003.8 686.001 996.3 677.701 989.2 669.101C957.2 629.801 934.1 585.901 926.1 535.501C916.3 473.401 955.2 393.401 1009.4 360.801C1010.7 360.001 1012.2 359.701 1015.5 358.501C1011.4 373.601 1007.3 387.301 1008.2 401.801C1010 430.301 1024.4 453.101 1041.5 474.501C1056.4 493.201 1072.5 511.001 1085.8 531.001C1116.3 576.601 1122.9 625.101 1103.2 676.701C1078.5 741.301 1033.7 791.501 986.9 840.401C984.2 843.201 982.1 844.301 979.3 840.601C977 837.501 972.7 834.701 977.8 830.801C985.3 825.101 981.8 820.201 977 815.301C947.4 785.501 911.5 785.501 872.1 793.501Z" fill="#1F1F1D"/>
<path d="M0.399805 216C111 216.1 221.6 215.7 332.2 216.5C387.5 216.9 442.2 222.6 493.7 244.9C555 271.5 586.4 317.8 585.1 380.3C584.2 422.3 564.9 455.1 531.9 480.1C493.5 509.1 448.7 520.8 402 527.6C396.5 528.4 390.9 529.1 385.4 529.9C384.7 530 384 530.5 381.3 531.8C399.3 533.7 415.5 535.1 431.6 537.2C460.2 540.9 488 547.7 514.3 559.6C565.9 582.9 602.5 619.2 608.7 677.9C615.5 742.7 594 796.6 539.4 834.8C500.5 862 455.9 873.5 409.7 879.9C380 884 350.1 885 320.1 884.9C213.5 884.7 106.9 884.8 0.299805 884.8C0.299805 880 0.299805 875.2 0.299805 870.4C19.9998 871.5 39.3998 869.2 58.3998 864.6C89.9998 857 99.9998 843.9 99.9998 811.4C99.9998 637.7 99.9998 464.1 99.9998 290.4C99.9998 256.5 88.8998 243.1 55.8998 235.2C37.5998 230.8 18.6998 231.4 0.299805 228.1C0.399805 223.9 0.399805 219.9 0.399805 216ZM300.2 866.2C319 865.9 341.4 866.8 363.6 863.2C411.9 855.4 445 830.3 456.8 781.3C466.8 740.1 468.9 698.2 462 656.5C451.5 593.1 416.7 557.6 354.8 545.4C318.5 538.2 281.5 542.7 244.9 541.7C237.9 541.5 240.2 546.8 240.2 550.2C240.1 652.8 240.2 755.4 240 858C240 865.1 242.3 866.6 248.9 866.4C264.7 865.9 280.7 866.2 300.2 866.2ZM240.1 378.8C240.1 423.9 240.2 469 240 514.2C240 521.6 241.2 524.7 249.6 524.5C277.9 523.7 306.3 525 334.6 522.9C389.2 518.8 425.3 490 436.3 439.4C444.7 400.8 444.9 361.7 436.9 322.9C426.6 273.5 397.4 246 347.7 237.3C315.2 231.6 282.4 234.3 249.7 233.3C241.5 233 239.9 235.8 239.9 243.4C240.2 288.5 240.1 333.6 240.1 378.8Z" fill="#1E1E1C"/>
<path d="M1625.4 216.102C1716.9 216.102 1808.3 216.202 1899.8 215.902C1908.1 215.902 1911.4 217.202 1911.6 226.602C1913.3 296.502 1915.7 366.302 1917.5 436.202C1917.6 440.302 1921.4 446.702 1912.6 448.502C1904.4 450.102 1901.5 446.102 1898.7 439.602C1881.1 399.502 1862.6 359.702 1838.4 323.002C1812.8 284.402 1781 253.702 1734.7 241.202C1712.9 235.302 1690.7 233.802 1668.3 233.502C1642.3 233.202 1616.4 233.702 1590.4 233.302C1582.9 233.202 1580.1 234.802 1580.1 243.102C1580.4 338.602 1580.3 434.002 1580.3 529.502C1580.3 533.702 1578.9 538.702 1586.1 538.602C1613.2 538.302 1640.4 539.802 1667.1 533.302C1698.8 525.602 1721.8 506.702 1738.2 478.902C1749.4 459.902 1757.1 439.402 1762.8 418.202C1764.3 412.702 1766.1 409.202 1773 409.802C1780.6 410.602 1778 415.902 1778 419.502C1778.1 505.802 1778.1 592.002 1778 678.302C1778 681.902 1780.8 687.302 1773.2 688.202C1766.4 688.902 1764.3 685.702 1762.9 680.002C1757.3 658.702 1749.5 638.402 1738.8 619.102C1715.6 577.302 1678.9 558.902 1632.6 557.002C1617.8 556.402 1603 556.902 1588.3 556.402C1581.9 556.202 1580.2 558.302 1580.2 564.602C1580.4 649.702 1580.1 734.702 1580.5 819.802C1580.6 845.202 1590.9 857.901 1615.3 864.802C1634.2 870.202 1653.7 871.802 1673.3 872.602C1677.4 872.802 1682.3 871.302 1682.4 878.502C1682.6 885.902 1677.8 884.502 1673.6 884.502C1565.4 884.502 1457.1 884.502 1348.9 884.502C1344.7 884.502 1340.2 885.802 1340.2 878.402C1340.2 871.802 1342.9 870.401 1348.7 870.302C1367.5 870.102 1386.2 868.102 1404.3 862.802C1430.2 855.302 1440.4 841.902 1440.4 814.902C1440.5 638.402 1440.5 461.802 1440.4 285.302C1440.4 258.402 1430.2 245.302 1404.3 237.202C1387.4 232.002 1369.9 230.502 1352.4 229.302C1347.9 229.002 1340.4 232.202 1340.3 222.402C1340.2 212.002 1347.8 216.102 1352.2 216.102C1443.3 216.102 1534.4 216.102 1625.4 216.102Z" fill="#1E1E1C"/>
<path d="M637.1 80.6013C642.2 81.1013 646.6 81.6013 650.7 83.5013C657.4 86.7013 660.3 92.2013 660.2 99.4013C660.1 106.601 657.2 112.001 650.2 115.001C644.4 117.401 638.3 117.901 632.2 118.101C622.7 118.401 613.2 118.201 603.7 118.201C602.8 118.201 601.3 118.801 601.3 116.901C601.3 115.201 602.6 115.701 603.5 115.601C608.3 115.001 609.4 114.201 609.6 109.401C609.9 99.5013 609.9 89.5013 609.9 79.6013C609.9 71.8013 609.9 64.0013 609.6 56.2013C609.4 51.4013 608.3 50.6013 603.5 50.0013C602.6 49.9013 601.3 50.4013 601.4 48.7013C601.5 47.1013 602.8 47.6013 603.7 47.6013C615.1 47.7013 626.5 47.7013 637.9 47.9013C641.5 48.0013 645 48.8013 648.3 50.0013C654.7 52.4013 657.8 57.0013 657.8 63.8013C657.8 70.7013 654.7 75.0013 648.3 77.7013C644.8 79.1013 641 79.0013 637.1 80.6013ZM621.9 98.6013C621.9 100.701 621.8 102.801 621.9 105.001C622.1 108.401 620.3 113.101 622.6 114.901C625.1 116.901 629.7 115.401 633.3 115.001C639.8 114.301 644.4 110.501 646 104.401C648 96.8013 645.7 88.2013 640.7 84.8013C639.1 83.7013 637.3 83.1013 635.5 82.7013C631.7 81.9013 627.9 82.4013 624.2 82.1013C622.2 82.0013 621.8 82.8013 621.9 84.6013C622 89.3013 621.9 93.9013 621.9 98.6013ZM621.9 64.4013C621.9 66.9013 621.9 69.3013 621.9 71.8013C621.9 79.1013 621.9 78.8013 629.2 79.1013C641.1 79.5013 646.3 71.2013 644.3 60.5013C643.3 55.4013 640.3 52.5013 635.4 51.2013C631.7 50.2013 627.9 50.6013 624.1 50.4013C622.2 50.3013 621.9 51.1013 621.9 52.7013C622 56.6013 621.9 60.5013 621.9 64.4013Z" fill="#070707"/>
<path d="M1335.9 76.8C1341.4 69 1348.2 66.4 1356.5 67.8C1364.1 69.1 1368 73.4 1368.3 81.2C1368.6 89.5 1368.4 97.7 1368.5 106C1368.5 107.7 1368.6 109.3 1368.7 111C1368.9 113.9 1370.4 115.5 1373.3 115.7C1374.2 115.8 1375.5 115.3 1375.6 116.9C1375.6 118.8 1374 118.1 1373.1 118.1C1366.1 118.2 1359 118.1 1352 118.1C1351.2 118.1 1350.1 118.4 1350 117C1350 115.7 1350.9 115.8 1351.8 115.6C1356 114.9 1356.8 114.2 1356.8 110C1356.9 100.5 1356.9 91 1356.8 81.5C1356.7 76.4 1354.7 73.1 1351.3 72C1347.2 70.7 1342.3 72.4 1339.5 76.3C1337.5 79.1 1336 82.3 1336 85.9C1336 94.1 1336 102.2 1336 110.4C1336 113.7 1337.5 115.4 1340.8 115.6C1341.8 115.6 1343 115.4 1342.9 117C1342.8 118.4 1341.7 118 1340.9 118C1333.8 118 1326.6 118 1319.5 118C1318.7 118 1317.6 118.5 1317.4 117C1317.2 115.4 1318.4 115.5 1319.4 115.5C1323 115.4 1324.3 113.3 1324.3 110.1C1324.4 100.3 1324.4 90.4 1324.5 80.6C1324.5 72.4 1324.6 64.3 1324.4 56.1C1324.3 50.9 1323.8 50.5 1318.8 49.6C1318.1 49.5 1317.4 49.6 1317.4 48.7C1317.3 47.6 1318 47.4 1318.8 47.4C1324.1 47.1 1329.5 46.8 1334.8 46.4C1336.8 46.3 1336.2 47.6 1336.2 48.6C1336.1 56.5 1336 64.5 1336 72.4C1335.9 73.8 1335.9 74.8 1335.9 76.8Z" fill="#070707"/>
<path d="M472.6 76.1013C478.4 68.7013 485.7 66.3013 494.5 68.1013C500.4 69.3013 503.9 72.9013 504.8 78.9013C506 86.3013 505.1 93.8013 505.4 101.301C505.5 104.401 505.4 107.601 505.5 110.701C505.6 113.901 507.1 115.901 510.7 115.901C511.6 115.901 512.6 115.801 512.6 117.101C512.6 118.801 511.3 118.301 510.4 118.301C503.3 118.301 496.1 118.301 489 118.301C488.1 118.301 486.8 118.701 486.8 117.001C486.8 115.701 487.9 115.801 488.8 115.801C492.4 115.801 493.8 113.601 493.8 110.501C493.9 100.301 494.4 90.2013 493.5 80.0013C493.2 76.5013 492 73.5013 488.5 72.4013C484.9 71.2013 481.4 71.8013 478.5 74.4013C474.5 78.0013 472.8 82.6013 472.7 87.8013C472.5 94.8013 472.6 101.901 472.7 108.901C472.8 114.001 473.3 114.501 478.4 115.701C479.3 115.901 479.9 116.101 479.8 117.201C479.7 118.101 479.1 118.201 478.4 118.201C470.8 118.201 463.2 118.201 455.6 118.201C454.7 118.201 454 118.001 454.1 116.901C454.2 115.801 455 115.801 455.8 115.701C460.7 114.801 461.2 114.201 461.2 109.101C461.2 91.6013 461.2 74.0013 461.2 56.5013C461.2 51.3013 460.8 50.9013 455.5 49.9013C454.8 49.8013 454.1 49.8013 454.1 48.9013C454 47.8013 454.8 47.7013 455.6 47.7013C461.1 47.4013 466.5 47.0013 472 46.7013C474.3 46.6013 473.3 48.4013 473.2 49.3013C472.5 57.6013 472.7 65.8013 472.7 74.1013C472.6 74.8013 472.6 75.4013 472.6 76.1013Z" fill="#070707"/>
<path d="M412.9 80.5C412.9 71.2 412.8 62 413 52.7C413 50.4 412.3 49.9 410.1 50.1C399.2 51.2 394.8 55.1 392.4 65.9C392.1 67.4 391.6 68.9 391.4 70.5C391.2 71.8 390.5 71.8 389.5 71.7C388.5 71.6 387.8 71.4 387.9 70.1C388.4 63.1 388.9 56.1 389.4 49.1C389.6 46.9 391.3 47.6 392.5 47.6C407.8 47.6 423.1 47.6 438.4 47.6C441.7 47.6 446 46.5 448.2 48.2C450.5 49.9 449.1 54.4 449.5 57.7C450 61.5 450.1 65.3 450.4 69C450.5 70.1 451 71.5 449 71.7C447.1 71.9 447.1 70.9 446.9 69.6C446.1 65.9 445.4 62.2 443.6 58.8C440.8 53.3 432.6 49.1 426.7 50.1C424.7 50.5 425.5 52 425.5 53C425.4 68.9 425.5 84.7 425.5 100.6C425.5 103.2 425.5 105.7 425.5 108.3C425.7 114.1 426.9 115.2 432.6 115.8C433.5 115.9 435.1 115.1 435.1 117C435.1 119.1 433.4 118.3 432.4 118.3C423.6 118.4 414.8 118.4 405.9 118.3C405 118.3 403.5 119 403.3 117.1C403.2 115.2 404.7 115.8 405.7 115.7C411.6 115.2 412.8 113.9 412.9 108C413 98.8 412.9 89.6 412.9 80.5Z" fill="#070707"/>
<path d="M1186.7 47.6004C1194.2 47.6004 1201.7 47.8004 1209.1 47.5004C1211.9 47.4004 1212.5 48.5004 1212.6 50.9004C1212.8 55.6004 1213.2 60.3004 1213.4 64.9004C1213.5 65.9004 1214 67.2004 1212.1 67.3004C1210.4 67.4004 1210.1 66.5004 1209.8 65.2004C1208.5 58.9004 1205.9 53.5004 1199.1 51.5004C1193.7 49.9004 1188 50.5004 1182.5 50.4004C1181.2 50.4004 1181.1 51.2004 1181.1 52.2004C1181.1 60.9004 1181.1 69.6004 1181.1 78.3004C1181.1 79.4004 1181.2 80.2004 1182.7 80.2004C1186.3 80.1004 1189.9 80.3004 1193.4 79.9004C1198.6 79.3004 1200.4 77.2004 1201.6 71.7004C1201.8 70.6004 1201.5 69.2004 1203.5 69.3004C1205.6 69.5004 1204.9 70.9004 1204.9 72.0004C1205 78.5004 1204.9 85.0004 1204.9 91.4004C1204.9 92.4004 1205.4 93.7004 1203.6 94.0004C1201.7 94.3004 1201.8 93.0004 1201.5 91.8004C1200 85.0004 1198.1 83.3004 1191.1 82.9004C1187.9 82.7004 1183.8 81.8004 1181.7 83.3004C1179.7 84.8004 1181.2 89.1004 1181.1 92.2004C1181 97.7004 1181 103.1 1181.2 108.6C1181.4 113.8 1182.6 114.9 1187.8 115.6C1188.7 115.7 1189.9 115.2 1189.9 116.9C1189.9 118.6 1188.7 118.2 1187.8 118.2C1179.4 118.2 1171.1 118.2 1162.7 118.2C1161.7 118.2 1160.6 118.4 1160.6 116.8C1160.6 115.4 1161.7 115.7 1162.5 115.6C1168.1 114.8 1169 113.8 1169 108.3C1169 91.3004 1169 74.4004 1169 57.4004C1169 51.8004 1167.9 50.7004 1162.6 50.0004C1161.8 49.9004 1160.6 50.3004 1160.6 48.9004C1160.6 47.3004 1161.8 47.6004 1162.8 47.6004C1170.8 47.6004 1178.7 47.6004 1186.7 47.6004Z" fill="#070707"/>
<path d="M821.1 75.8006C826.5 69.2006 833 66.5006 841 67.9006C848.3 69.1006 852.6 74.0006 852.7 81.5006C852.9 89.8006 852.8 98.0006 852.8 106.301C852.8 107.901 852.9 109.401 853 111.001C853.2 114.001 854.7 115.801 857.8 115.801C858.7 115.801 860 115.501 859.9 117.201C859.8 118.901 858.5 118.301 857.6 118.301C850.6 118.301 843.5 118.301 836.5 118.301C835.7 118.301 834.6 118.801 834.4 117.401C834.2 115.901 835.3 115.901 836.4 115.901C839.9 115.801 841.2 113.801 841.2 110.401C841.1 100.801 841.3 91.2006 841.1 81.6006C841 76.4006 838.8 73.0005 835.6 72.2005C831.2 71.1005 826.5 73.1006 823.9 77.4006C822 80.5006 821 83.9005 821.1 87.6005C821.1 94.9006 821.1 102.101 821.1 109.401C821.1 114.601 821.5 115.001 826.5 115.901C827.4 116.101 828 116.201 828 117.301C828 118.401 827.2 118.401 826.4 118.401C818.9 118.401 811.4 118.401 804 118.401C803.2 118.401 802.4 118.401 802.4 117.201C802.4 116.101 803.1 116.101 804 115.901C808.8 115.001 809.5 114.401 809.6 109.701C809.8 99.1005 809.8 88.5006 809.6 77.9006C809.5 73.6006 808.6 71.5006 804.1 71.5006C803.2 71.5006 802.6 71.2006 802.6 70.1006C802.7 69.0006 803.4 68.9006 804.2 68.9006C809.2 68.6006 814.2 68.4006 819.2 68.0006C820.9 67.9006 821 68.7006 821 70.0006C821 71.9006 821.1 73.8006 821.1 75.8006Z" fill="#070707"/>
<path d="M1487 77.2002C1492.5 69.1002 1499.3 66.4002 1507.9 68.0002C1513.8 69.1002 1517.5 72.9002 1518.5 79.0002C1519.8 86.1002 1518.9 93.3002 1519.1 100.4C1519.2 103.6 1519.1 106.9 1519.2 110.1C1519.3 114.2 1520.2 115.2 1524.2 115.8C1525 115.9 1526.1 115.6 1526.2 117C1526.3 118.7 1525 118.3 1524.1 118.3C1517.1 118.3 1510 118.3 1503 118.3C1502.1 118.3 1500.8 118.8 1500.7 117.2C1500.6 115.6 1502 115.9 1502.9 115.9C1505.9 115.7 1507.5 114.1 1507.6 111.3C1507.9 100.7 1508.4 90.1002 1507.2 79.5002C1506.9 76.4002 1505.7 73.4002 1502.4 72.4002C1498.9 71.3002 1495.5 71.9002 1492.7 74.5002C1488.7 78.2002 1487.4 83.0002 1487.2 88.1002C1487 94.9002 1487.1 101.7 1487.2 108.5C1487.3 114 1487.7 114.5 1493 115.9C1493.7 116.1 1494.3 116.2 1494.3 117.1C1494.4 118.2 1493.7 118.4 1492.8 118.4C1485.2 118.4 1477.6 118.4 1470 118.4C1469.3 118.4 1468.6 118.3 1468.6 117.4C1468.5 116.4 1469.1 116.1 1470 115.9C1475.5 114.6 1475.7 114.4 1475.7 108.9C1475.8 98.7002 1475.8 88.6002 1475.7 78.4002C1475.7 73.1002 1475.4 72.8002 1470.2 71.5002C1469.5 71.3002 1468.9 71.2002 1468.9 70.3002C1468.9 69.3002 1469.4 68.9002 1470.3 68.9002C1475.4 68.6002 1480.6 68.4002 1485.7 68.0002C1487 67.9002 1487.2 68.6002 1487.1 69.6002C1486.9 71.7002 1487 73.9002 1487 77.2002Z" fill="#070707"/>
<path d="M703.7 109.301C699.5 115.301 694.5 118.701 687.8 119.401C679.8 120.201 673.6 115.001 673 107.001C672.3 98.1012 673 89.1012 672.9 80.2012C672.9 78.9012 673 77.5012 672.8 76.2012C672.5 73.4012 671.5 71.2012 668.2 71.2012C667.3 71.2012 666 71.4012 666.1 69.8012C666.2 68.1012 667.6 68.8012 668.4 68.7012C673.1 68.3012 677.8 68.2012 682.4 67.7012C684.8 67.4012 684.8 68.3012 684.8 70.2012C684.3 81.7012 683.9 93.2012 684.4 104.701C684.4 105.701 684.5 106.701 684.7 107.701C686.2 114.501 692.5 116.601 697.9 112.101C701.9 108.701 703.4 104.001 703.6 99.0012C703.9 91.6012 703.8 84.3012 703.7 76.9012C703.7 73.7012 702.8 71.1012 698.7 71.3012C697.8 71.3012 696.9 71.1012 697 69.8012C697.1 68.3012 698.3 68.8012 699 68.8012C703.7 68.4012 708.4 68.3012 713 67.8012C715.4 67.5012 715.9 68.2012 715.7 70.4012C714.7 81.8012 715.2 93.2012 715.1 104.601C715.1 106.801 715.2 109.101 715.4 111.301C715.6 113.801 716.7 115.801 719.6 116.001C720.4 116.101 721.2 116.201 721.2 117.301C721.2 118.701 720.2 118.501 719.3 118.501C714.9 118.701 710.6 118.801 706.3 119.201C704.4 119.401 704 118.501 703.9 116.901C704 114.501 703.8 112.301 703.7 109.301Z" fill="#070707"/>
<path d="M1250.1 112.401C1246 116.501 1241.3 119.201 1235.5 119.401C1230.2 119.601 1225.4 118.301 1222.3 113.701C1219.3 109.001 1219.1 103.901 1221.5 99.0014C1224 93.8014 1229 91.9014 1234.2 90.7014C1238.8 89.7014 1243.4 89.1014 1248.1 88.9014C1249.8 88.8014 1250.5 88.4014 1250.4 86.6014C1250.1 82.6014 1250.7 78.6014 1249.7 74.6014C1248.9 71.4014 1247 69.9014 1243.8 69.8014C1239.9 69.6014 1237.6 71.0014 1236.3 74.1014C1235.6 75.9014 1235.5 77.8014 1235.3 79.7014C1235.2 81.8014 1234.4 83.5014 1232.2 83.9014C1229.4 84.4014 1226.6 84.6014 1224.2 82.6014C1222.4 81.0014 1222.8 78.9014 1223.6 77.0014C1225.6 72.1014 1229.9 69.9014 1234.7 68.7014C1240.2 67.2014 1245.7 67.0014 1251.3 68.2014C1258 69.6014 1261.6 73.6014 1261.7 80.5014C1261.8 89.9014 1261.7 99.3014 1261.7 108.701C1261.7 113.901 1261.8 114.001 1266.8 115.601C1267.4 115.801 1267.8 115.901 1267.9 116.601C1268 117.401 1267.7 118.001 1266.9 118.001C1262.6 118.301 1258.3 119.301 1253.9 118.901C1252.5 118.801 1251.7 117.501 1251.3 116.101C1250.8 114.901 1251.1 113.601 1250.1 112.401ZM1250.3 98.2014C1250.3 97.5014 1250.3 96.9014 1250.3 96.2014C1250.3 91.0014 1250.3 91.0014 1245.2 91.5014C1242.9 91.8014 1240.6 92.4014 1238.5 93.3014C1231.5 96.4014 1229.5 107.901 1235 113.301C1237.4 115.601 1240.2 115.501 1243.1 114.501C1246.1 113.401 1247.9 111.001 1249.1 108.101C1250.4 104.901 1250.3 101.601 1250.3 98.2014Z" fill="#070707"/>
<path d="M1039.6 93.6007C1039.7 81.6007 1045.1 72.7007 1054.8 69.2007C1070.9 63.4007 1090.2 72.0007 1088.5 95.8007C1087.8 105.201 1084.1 113.101 1074.8 117.101C1060.7 123.301 1039.7 117.901 1039.6 93.6007ZM1076 92.5007C1076.3 89.7007 1075.5 85.9007 1075.1 82.2007C1074.9 80.7007 1074.4 79.2007 1073.9 77.7007C1072.2 72.5007 1068.7 69.8007 1064 69.8007C1059.3 69.8007 1055.9 72.2007 1054.4 77.5007C1051.3 88.1007 1051.3 98.8007 1054.4 109.401C1056 114.801 1059.4 117.201 1064.3 117.101C1069.1 117.001 1072.2 114.401 1074 109.001C1075.7 104.001 1075.9 98.8007 1076 92.5007Z" fill="#070707"/>
<path d="M1413 93.5018C1413.1 81.2018 1418.9 71.9018 1428.8 68.9018C1447 63.3018 1463.9 74.5018 1461.7 96.5018C1460.8 105.702 1457.1 113.202 1448.1 117.102C1434.2 123.202 1413.1 118.002 1413 93.5018ZM1425.6 93.3018C1425.8 98.6018 1425.9 104.002 1427.6 109.102C1429.5 114.602 1432.7 117.202 1437.7 117.102C1442.5 117.002 1445.8 114.502 1447.3 109.002C1450.2 98.7018 1450.1 88.3018 1447.3 78.0018C1445.8 72.5018 1442.2 69.7018 1437.3 69.8018C1432.4 69.8018 1429.2 72.5018 1427.4 78.1018C1425.9 83.1018 1425.8 88.2018 1425.6 93.3018Z" fill="#070707"/>
<path d="M1113.5 92.5011C1113.5 98.3011 1113.4 104.101 1113.5 109.901C1113.6 114.101 1114.7 115.201 1118.8 115.701C1119.7 115.801 1121 115.401 1121.1 116.901C1121.1 118.801 1119.6 118.201 1118.6 118.201C1111.5 118.201 1104.3 118.201 1097.2 118.201C1096.3 118.201 1095 118.801 1094.9 117.201C1094.8 115.601 1096 115.801 1097 115.801C1100.6 115.701 1101.9 113.501 1102 110.401C1102.1 98.2011 1102 86.1011 1102.1 73.9011C1102.1 71.4011 1100.4 72.4011 1099.2 72.0011C1097.7 71.5011 1094.8 73.8011 1094.9 70.3011C1095 67.5011 1097.7 68.9011 1099.1 69.0011C1101.8 69.2011 1102.4 68.1011 1102 65.7011C1101.8 64.5011 1101.9 63.2011 1101.9 62.0011C1101.8 52.8011 1107 47.2011 1116.3 46.6011C1119.6 46.4011 1123 46.4011 1126.2 47.6011C1128.1 48.3011 1129.9 49.2011 1131.3 50.7011C1132.8 52.4011 1134 54.5011 1132.6 56.8011C1131 59.5011 1128.2 59.6011 1125.5 59.3011C1123.2 59.0011 1121.6 57.8011 1121.6 55.1011C1121.6 53.9011 1121.3 52.7011 1121 51.5011C1120.7 50.1011 1120.3 48.9011 1118.6 48.7011C1116.9 48.6011 1115.5 48.9011 1114.7 50.6011C1114.2 51.7011 1113.7 52.8011 1113.7 54.1011C1113.7 55.4011 1113.5 56.8011 1113.6 58.1011C1113.7 61.5011 1112.5 65.9011 1114.2 68.2011C1115.8 70.3011 1120.5 68.6011 1123.7 68.9011C1124.7 69.0011 1126 68.5011 1126 70.4011C1126 72.3011 1124.9 72.2011 1123.6 72.2011C1121.3 72.2011 1118.9 72.3011 1116.6 72.2011C1114.3 72.0011 1113.5 72.6011 1113.6 75.1011C1113.6 80.7011 1113.5 86.6011 1113.5 92.5011Z" fill="#070707"/>
<path d="M894.601 91.6007C890.001 91.6007 885.401 91.7007 880.901 91.6007C878.901 91.5007 878.401 92.2007 878.601 94.1007C879.001 98.1007 879.301 102.101 880.801 105.901C885.101 116.801 896.801 119.201 905.101 111.001C906.501 109.701 907.601 108.201 908.501 106.501C909.001 105.501 909.701 105.401 910.701 106.001C911.701 106.601 911.301 107.301 910.901 108.001C908.101 113.001 904.201 116.901 898.501 118.501C883.801 122.601 866.001 115.401 866.501 93.1007C866.801 81.1007 872.001 72.6007 881.501 69.2007C894.401 64.7007 910.901 69.7007 911.101 89.3007C911.101 91.2007 910.601 91.8007 908.701 91.7007C904.001 91.5007 899.301 91.6007 894.601 91.6007ZM888.701 88.8007C891.601 88.8007 894.501 88.8007 897.401 88.8007C898.401 88.8007 899.401 89.0007 899.301 87.3007C899.001 83.2007 898.901 79.1007 897.001 75.3007C895.601 72.3007 893.701 70.0007 890.101 69.8007C886.301 69.6007 883.801 71.7007 882.001 74.7007C880.001 78.0007 879.401 81.7007 878.801 85.5007C878.401 87.9007 878.701 89.2007 881.601 88.9007C884.001 88.6007 886.401 88.8007 888.701 88.8007Z" fill="#070707"/>
<path d="M546.7 91.6009C542.1 91.6009 537.5 91.7009 533 91.6009C531 91.5009 530.5 92.2009 530.6 94.1009C530.8 98.7009 531.4 103.201 533.4 107.401C537.9 116.401 547.6 118.601 555.5 112.401C557.3 111.001 558.7 109.301 560 107.401C560.6 106.501 560.9 104.801 562.6 106.001C564.3 107.201 562.7 108.201 562.2 109.101C557.7 116.601 550.8 119.801 542.2 119.601C528.5 119.301 519.3 110.201 518.5 96.5009C518.1 90.1009 518.8 84.0009 522.2 78.4009C530.2 64.9009 551.4 63.8009 559.5 76.5009C562.1 80.5009 562.8 84.9009 563 89.6009C563.1 91.5009 562.4 91.8009 560.7 91.8009C556.1 91.5009 551.4 91.6009 546.7 91.6009ZM540.9 88.8009C543.8 88.8009 546.7 88.8009 549.6 88.8009C550.7 88.8009 551.6 88.8009 551.5 87.3009C551.2 83.0009 550.9 78.6009 548.9 74.7009C545.7 68.5009 539.1 68.0009 535 73.8009C532.1 77.8009 531.5 82.6009 530.9 87.3009C530.7 88.8009 531.5 88.9009 532.6 88.9009C535.3 88.8009 538.1 88.8009 540.9 88.8009Z" fill="#070707"/>
<path d="M728.8 109.901C728.9 107.701 729.1 105.401 729.2 103.201C729.2 102.301 729.2 101.401 730.5 101.401C731.7 101.401 732.7 101.401 732.8 103.001C733.1 106.001 733.9 108.901 735.6 111.501C738.8 116.401 744.7 118.501 749.9 116.501C755.8 114.201 757.1 107.101 752.2 103.101C748.8 100.301 744.7 98.701 740.8 96.901C738 95.601 735.2 94.301 732.8 92.101C725.8 85.601 727.4 74.201 735.9 69.801C741.1 67.101 746.6 67.201 752.2 68.301C754.5 68.801 756.9 69.101 759.2 68.501C761 68.001 761.1 68.801 761 70.101C760.7 74.101 760.5 78.101 760.3 82.101C760.2 83.401 760.2 84.401 758.3 84.401C756.6 84.401 756.6 83.501 756.5 82.301C756.2 79.801 755.6 77.501 754.5 75.301C752.1 70.901 747.8 68.901 742.9 70.101C740.1 70.801 738.1 72.401 737.4 75.301C736.7 78.201 737.1 80.801 739.6 82.901C742.4 85.401 746 86.601 749.3 88.101C752.1 89.401 754.9 90.701 757.5 92.501C762.5 96.001 763.9 100.801 763 106.601C762.1 112.501 759 116.401 753.4 118.301C749.1 119.801 744.6 119.701 740.2 118.901C737.1 118.401 734 118.001 730.9 118.401C729.1 118.601 728.6 118.001 728.7 116.301C728.9 114.201 728.7 112.101 728.7 109.901H728.8Z" fill="#070707"/>
<path d="M952.4 68.1011C952.1 73.2011 951.8 78.0011 951.6 82.7011C951.5 84.0011 951 84.4011 949.7 84.4011C948.5 84.4011 947.9 84.1011 947.8 82.7011C947.6 79.9011 946.9 77.2011 945.4 74.8011C942.9 70.6011 938.1 68.7011 933.6 70.2011C930.9 71.1011 929 72.9011 928.5 75.8011C928 78.6011 928.6 81.1011 931 83.0011C933.9 85.4011 937.4 86.6011 940.7 88.2011C943.4 89.5011 946.1 90.8011 948.6 92.5011C953.3 95.7011 955 100.301 954.4 105.901C953.7 112.101 950.6 116.501 944.5 118.501C940.2 119.901 935.9 119.801 931.6 119.101C928.4 118.501 925.2 118.201 921.9 118.501C920.3 118.701 919.7 118.201 919.8 116.501C920.1 112.001 920.2 107.601 920.4 103.101C920.4 102.101 920.6 101.401 921.9 101.501C922.9 101.601 923.8 101.401 924.1 102.901C924.5 105.001 924.7 107.101 925.6 109.101C928.1 114.901 932.2 117.601 938.4 117.201C942.4 117.001 945 115.001 946.1 111.401C947.2 107.801 946.1 104.901 942.6 102.501C939.7 100.501 936.4 99.0011 933.2 97.5011C930.7 96.3011 928.2 95.1011 925.9 93.6011C920.9 90.3011 918.9 85.6011 920 79.7011C921 74.0011 924.6 70.4011 930.1 68.8011C933.5 67.7011 937 67.4011 940.7 68.0011C944.3 68.5011 948.2 69.3011 952.4 68.1011Z" fill="#070707"/>
<path d="M996.2 68.201C996.2 73.201 996.2 78.001 996.2 82.701C996.2 83.801 995.9 84.301 994.7 84.301C993.5 84.301 992.5 84.201 992.3 82.701C992.1 80.401 991.6 78.101 990.6 75.901C988.3 71.001 984 68.801 978.8 70.001C975.9 70.701 973.8 72.401 973.1 75.401C972.4 78.401 973 80.901 975.4 82.901C977.5 84.701 979.9 85.701 982.3 86.801C985.3 88.301 988.4 89.601 991.3 91.301C997.8 95.101 1000 100.101 998.6 107.401C997.4 113.801 992.7 117.901 985.6 119.101C982 119.701 978.5 119.301 974.9 118.701C972.3 118.301 969.8 117.901 967.2 118.301C964.2 118.801 964 117.601 964.2 115.101C964.6 111.401 964.5 107.701 964.7 104.101C964.8 102.901 964.3 101.401 966.6 101.401C968.5 101.401 968.3 102.601 968.5 103.801C969 107.001 970 110.101 972.1 112.701C975.4 116.801 979.8 117.901 984.7 116.801C987.6 116.201 989.8 114.401 990.4 111.301C991.1 107.901 990.5 104.901 987.4 102.701C983.5 100.001 979.2 98.201 975 96.201C970.8 94.201 966.8 91.901 964.9 87.401C962 80.601 965.1 72.801 971.8 69.601C977.1 67.001 982.6 67.201 988.2 68.401C991.1 68.901 993.8 69.001 996.2 68.201Z" fill="#070707"/>
<path d="M1307.8 68C1307.6 73.1 1307.3 77.9 1307.2 82.6C1307.2 84 1306.6 84.3 1305.4 84.3C1304.3 84.3 1303.4 84.2 1303.4 82.7C1303.3 80 1302.5 77.4 1301.3 75C1299 70.6 1294.1 68.6 1289.3 70C1286.5 70.8 1284.7 72.7 1284.1 75.6C1283.5 78.6 1284.3 81.1 1286.7 83.1C1289.5 85.3 1292.9 86.5 1296.1 88C1298.7 89.2 1301.3 90.5 1303.8 92.1C1309.2 95.6 1310.7 100.6 1309.8 106.6C1308.9 112.7 1305.5 116.6 1299.5 118.4C1295.3 119.7 1291.1 119.5 1286.9 118.8C1283.8 118.3 1280.7 118 1277.6 118.3C1275.8 118.5 1275.3 118.1 1275.4 116.2C1275.7 112 1275.8 107.7 1275.9 103.5C1275.9 102.3 1275.9 101.3 1277.6 101.3C1279 101.3 1279.6 101.8 1279.8 103.2C1280.1 105.6 1280.7 108 1281.8 110.2C1284.5 115.4 1289.8 118.1 1295.5 116.8C1298.6 116.1 1301 114.4 1301.8 111C1302.6 107.6 1301.7 104.8 1298.9 102.7C1295.8 100.4 1292.4 98.9 1289 97.3C1286.4 96.1 1283.7 94.9 1281.3 93.2C1276.8 89.9 1274.5 85.6 1275.4 79.9C1276.4 73.9 1280 70.2 1285.7 68.4C1290.3 66.9 1294.9 67.3 1299.6 68.2C1302.2 68.9 1304.8 68.9 1307.8 68Z" fill="#070707"/>
<path d="M1399 89.9016C1399 96.6016 1398.9 103.302 1399 110.002C1399.1 114.302 1400 115.202 1404.2 115.802C1405.2 115.902 1406.4 115.702 1406.2 117.302C1406 118.702 1404.9 118.302 1404.1 118.302C1396.7 118.302 1389.4 118.302 1382 118.302C1381.2 118.302 1380.1 118.602 1380.1 117.102C1380.1 115.802 1381 115.802 1381.9 115.802C1385.5 115.802 1387.1 114.002 1387.2 110.402C1387.5 99.0016 1387.4 87.6016 1387.2 76.2016C1387.1 72.9016 1385.7 71.2016 1382.4 71.1016C1381.5 71.1016 1380.2 71.4016 1380.3 69.7016C1380.4 68.0016 1381.7 68.6016 1382.5 68.6016C1387.4 68.2016 1392.3 68.0016 1397.2 67.5016C1399.1 67.3016 1399.3 67.9016 1399.3 69.7016C1399.2 76.4016 1399.2 83.1016 1399.2 89.8016C1399.2 89.9016 1399.1 89.9016 1399 89.9016Z" fill="#070707"/>
<path d="M789.8 89.6017C789.8 96.1017 789.7 102.502 789.8 109.002C789.9 114.302 790.4 114.702 795.5 115.702C796.4 115.902 797 116.002 797 117.002C797 118.202 796.2 118.102 795.4 118.102C787.8 118.102 780.2 118.102 772.6 118.102C771.9 118.102 771 118.302 770.9 117.102C770.8 115.802 771.7 115.802 772.6 115.602C777.4 114.802 778.2 114.002 778.2 109.102C778.3 98.5017 778.2 87.9017 778.2 77.3017C778.2 72.4017 777.8 72.0017 772.9 71.0017C772.1 70.8017 771.4 70.9017 771.3 69.8017C771.2 68.4017 772.3 68.6017 773.1 68.5017C778 68.2017 782.9 68.0017 787.8 67.5017C789.8 67.3017 790.2 67.8017 790.2 69.8017C790.1 76.4017 790.2 83.0017 790.2 89.5017C790.1 89.6017 790 89.6017 789.8 89.6017Z" fill="#070707"/>
<path d="M784.3 59.4C780.4 59.5 777.5 56.6 777.4 52.8C777.4 49 780.4 46 784.2 46C787.7 46 790.9 49 791 52.5C791.1 56.1 788 59.3 784.3 59.4Z" fill="#070707"/>
<path d="M1399.9 52.7008C1399.9 56.6008 1397.1 59.4008 1393.1 59.3008C1389.4 59.2008 1386.5 56.4008 1386.4 52.7008C1386.3 49.0008 1389.4 45.9008 1393.2 45.8008C1397.1 45.9008 1399.9 48.8008 1399.9 52.7008Z" fill="#070707"/>
</svg>
