<svg width="1920" height="1080" viewBox="0 0 1920 1080" fill="none" xmlns="http://www.w3.org/2000/svg">
<path d="M314.2 438.902C303.2 506.202 292.7 570.202 282.1 634.202C280.8 641.702 282.6 653.602 274.6 655.102C261.3 657.602 247.1 655.702 233.4 654.702C230 654.402 230.3 649.102 229.8 645.702C218.4 566.502 206.9 487.302 195.5 408.102C191.9 383.102 188.2 358.002 184.5 333.002C184.1 330.202 182.4 325.602 183.4 325.002C194.9 317.702 207.8 323.002 220 321.602C228.2 320.702 228.7 326.702 229.5 332.802C237.7 393.102 246.1 453.501 254.6 513.801C255.3 518.902 256.6 523.801 260.4 529.101C265.2 500.501 270 471.902 274.7 443.301C280.8 405.901 287 368.502 292.5 331.102C293.6 323.602 296.9 322.002 303.7 321.402C337.7 318.702 338 318.402 344.4 356.402C354.6 416.902 364.2 477.602 374.2 539.301C381.6 489.501 388.8 440.602 396 391.702C398.7 373.502 401.7 355.302 403.7 337.002C405 325.102 409.5 320.802 422.2 321.202C452.7 322.102 451.8 321.202 446.9 352.202C431.9 445.902 417.4 539.602 403.5 633.402C401.1 649.802 396.8 658.302 377.5 656.802C350.8 654.702 351.5 656.102 347.6 630.502C338.6 571.402 328.7 512.502 319.1 453.502C318.4 449.402 316.6 445.802 314.2 438.902Z" fill="#EC1E3E"/>
<path d="M513.7 489.301C513.7 438.601 514.1 387.801 513.4 337.101C513.3 325.701 516.3 322.401 527.6 323.001C562.1 324.801 596.7 320.601 631.2 325.601C680.9 332.801 703.1 351.901 705.7 402.201C708.9 464.801 711.5 527.801 703.8 590.301C698.7 631.901 668 658.101 626 658.901C592.6 659.501 559.1 658.701 525.7 659.401C515.5 659.601 513.5 656.001 513.6 646.701C513.9 594.201 513.7 541.801 513.7 489.301ZM577.2 492.201C577.2 526.201 577.1 560.201 577.3 594.301C577.3 598.901 574.9 604.501 582.6 606.901C617.8 617.601 642.2 600.201 642.4 563.801C642.6 518.801 642.4 473.901 642.4 428.901C642.4 383.001 636.8 378.001 590.4 378.401C579.7 378.501 576.7 381.301 576.9 391.901C577.6 425.301 577.2 458.801 577.2 492.201Z" fill="#252122"/>
<path d="M1316.4 437.701C1308.2 472.801 1291.6 512.401 1259 543.801C1252 550.501 1242.7 555.801 1232.5 554.801C1220.9 553.701 1218 560.101 1216.2 569.301C1208.3 608.701 1199.7 648.001 1192.2 687.401C1190.3 697.401 1187.4 698.801 1178.9 694.101C1167.4 687.701 1155.7 681.301 1143.4 676.601C1132.1 672.301 1131.2 665.201 1133.4 655.201C1141.2 619.401 1148.5 583.601 1156.4 547.901C1158 540.501 1159.1 534.801 1150.2 531.201C1140.2 527.101 1139.5 535.901 1137.2 540.401C1120.9 572.001 1104.9 603.801 1089.5 635.901C1085.2 644.801 1081.4 646.401 1072.9 641.401C1058.6 633.101 1036.5 629.101 1030.9 617.101C1025 604.401 1042.1 587.901 1049.4 573.201C1089.8 492.101 1130.9 411.301 1171.3 330.101C1176.2 320.301 1180.1 317.401 1190.4 323.201C1220 339.701 1251.7 352.201 1280.3 370.601C1301.8 384.101 1317.2 401.601 1316.4 437.701ZM1206.2 499.601C1213.3 500.401 1219 497.401 1222.7 492.001C1234.5 474.901 1244 456.401 1250.7 436.901C1256.3 420.501 1232.9 394.901 1214.5 395.001C1209.8 395.001 1208.8 398.601 1207.4 401.401C1194.9 426.001 1182.6 450.701 1170.2 475.301C1168.3 479.001 1166 482.801 1171.4 485.401C1182.7 490.901 1193.3 498.101 1206.2 499.601Z" fill="#252122"/>
<path d="M1325.5 462.001C1325.5 419.901 1325.7 377.901 1325.3 335.801C1325.2 326.401 1327.3 322.401 1337.6 323.001C1354.2 324.101 1375.9 317.601 1386.1 325.801C1396.9 334.501 1389.2 357.001 1389.3 373.501C1389.7 439.201 1389.3 504.901 1389.6 570.601C1389.7 596.401 1398.2 606.501 1418.4 607.301C1439.2 608.201 1449.5 599.501 1451.9 578.801C1452.7 571.401 1452.8 563.801 1452.8 556.401C1452.9 483.801 1453.1 411.201 1452.6 338.601C1452.5 327.001 1454.7 321.801 1467.5 323.001C1479.5 324.101 1491.7 324.001 1503.8 323.001C1515.1 322.001 1516.9 326.701 1516.9 336.801C1516.5 414.001 1516.9 491.201 1516.5 568.501C1516.4 581.001 1515.4 594.001 1512.2 606.101C1502.7 642.001 1479.7 658.301 1435.2 662.301C1417.3 663.901 1399.4 662.201 1382.1 658.201C1349.1 650.401 1328.2 625.601 1327.1 590.001C1325.7 547.401 1326.8 504.701 1326.8 462.101C1326.2 462.001 1325.9 462.001 1325.5 462.001Z" fill="#252122"/>
<path d="M929.9 662.5C878 662.4 848.2 644.1 837.5 606.7C835.9 601.2 834.9 595.5 833.7 589.9C828 564.2 830.2 561.2 855.9 558.4C859.9 558 863.7 556.4 867.6 555.7C893.8 550.9 894.6 551.4 897.7 577.2C901 603.8 929.4 616.5 951.6 601.3C962.2 594.1 964.9 571.5 957.1 557.1C951.4 546.7 942.8 539.1 933.9 531.8C911.7 513.4 889 495.7 867.6 476.4C849.6 460.2 838.2 439.6 836.2 414.9C831.6 359.1 859.5 326.6 915.5 321.7C929.4 320.5 943.2 321.3 956.9 323.2C995.3 328.8 1023.3 362.5 1022.2 400.5C1022 406.5 1020 408.7 1014.4 409.1C999.5 410.3 984.5 411.5 969.7 413.1C961.2 414 957 411.8 956.9 402.2C956.9 390.2 951.7 380.8 938.8 378.5C926 376.2 912.4 375.4 904.5 388C897.7 398.8 898.5 411.4 905.4 422.3C913.9 435.7 927.1 444.4 939 454.4C960.2 472.1 982.9 488.1 1001.3 509.1C1028.6 540.2 1032.3 576.1 1020.4 614C1012.4 639.6 991.7 652.5 967.2 658.1C954.5 661 941.3 664.6 929.9 662.5Z" fill="#252122"/>
<path d="M1544.7 489.501C1544.7 438.801 1545 388.201 1544.5 337.501C1544.4 326.801 1546.3 322.401 1558.3 322.901C1593.9 324.601 1629.6 321.601 1665.2 325.901C1698.2 329.901 1719.6 346.401 1726.6 379.001C1733.8 412.501 1734 446.501 1725.9 480.001C1718.6 510.401 1697.4 528.201 1666.4 530.901C1651 532.301 1635.4 533.901 1620 533.301C1608.4 532.901 1607.1 537.501 1607.2 547.301C1607.7 580.101 1607 612.901 1607.6 645.801C1607.8 655.901 1606 660.401 1594.6 659.401C1578.7 658.101 1557.7 664.401 1547.9 656.401C1537.6 648.001 1545 626.201 1544.8 610.401C1544.4 570.101 1544.7 529.801 1544.7 489.501ZM1607.3 428.301C1607.3 435.201 1607.3 442.101 1607.3 449.001C1607.3 484.901 1607.3 484.701 1643.4 480.101C1657.7 478.301 1665.6 470.901 1666 456.801C1666.6 438.401 1667.1 419.901 1665.9 401.601C1664.6 381.201 1650.1 374.101 1617.7 376.101C1597.6 377.301 1609.8 392.401 1607.8 400.801C1605.7 409.501 1607.3 419.101 1607.3 428.301Z" fill="#252122"/>
<path d="M133.3 474.702C154.8 487.002 160 506.902 162.1 528.902C164.5 554.302 164 579.602 159.5 604.602C153.7 636.502 133 652.702 94.6998 654.702C67.0998 656.102 39.3998 654.902 11.7998 655.502C2.79983 655.702 1.49983 651.702 1.59983 644.102C1.79983 540.402 1.69983 436.802 1.69983 333.102C1.69983 327.302 0.899826 321.202 9.89983 321.502C44.2998 322.602 78.8998 318.702 113.1 325.902C135.7 330.602 149.9 343.902 155.6 365.902C162.3 392.002 162.6 418.302 156.5 444.502C153.4 457.002 145.8 467.102 133.3 474.702ZM48.7998 556.702C48.7998 565.902 48.7998 575.102 48.7998 584.302C48.7998 617.402 48.7998 617.402 82.5998 614.602C107.2 612.602 114.6 605.002 115.8 580.102C116.3 569.802 116.1 559.402 116.1 549.102C116.1 501.702 109.7 495.502 62.1998 496.902C61.5998 496.902 60.9998 497.002 60.4998 496.902C51.4998 495.702 48.3998 499.602 48.5998 508.602C49.1998 524.502 48.8998 540.602 48.7998 556.702ZM48.8998 409.402C48.8998 422.102 48.7998 434.802 48.9998 447.402C48.9998 451.202 48.0998 455.402 52.9998 457.702C77.6998 469.402 112.2 449.102 113.1 422.102C113.4 413.502 113.4 404.802 113.1 396.202C112.2 371.002 103.2 362.202 78.0998 361.602C72.2998 361.502 66.4998 362.002 60.7998 361.502C51.8998 360.702 48.2998 363.802 48.7998 373.102C49.2998 385.102 48.8998 397.302 48.8998 409.402Z" fill="#EC1E3E"/>
<path d="M1796.8 518.901C1796.8 478.001 1796.3 437.101 1797.1 396.201C1797.3 383.801 1794.8 379.301 1781.2 379.401C1734.2 379.801 1734.5 379.201 1737.6 332.701C1738.1 325.001 1740.5 323.101 1747.7 323.201C1801.3 323.401 1854.9 323.401 1908.5 323.201C1915.9 323.201 1919.4 325.301 1918.3 333.001C1918.1 334.101 1918.3 335.301 1918.3 336.501C1919.2 379.501 1919.2 380.301 1876.2 379.401C1861.5 379.101 1859.7 384.601 1859.8 397.101C1860.3 479.501 1859.8 561.901 1860.3 644.301C1860.4 656.201 1857.8 660.701 1845.3 659.601C1829.9 658.201 1809.3 664.601 1800.3 656.701C1789.9 647.601 1797.3 626.501 1797 610.601C1796.4 580.001 1796.8 549.401 1796.8 518.901Z" fill="#252122"/>
<path d="M804.8 563.801C804.8 592.601 804.4 621.501 805 650.301C805.2 660.101 802.4 663.401 792.5 662.701C779.9 661.901 767.1 661.701 754.5 662.801C743.1 663.801 741.5 659.001 741.5 649.001C741.9 591.301 742 533.701 741.5 476.001C741.4 464.801 744.2 460.701 755.8 461.701C767.2 462.701 778.9 462.801 790.3 461.701C803.2 460.401 805.3 465.901 805 477.301C804.3 506.101 804.8 534.901 804.8 563.801Z" fill="#252122"/>
<path d="M828.3 384.002C828.2 414.702 809.8 435.502 778.9 442.902C759.5 447.602 732.5 433.002 722.2 412.202C711.2 390.102 716.5 362.202 734.9 346.102C740.2 341.502 746.2 335.902 752.6 342.702C758.8 349.302 752.7 354.102 747.5 358.002C728.6 372.502 732.6 403.202 745.3 414.902C760.3 428.702 783.8 428.902 798.4 414.902C814.9 398.902 814.4 376.602 796.7 358.602C792 353.802 786.4 348.802 791.8 342.702C798 335.802 804.3 341.502 809.5 346.102C821.7 357.102 827.6 371.002 828.3 384.002Z" fill="#252122"/>
<path d="M780.7 357.501C780.7 365.501 780.6 373.601 780.7 381.601C780.8 387.201 778 390.601 772.7 390.701C766.9 390.801 763.1 387.701 763.2 381.201C763.3 365.101 763.2 349.101 763.3 333.001C763.3 327.001 766 322.701 772.3 322.801C778.8 322.901 780.8 327.701 780.9 333.401C781 341.401 780.9 349.501 780.9 357.501C780.8 357.501 780.7 357.501 780.7 357.501Z" fill="#252122"/>
<path d="M1703.3 744.102C1707.6 748.902 1711.6 753.302 1715.9 758.102C1709.8 759.302 1705 758.802 1701.6 753.502C1700.5 751.802 1698.6 750.602 1697.5 748.802C1694.7 744.202 1690.6 743.602 1685.8 744.002C1683.7 744.202 1683.1 744.802 1683.2 746.802C1683.3 749.902 1683.1 753.002 1683.3 756.202C1683.5 759.702 1680.9 758.502 1679.3 758.602C1677.6 758.602 1675.3 759.502 1675.3 756.102C1675.4 744.102 1675.4 732.202 1675.3 720.202C1675.3 717.702 1676.7 717.902 1678.3 717.902C1686 717.902 1693.6 717.802 1701.3 717.902C1708.4 718.002 1713.8 722.502 1714.8 729.002C1715.8 735.302 1712.2 740.802 1705.4 743.302C1704.8 743.502 1704.4 743.702 1703.3 744.102ZM1692.9 736.702C1695.8 736.602 1698.6 736.802 1701.5 736.602C1704.8 736.302 1707.2 733.502 1706.8 730.502C1706.4 727.302 1704.6 725.202 1701.2 725.202C1696 725.102 1690.8 725.202 1685.6 725.102C1683.7 725.102 1683.3 725.802 1683.2 727.602C1682.7 736.702 1682.7 736.702 1691.8 736.702C1692.2 736.702 1692.5 736.702 1692.9 736.702Z" fill="#0A0A0A"/>
<path d="M764.5 737.902C764.5 732.202 764.6 726.502 764.5 720.702C764.5 718.602 764.9 717.802 767.2 717.802C778.1 717.902 789.1 718.002 800 717.802C803.7 717.702 802.5 720.102 802.7 721.902C802.9 724.002 802.9 725.502 799.8 725.402C792 725.202 784.2 725.502 776.4 725.202C773.4 725.102 772.3 725.902 772.5 729.102C772.7 734.602 772.5 734.602 778.1 734.602C782.1 734.602 786.2 734.802 790.2 734.502C793.2 734.302 792.9 736.202 792.7 738.002C792.6 739.702 793.7 742.102 790.2 741.902C785.4 741.702 780.6 741.902 775.8 741.802C773.4 741.702 772.4 742.302 772.4 745.002C772.5 750.802 772.3 750.802 778.1 750.802C785.4 750.802 792.7 751.002 799.9 750.702C803.3 750.602 802.6 752.502 802.6 754.402C802.6 756.302 803.5 758.502 799.8 758.502C788.9 758.302 778 758.402 767 758.502C764.9 758.502 764.3 757.802 764.4 755.802C764.6 749.902 764.5 743.902 764.5 737.902Z" fill="#0A0A0A"/>
<path d="M987.1 738.001C987.1 732.101 987.2 726.301 987 720.401C986.9 718.301 987.7 717.801 989.6 717.801C1000.7 717.901 1011.7 717.901 1022.8 717.801C1026 717.801 1025.2 719.801 1025.2 721.401C1025.1 723.001 1026.4 725.501 1022.8 725.401C1014.7 725.201 1006.7 725.501 998.6 725.301C995.6 725.201 994.9 726.201 995 729.001C995.2 734.601 995 734.601 1000.5 734.601C1004.5 734.601 1008.6 734.801 1012.6 734.501C1015.9 734.301 1015.2 736.401 1015.3 738.301C1015.3 740.201 1015.8 742.201 1012.5 742.001C1007.7 741.701 1002.9 742.001 998.1 741.901C995.7 741.801 994.7 742.601 995.1 745.001C995.2 746.001 995.2 747.101 995.1 748.101C994.8 750.301 995.7 751.001 997.9 750.901C1006 750.801 1014 751.001 1022.1 750.801C1025.1 750.701 1025.6 751.901 1025.4 754.401C1025.2 756.501 1026 758.701 1022.3 758.601C1011.6 758.301 1001 758.401 990.3 758.601C987.5 758.601 987.1 757.601 987.2 755.201C987.2 749.501 987.1 743.701 987.1 738.001Z" fill="#0A0A0A"/>
<path d="M1154.1 737.902C1154.1 732.202 1154.2 726.402 1154.1 720.702C1154 718.602 1154.5 717.802 1156.8 717.802C1167.7 717.902 1178.7 718.002 1189.6 717.802C1192.9 717.702 1192.2 719.702 1192.2 721.602C1192.2 723.402 1192.9 725.502 1189.6 725.402C1181.5 725.202 1173.5 725.502 1165.4 725.302C1162.6 725.202 1161.9 726.102 1162 728.802C1162.1 734.602 1162 734.602 1167.7 734.602C1171.7 734.602 1175.8 734.802 1179.8 734.502C1182.9 734.302 1182.4 736.202 1182.3 738.002C1182.2 739.702 1183.4 742.102 1179.9 742.002C1175 741.802 1170 742.102 1165.1 741.902C1162.7 741.802 1161.8 742.602 1162.1 745.002C1162.2 746.002 1162.2 747.102 1162.1 748.102C1161.8 750.402 1162.8 750.902 1165 750.902C1173.1 750.802 1181.1 751.002 1189.2 750.802C1192.3 750.702 1192.5 752.002 1192.4 754.502C1192.3 756.802 1192.7 758.702 1189.2 758.602C1178.5 758.402 1167.9 758.402 1157.2 758.602C1154.7 758.602 1154.2 757.802 1154.2 755.502C1154.2 749.602 1154.1 743.702 1154.1 737.902Z" fill="#0A0A0A"/>
<path d="M1268.9 738.102C1268.9 732.402 1269 726.602 1268.9 720.902C1268.8 718.702 1269.2 717.702 1271.8 717.802C1282.6 718.002 1293.4 718.002 1304.2 717.802C1307.3 717.702 1307.2 719.302 1307.1 721.302C1307 723.202 1308 725.502 1304.3 725.402C1296.4 725.202 1288.4 725.502 1280.5 725.302C1277.6 725.202 1276.4 726.002 1276.9 729.002C1277.1 730.002 1277 731.102 1276.9 732.102C1276.7 734.202 1277.6 734.802 1279.6 734.702C1284.2 734.602 1288.7 734.802 1293.3 734.602C1296 734.502 1297.5 734.702 1297.4 738.202C1297.3 741.302 1296.5 742.202 1293.5 742.002C1289.1 741.702 1284.7 742.102 1280.2 741.902C1277.7 741.802 1276.6 742.502 1276.9 745.102C1277 746.002 1277 746.902 1276.9 747.802C1276.5 750.202 1277.5 750.902 1279.9 750.902C1288 750.702 1296 751.002 1304.1 750.802C1307.4 750.702 1307.2 752.402 1307.2 754.602C1307.1 756.702 1307.6 758.602 1304.2 758.502C1293.4 758.302 1282.6 758.402 1271.8 758.502C1269.6 758.502 1268.9 757.802 1269 755.602C1269 749.802 1268.9 744.002 1268.9 738.102Z" fill="#0A0A0A"/>
<path d="M959.5 744.102C963.7 748.902 967.7 753.402 972 758.202C966 759.202 961.2 759.002 957.9 753.702C956.5 751.402 954.4 749.502 952.4 747.602C951 746.202 950.2 744.202 947.6 744.002C939.3 743.402 939.3 743.302 939.3 751.602C939.3 752.202 939.3 752.902 939.3 753.502C939.3 758.602 938 759.502 932.8 758.602C931.2 758.302 931.4 757.402 931.4 756.402C931.4 744.302 931.4 732.202 931.3 720.102C931.3 718.002 932.2 717.902 933.9 717.902C941.8 718.002 949.8 717.802 957.7 718.002C964.3 718.102 969.5 722.402 970.5 728.402C971.7 735.502 968.6 740.802 961.6 743.302C961.2 743.402 960.6 743.702 959.5 744.102ZM949.1 736.802C949.1 736.702 949.1 736.702 949.1 736.802C952 736.702 954.8 736.902 957.7 736.702C961.1 736.402 963.3 733.902 963.1 730.702C962.9 727.302 961 725.402 957.6 725.302C952.3 725.102 946.9 725.302 941.6 725.202C940.2 725.202 939.6 725.602 939.4 727.202C938.3 736.602 938.5 736.902 947.9 736.902C948.3 736.802 948.7 736.802 949.1 736.802Z" fill="#050505"/>
<path d="M1409.2 744.102C1413.5 748.902 1417.4 753.302 1422.1 758.502C1416.7 758.302 1412.1 760.002 1408.7 754.802C1406.5 751.502 1403.4 748.802 1400.7 745.702C1399.7 744.602 1398.6 744.002 1397 743.902C1389.1 743.602 1389.1 743.502 1389.1 751.502C1389.1 752.102 1389.1 752.802 1389.1 753.402C1389.1 758.402 1387.6 759.402 1382.6 758.402C1381 758.102 1381.2 757.102 1381.2 756.102C1381.2 744.002 1381.2 731.902 1381.1 719.802C1381.1 717.702 1382.1 717.602 1383.7 717.602C1391.6 717.702 1399.6 717.502 1407.5 717.702C1414.1 717.802 1419.3 722.202 1420.3 728.102C1421.5 735.002 1418.4 740.402 1411.8 742.902C1411.2 743.402 1410.4 743.602 1409.2 744.102ZM1399 736.802C1401.3 736.802 1403.7 736.802 1406 736.802C1406.1 736.802 1406.3 736.802 1406.4 736.802C1410.4 736.602 1412.8 734.402 1412.8 731.002C1412.8 727.502 1410.5 725.302 1406.4 725.302C1401.6 725.202 1396.8 725.402 1392 725.202C1389.7 725.102 1389.2 726.002 1389.2 728.102C1389 736.802 1389 736.802 1397.8 736.802C1398.2 736.802 1398.6 736.802 1399 736.802Z" fill="#050505"/>
<path d="M1126.4 744.201C1130.6 748.901 1134.6 753.401 1139 758.201C1133.1 759.201 1128.2 759.101 1124.9 753.801C1123.8 752.001 1121.7 750.701 1120.5 748.801C1117.8 744.701 1114.3 743.601 1109.6 744.001C1106.7 744.201 1106.1 745.101 1106.3 747.701C1106.5 750.501 1106.3 753.401 1106.4 756.301C1106.5 759.801 1103.9 758.501 1102.3 758.601C1100.8 758.701 1098.5 759.602 1098.6 756.402C1098.7 744.302 1098.7 732.201 1098.6 720.101C1098.6 717.801 1099.8 718.001 1101.3 718.001C1109.1 718.001 1116.9 717.901 1124.7 718.001C1131.5 718.101 1136.6 722.401 1137.7 728.701C1138.9 735.201 1135.5 740.801 1128.8 743.301C1128.1 743.501 1127.4 743.801 1126.4 744.201ZM1116.6 725.201C1113.9 725.201 1111.1 725.301 1108.4 725.101C1106.5 725.001 1106.1 726.101 1106.4 727.501C1107.1 730.501 1104.3 735.502 1107.9 736.402C1113.3 737.701 1119.3 736.901 1125 736.501C1128.2 736.301 1130.1 734.001 1129.9 730.501C1129.7 727.101 1127.7 725.301 1124.4 725.101C1121.8 725.101 1119.2 725.201 1116.6 725.201Z" fill="#050505"/>
<path d="M828.1 732.802C828.1 740.802 827.9 747.802 828.2 754.802C828.3 758.002 827.3 758.802 824.3 758.602C821.7 758.502 820.1 758.502 820.2 755.002C820.4 742.502 820.3 730.102 820.3 716.602C831.4 725.802 841.7 734.502 852.1 743.202C853.5 742.302 852.9 741.002 852.9 740.002C853 733.502 853 727.002 852.9 720.502C852.8 716.702 855.6 718.302 857.3 718.102C859 717.902 860.9 717.402 860.8 720.502C860.7 733.202 860.7 746.002 860.7 759.902C849.7 750.702 839.3 742.102 828.1 732.802Z" fill="#0A0A0A"/>
<path d="M1540.6 738.102C1540.6 732.402 1540.7 726.702 1540.6 720.902C1540.6 718.702 1540.8 717.702 1543.5 717.802C1549.5 718.002 1555.5 717.802 1561.4 717.902C1571.8 718.102 1580.6 726.502 1581.2 736.702C1581.9 747.102 1574.2 756.902 1563.6 758.002C1556.7 758.702 1549.6 758.302 1542.6 758.402C1540.6 758.502 1540.6 757.402 1540.6 756.002C1540.6 750.102 1540.6 744.102 1540.6 738.102ZM1548.5 738.802C1548.9 742.102 1546.7 747.702 1549.3 750.102C1551.6 752.202 1557.2 750.902 1561.3 750.702C1568 750.302 1573.2 744.702 1573.2 738.102C1573.3 731.702 1568.4 726.102 1561.8 725.502C1558.1 725.202 1554.3 725.402 1550.5 725.302C1548.7 725.202 1548.4 726.202 1548.4 727.702C1548.6 731.202 1548.5 734.502 1548.5 738.802Z" fill="#050505"/>
<path d="M1042.8 738.202C1042.8 732.502 1043 726.802 1042.7 721.102C1042.6 718.402 1043.5 717.902 1046 717.902C1053.9 718.002 1061.8 717.902 1069.8 718.002C1077.8 718.102 1083.2 723.502 1083.2 731.102C1083.2 738.602 1077.6 744.002 1069.7 744.202C1064.4 744.302 1059 744.302 1053.7 744.202C1051.3 744.102 1050.5 744.902 1050.6 747.302C1050.8 749.502 1050.6 751.702 1050.6 753.902C1050.6 758.402 1048.3 760.102 1043.9 758.702C1042.2 758.202 1042.7 756.902 1042.7 755.802C1042.7 749.902 1042.8 744.002 1042.8 738.202ZM1061.3 725.302C1058.6 725.302 1055.8 725.202 1053.1 725.302C1052.3 725.302 1050.9 725.002 1050.9 726.202C1050.7 729.402 1050.8 732.702 1050.9 735.902C1050.9 736.702 1051.7 736.802 1052.4 736.802C1058.4 736.802 1064.4 737.002 1070.3 736.602C1073.4 736.402 1075.5 734.302 1075.4 730.802C1075.3 727.402 1073.1 725.602 1069.9 725.402C1067 725.102 1064.1 725.302 1061.3 725.302Z" fill="#0A0A0A"/>
<path d="M1640.9 758.901C1633.9 759.001 1627.9 757.801 1622.8 753.601C1621.8 752.701 1619.1 751.401 1621.1 749.901C1622.8 748.601 1624.6 745.501 1627.6 747.701C1633.3 751.901 1639.6 752.001 1646.2 750.901C1647 750.801 1647.7 750.501 1648.4 750.101C1650 749.401 1651.5 748.501 1651.4 746.501C1651.3 744.301 1649.6 743.301 1647.8 743.001C1643.3 742.201 1638.8 741.601 1634.4 740.901C1632.5 740.601 1630.5 740.301 1628.7 739.701C1624.9 738.401 1622 736.101 1621.4 731.901C1620.8 727.601 1622.1 723.901 1625.6 721.201C1631.9 716.401 1646.8 715.901 1653.5 720.301C1654 720.701 1654.7 721.001 1655 721.501C1656 722.901 1658.6 723.901 1657 726.101C1655.3 728.401 1651.4 728.801 1649.6 727.101C1645.9 723.801 1634.7 723.501 1630.7 726.601C1628.1 728.601 1628.3 731.301 1631.3 732.701C1634 734.001 1637 734.301 1640 734.501C1644.1 734.801 1648.3 735.201 1652.2 736.701C1655.9 738.101 1658.4 740.501 1658.9 744.501C1659.4 748.601 1658.3 752.201 1654.8 754.801C1650.6 758.101 1645.6 758.901 1640.9 758.901Z" fill="#0A0A0A"/>
<path d="M1434.5 750.302C1436 749.302 1437.6 748.402 1439 747.402C1440.2 746.602 1441 746.802 1442.1 747.602C1447.7 751.902 1454.2 752.002 1460.7 750.702C1463 750.202 1465.9 749.502 1465.7 746.202C1465.5 743.202 1462.8 742.802 1460.6 742.302C1455.4 741.402 1450 741.302 1444.8 739.902C1439.6 738.602 1436.5 735.702 1436 731.702C1435.3 726.102 1437.2 721.902 1442.5 719.602C1450.6 716.102 1458.8 715.802 1467.1 719.402C1467.8 719.702 1468.5 720.102 1469.1 720.602C1470.5 721.902 1472.8 723.302 1472.1 725.202C1471.3 727.202 1468.5 727.502 1466.6 728.602C1465.9 729.002 1465.6 728.102 1465.1 727.702C1460.7 723.802 1451.2 722.902 1446.1 725.902C1444.7 726.702 1443.6 727.802 1443.8 729.602C1444 731.302 1445.1 732.002 1446.5 732.602C1451.1 734.402 1456 734.102 1460.7 734.802C1463 735.202 1465.3 735.702 1467.5 736.602C1474.5 739.502 1476.2 748.402 1470.8 753.602C1462.6 761.702 1439.8 760.402 1434.5 750.302Z" fill="#0A0A0A"/>
<path d="M1209.6 716.602C1220.7 725.802 1231.1 734.502 1241.6 743.302C1242.9 742.102 1242.3 740.802 1242.3 739.602C1242.4 733.202 1242.5 726.802 1242.3 720.502C1242.2 717.802 1243.8 717.702 1245.5 718.102C1247.1 718.502 1250.2 716.302 1250.2 719.902C1250.3 733.002 1250.3 746.102 1250.3 759.902C1239.3 750.702 1228.9 742.102 1217.6 732.802C1217.6 737.202 1217.6 740.702 1217.6 744.302C1217.6 747.402 1217.6 750.502 1217.6 753.702C1217.6 758.702 1216 759.802 1211.1 758.702C1209.9 758.402 1209.7 757.802 1209.7 756.802C1209.6 743.702 1209.6 730.602 1209.6 716.602Z" fill="#050505"/>
<path d="M1788.9 737.902C1788.9 732.102 1789 726.202 1788.9 720.402C1788.9 718.602 1789.3 717.902 1791.2 717.902C1799.8 718.002 1808.4 717.802 1816.9 718.002C1823.9 718.202 1829.4 724.102 1829.4 730.902C1829.4 737.702 1823.9 743.602 1816.9 743.902C1811.2 744.102 1805.5 744.102 1799.7 744.002C1797.3 743.902 1796.4 744.602 1796.6 747.002C1796.8 749.302 1796.6 751.702 1796.6 754.002C1796.6 758.002 1793.2 760.102 1789.6 758.402C1788.3 757.802 1788.8 756.602 1788.8 755.702C1788.9 749.802 1788.9 743.902 1788.9 737.902ZM1806.9 736.802C1806.9 736.702 1806.9 736.702 1806.9 736.802C1809.9 736.802 1812.9 736.902 1815.9 736.702C1819.3 736.402 1821.6 733.902 1821.5 730.902C1821.4 727.802 1819.1 725.502 1815.6 725.402C1810 725.302 1804.4 725.402 1798.9 725.302C1797.4 725.302 1797 725.802 1796.8 727.302C1795.7 736.802 1795.7 736.802 1805 736.802C1805.6 736.802 1806.3 736.802 1806.9 736.802Z" fill="#050505"/>
<path d="M1323.4 729.802C1323.4 726.902 1323.6 724.102 1323.3 721.202C1322.9 717.902 1324.4 717.402 1327.2 717.402C1330 717.402 1331.4 717.802 1331.2 721.202C1330.9 726.602 1331 732.102 1331.1 737.602C1331.2 745.002 1336.5 750.602 1343.2 750.802C1349.7 750.902 1355.2 745.602 1355.6 738.302C1355.9 732.302 1355.9 726.302 1355.7 720.402C1355.6 716.802 1357.8 717.602 1359.7 717.602C1361.7 717.602 1363.9 717.002 1363.7 720.502C1363.4 726.302 1363.7 732.202 1363.6 738.002C1363.3 749.502 1354.4 758.502 1343.3 758.502C1332.1 758.502 1323.3 749.402 1323.2 737.602C1323.4 735.002 1323.4 732.402 1323.4 729.802Z" fill="#0A0A0A"/>
<path d="M1731 730.201C1731 727.101 1731.3 723.901 1730.9 720.801C1730.5 717.401 1732.4 717.401 1734.8 717.401C1737.2 717.401 1739 717.301 1738.8 720.701C1738.5 726.301 1738.6 731.901 1738.7 737.501C1738.8 744.901 1744 750.501 1750.8 750.701C1757.3 750.901 1762.9 745.501 1763.3 738.301C1763.6 732.301 1763.6 726.301 1763.4 720.401C1763.2 716.801 1765.5 717.601 1767.4 717.501C1769.4 717.501 1771.6 716.901 1771.4 720.401C1771.1 726.501 1771.5 732.601 1771.2 738.701C1770.7 749.901 1761.5 758.601 1750.6 758.401C1739.6 758.101 1731 749.301 1730.8 737.901C1731 735.401 1731.1 732.801 1731 730.201Z" fill="#0A0A0A"/>
<path d="M896.8 717.902C902.5 717.902 908.2 718.102 913.9 717.802C917.1 717.602 916.8 719.402 916.7 721.402C916.6 723.302 917.6 725.702 913.9 725.402C910.5 725.102 907.1 725.502 903.8 725.302C901.1 725.102 900.2 725.902 900.3 728.702C900.5 737.502 900.2 746.402 900.5 755.202C900.6 758.702 898.9 758.502 896.5 758.502C894 758.502 892.4 758.502 892.5 755.102C892.8 746.702 892.4 738.202 892.7 729.802C892.8 726.402 892.1 724.802 888.3 725.302C885.4 725.602 882.3 725.102 879.3 725.402C876.1 725.702 876.1 724.002 876.1 721.702C876.2 719.602 875.7 717.702 879.1 717.802C885.1 718.102 891 717.902 896.8 717.902Z" fill="#050505"/>
<path d="M1862 717.902C1867.7 717.902 1873.4 718.102 1879.1 717.802C1882.3 717.602 1882 719.402 1881.9 721.402C1881.8 723.302 1882.8 725.702 1879.1 725.402C1875.7 725.102 1872.3 725.502 1869 725.302C1866.3 725.102 1865.4 725.902 1865.5 728.702C1865.7 737.502 1865.4 746.402 1865.7 755.202C1865.8 758.702 1864.1 758.502 1861.7 758.502C1859.2 758.502 1857.6 758.502 1857.7 755.102C1858 746.502 1857.6 737.902 1857.9 729.402C1858 726.302 1857.4 724.902 1853.9 725.302C1850.8 725.602 1847.6 725.102 1844.6 725.402C1841.4 725.702 1841.4 724.002 1841.5 721.702C1841.6 719.602 1841.2 717.702 1844.5 717.802C1850.2 718.102 1856.1 717.902 1862 717.902Z" fill="#050505"/>
<path d="M1604.1 738.001C1604.1 744.001 1604 749.901 1604.2 755.901C1604.3 759.701 1601.7 758.401 1600 758.501C1598.2 758.601 1596.1 759.301 1596.2 755.901C1596.4 744.101 1596.4 732.301 1596.2 720.501C1596.2 716.701 1598.8 718.101 1600.5 718.001C1602.2 717.901 1604.5 717.001 1604.3 720.501C1603.9 726.301 1604.1 732.201 1604.1 738.001Z" fill="#050505"/>
<path d="M1494.5 724.902C1494.5 726.102 1494.4 727.202 1494.5 728.402C1494.9 731.802 1493.2 732.502 1490.2 732.302C1488.2 732.202 1487.5 731.602 1487.5 729.602C1487.5 727.402 1487.4 725.202 1487.2 723.002C1486.8 718.102 1488.8 716.602 1493.8 717.902C1495.1 718.202 1495 719.002 1495 719.902C1494.9 721.602 1494.8 723.302 1494.6 724.902C1494.6 724.902 1494.6 724.902 1494.5 724.902Z" fill="#0A0A0A"/>
</svg>
