<svg width="1920" height="1080" viewBox="0 0 1920 1080" fill="none" xmlns="http://www.w3.org/2000/svg">
<path d="M3.09961 607.198L27.2996 603.398V379.498L0.0996094 375.998L1.59961 351.898H170.7L166.6 419.698L132.9 418.798L130.9 376.298H78.4996V476.998H101.3L106.6 453.798L130.3 454.398V523.898H106.9L101.3 500.098H78.4996V606.898H131.1L136.1 560.598L171.6 561.798L174.2 632.498H1.89961L3.09961 607.198Z" fill="#231F20"/>
<path d="M189.699 632.498L190.599 611.698L209.599 607.898V466.598L187.399 464.498V443.398L242.999 435.498L247.199 447.498V455.398C260.699 441.298 276.799 433.098 297.399 433.098C327.599 433.098 349.899 451.298 349.899 487.698V607.798L370.099 611.598L368.899 632.398H303.299V497.898C303.299 478.498 296.199 467.698 278.899 467.698C272.999 467.698 268.799 468.898 264.199 470.298C261.299 472.598 258.599 476.198 256.299 479.398V607.798L276.199 611.598L274.699 632.398H189.699V632.498Z" fill="#231F20"/>
<path d="M1250.4 632.498L1251.3 611.698L1270.3 607.898V466.598L1248.1 464.498V443.398L1303.7 435.498L1307.9 447.498V455.398C1321.4 441.298 1337.5 433.098 1358.1 433.098C1388.3 433.098 1410.6 451.298 1410.6 487.698V607.798L1430.8 611.598L1429.6 632.398H1364V497.898C1364 478.498 1356.9 467.698 1339.6 467.698C1333.7 467.698 1329.6 468.898 1324.9 470.298C1322 472.598 1319.3 476.198 1317 479.398V607.798L1336.9 611.598L1335.4 632.398H1250.4V632.498Z" fill="#231F20"/>
<path d="M474.799 628.598C467.199 631.798 453.399 635.298 435.499 635.298C411.999 635.298 390.199 624.698 390.199 590.398V466.498L367.899 462.998L368.799 438.398L393.999 437.198L404.899 399.598L436.999 398.098V438.298H471.899L469.499 462.898L437.599 466.398V589.998C437.599 600.298 443.199 606.998 453.699 606.998H472.699L474.799 628.598Z" fill="#231F20"/>
<path d="M1788.8 632.499L1789.7 612.299L1807.6 608.199V466.699L1786.5 464.599V443.499L1843.9 435.599L1847.7 449.399V453.799C1862.7 442.699 1883.2 435.299 1907.6 435.299L1916.1 442.599L1910.2 495.699L1878.5 494.499L1875.3 465.999C1868 467.199 1860.9 469.199 1855.1 473.299V607.999L1875.1 612.099L1873.6 632.299L1788.8 632.499Z" fill="#231F20"/>
<path d="M961.9 632.499L962.8 612.299L980.7 608.199V466.699L959.6 464.599V443.499L1017 435.599L1020.8 449.399V453.799C1035.8 442.699 1056.3 435.299 1080.7 435.299L1089.2 442.599L1083.3 495.699L1051.6 494.499L1048.4 465.999C1041.1 467.199 1034 469.199 1028.2 473.299V607.999L1048.2 612.099L1046.7 632.299L961.9 632.499Z" fill="#231F20"/>
<path d="M488.8 632.499L489.7 612.299L507.6 608.199V466.699L486.5 464.599V443.499L543.9 435.599L547.7 449.399V453.799C562.7 442.699 583.2 435.299 607.5 435.299L616 442.599L610.1 495.699L578.4 494.499L575.2 465.999C567.9 467.199 560.8 469.199 555 473.299V607.999L575 612.099L573.5 632.299L488.8 632.499Z" fill="#231F20"/>
<path d="M670.799 546.398C670.799 580.098 685.399 606.198 714.599 606.198C729.599 606.198 741.599 602.998 755.699 596.498L763.599 614.998C749.199 626.398 728.299 635.198 701.899 635.198C650.799 635.198 621.199 590.898 621.199 533.998C621.199 485.598 642.499 432.598 701.299 432.598C752.399 432.598 771.799 479.998 771.799 532.798L766.799 545.398L670.799 546.398ZM669.899 523.798L728.899 521.198C727.699 497.698 722.899 460.298 699.799 460.298C694.299 460.298 690.399 461.198 683.299 464.998C673.799 481.098 669.799 510.298 669.899 523.798Z" fill="#231F20"/>
<path d="M1486.6 546.398C1486.6 580.098 1501.2 606.198 1530.4 606.198C1545.4 606.198 1557.4 602.998 1571.5 596.498L1579.4 614.998C1565 626.398 1544.1 635.198 1517.7 635.198C1466.6 635.198 1437 590.898 1437 533.998C1437 485.598 1458.3 432.598 1517.1 432.598C1568.2 432.598 1587.6 479.998 1587.6 532.798L1582.6 545.398L1486.6 546.398ZM1485.7 523.798L1544.7 521.198C1543.5 497.698 1538.7 460.298 1515.6 460.298C1510.1 460.298 1506.2 461.198 1499.1 464.998C1489.6 481.098 1485.6 510.298 1485.7 523.798Z" fill="#231F20"/>
<path d="M1143.9 546.398C1143.9 580.098 1158.5 606.198 1187.7 606.198C1202.7 606.198 1214.7 602.998 1228.8 596.498L1236.7 614.998C1222.3 626.398 1201.4 635.198 1175 635.198C1123.9 635.198 1094.3 590.898 1094.3 533.998C1094.3 485.598 1115.6 432.598 1174.4 432.598C1225.5 432.598 1244.9 479.998 1244.9 532.798L1239.9 545.398L1143.9 546.398ZM1143 523.798L1202 521.198C1200.8 497.698 1196 460.298 1172.9 460.298C1167.4 460.298 1163.5 461.198 1156.4 464.998C1146.9 481.098 1142.9 510.298 1143 523.798Z" fill="#231F20"/>
<path d="M1720.4 632.499L1715.4 615.799C1702.5 628.099 1689.9 635.499 1670.2 635.499C1640 635.499 1612.9 620.299 1612.9 578.599V461.599L1590.7 459.499V440.999L1654.5 433.699L1659.5 450.399V572.599C1659.5 593.999 1668.1 605.199 1685.5 605.199C1690.4 605.199 1696.7 604.599 1702.2 602.299C1705.4 599.099 1708.4 595.299 1711 591.399V461.599L1688.1 459.499V440.999L1752.6 433.699L1757.6 450.399V607.799L1777.5 611.599L1775.2 632.399H1720.4V632.499Z" fill="#231F20"/>
<path d="M867.4 607.198C857.1 607.198 849.2 605.398 842.8 601.898V477.898C845.4 473.798 848.7 469.998 851.9 466.498C857.8 464.398 863.3 463.598 869.5 463.598C895.9 463.598 900.2 490.298 900.2 538.198C900.2 584.298 893.3 596.898 891.5 602.098C884.4 605.498 876.8 607.198 867.4 607.198ZM946.1 529.398C946.1 470.198 928.5 432.898 884.8 432.898C855.8 432.898 842 449.698 836.3 456.698V450.198L831.3 433.498L774 441.398V461.598L796.2 464.498V703.798L777.4 707.598L776.5 727.598H861.2L862.7 707.598L842.8 703.798V627.898C850.7 632.298 862.1 635.198 874.4 635.198C945.5 635.398 946.1 562.698 946.1 529.398Z" fill="#231F20"/>
<path d="M1904 604.998C1913.7 604.998 1919.8 610.698 1919.8 618.798C1919.8 626.898 1913.5 632.598 1904 632.598C1894.7 632.598 1888.2 626.998 1888.2 618.798C1888.2 610.698 1894.6 604.998 1904 604.998ZM1904 628.198C1910.6 628.198 1914.9 624.298 1914.9 618.698C1914.9 613.098 1910.6 609.198 1904 609.198C1897.5 609.198 1893.2 612.998 1893.2 618.698C1893.2 624.298 1897.6 628.198 1904 628.198ZM1897.2 624.998L1897.3 623.098L1898.9 622.698V614.198L1897 613.998L1897.1 612.098H1904.6C1907.8 612.098 1910.9 613.098 1910.8 615.998C1910.7 617.998 1909.6 619.098 1908 619.698C1908.8 620.998 1909.9 622.298 1910.8 622.798L1911.9 622.998L1911.7 624.898H1907.9C1906.6 623.798 1905.4 622.398 1904.3 620.198H1903.1V622.698L1904.7 623.098L1904.5 624.998H1897.2ZM1903.1 614.498V618.198H1904.5C1906.4 618.198 1906.8 617.498 1906.8 616.398C1906.8 614.798 1905.6 614.498 1904 614.498H1903.1Z" fill="#231F20"/>
<path d="M1454.2 676C1454.2 706.1 1454.1 736.1 1454.3 766.2C1454.3 771.2 1454.9 776.2 1461.9 776.5C1466.8 776.7 1467.3 780.3 1466.8 784.1C1466.2 788.5 1462.6 787.9 1459.6 787.9C1450.7 787.9 1441.9 788 1433 787.9C1430.1 787.9 1426.4 788.7 1425.7 784.3C1425.1 780.5 1425.6 777 1430.4 776.5C1438.7 775.6 1438.4 769 1438.4 763.5C1438.6 734.3 1438.6 705.1 1438.4 675.8C1438.4 669.7 1438.2 663 1429.5 661.9C1425.3 661.4 1425.3 657.9 1425.7 654.8C1426.1 651.2 1429.1 651.2 1431.7 651.2C1445 651.1 1458.3 651.2 1471.5 651.2C1478.7 651.2 1479.3 657.5 1481.2 662.1C1493.5 691.9 1505.6 721.9 1517.8 751.7C1519.1 754.8 1519.2 758.6 1524.2 761.5C1524.2 730.7 1524.3 701 1524.1 671.2C1524.1 666.4 1522 662.6 1516.5 662.1C1512.6 661.7 1511.1 659.3 1511.5 655.7C1511.9 651.7 1514.9 651.1 1518.2 651.1C1527.9 651.2 1537.7 651.1 1547.4 651.1C1550 651.1 1553 651.1 1553.3 654.8C1553.6 658 1553.6 661.4 1549.4 661.9C1539.7 662.9 1540.4 670.2 1540.4 676.8C1540.3 709.6 1540 742.3 1540.5 775.1C1540.7 784.6 1538.7 788.3 1528.3 788.1C1504.3 787.6 1504.2 788.2 1495.1 766.4C1482.4 736.1 1469.8 705.6 1457.1 675.3C1456.2 675.6 1455.2 675.8 1454.2 676Z" fill="#0A0A0A"/>
<path d="M1601 787.9C1590.8 787.9 1580.6 788 1570.5 787.9C1567.2 787.9 1562.8 789.1 1562.2 783.9C1561.7 779.7 1565 779.2 1568.3 778.8C1574.8 777.8 1575.1 772.6 1575.1 767.7C1575.2 735.4 1575.2 703.1 1575.1 670.8C1575.1 665 1573.6 660.3 1566.5 659.7C1563.5 659.4 1561.7 657.5 1562.3 654.3C1562.9 651.5 1565.4 651.4 1567.5 651.5C1593.1 652.4 1618.8 649.2 1644.3 653.6C1658.8 656.1 1669.8 663.8 1676.5 676.7C1691 704.5 1691.5 732.9 1677 760.6C1666.8 780.1 1648.9 787.8 1627.4 788C1618.6 788.1 1609.7 788 1600.9 788C1601 787.9 1601 787.9 1601 787.9ZM1603.6 718C1603.6 733.5 1603.6 749 1603.6 764.5C1603.6 764.9 1603.6 765.4 1603.6 765.8C1603.4 771.7 1604.7 775.8 1612 776.5C1630.9 778.5 1646.2 769.5 1652.3 751.4C1658.3 733.4 1658.7 714.9 1655.3 696.3C1650.5 670.4 1639.5 661.9 1613.4 662C1606.1 662 1603.2 663.7 1603.5 671.5C1604 687 1603.6 702.5 1603.6 718Z" fill="#0A0A0A"/>
<path d="M1855.8 787.899C1851.8 787.899 1847.8 788.099 1843.9 787.799C1840.1 787.499 1835.2 789.599 1833 785.299C1830.6 780.399 1835.2 778.599 1838.5 776.399C1841.7 774.199 1840.5 770.899 1840 767.899C1839.5 764.899 1838.6 761.899 1837.9 758.899C1832.2 734.099 1832.1 734.799 1806.9 733.799C1795.8 733.399 1790.8 736.799 1789.4 747.599C1788.6 754.099 1786.1 760.399 1784.5 766.799C1783.4 771.199 1782.7 775.699 1788.2 777.999C1791.6 779.399 1793.2 781.799 1791.9 785.199C1790.7 788.199 1787.6 787.799 1785 787.799C1781.5 787.799 1777.9 788.199 1774.4 787.699C1768.5 786.899 1760.7 791.199 1757.1 784.999C1753.3 778.399 1763.5 777.999 1765.1 773.199C1768 764.399 1771 755.699 1773.7 746.799C1781.9 718.799 1790.8 690.999 1797.8 662.799C1801.3 648.599 1810.8 651.499 1820.2 650.999C1829.5 650.399 1835.6 651.899 1838.5 662.899C1846.5 694.099 1855.6 724.999 1864.9 755.899C1867.4 764.399 1867.4 774.299 1877.3 779.699C1881.2 781.799 1880.2 787.199 1874.3 787.699C1868.2 788.299 1862 787.899 1855.8 787.899ZM1812.2 664.999C1808.7 677.099 1805.8 686.699 1803.2 696.499C1795.4 725.699 1795.4 725.699 1827.8 722.099C1823.8 706.199 1819.8 690.399 1815.8 674.699C1815.1 672.199 1814 669.899 1812.2 664.999Z" fill="#0A0A0A"/>
<path d="M1388.7 787.899C1382.1 787.899 1375.4 787.899 1368.8 787.899C1365.7 787.899 1362.5 787.999 1362.2 783.399C1362 779.899 1363 776.799 1366.7 776.599C1375 776.099 1375.2 770.199 1375.2 764.299C1375.3 734.699 1375.3 705.099 1375.2 675.499C1375.2 669.199 1375 662.799 1366.2 661.999C1362.1 661.599 1361.9 658.099 1362.3 654.899C1362.7 651.399 1365.6 651.199 1368.3 651.199C1382 651.199 1395.7 651.199 1409.4 651.199C1412.6 651.199 1415.9 650.999 1416.2 655.399C1416.4 658.599 1416 661.699 1411.8 662.199C1404.5 662.899 1404 668.399 1404 673.799C1403.9 704.299 1403.9 734.799 1404 765.199C1404 770.599 1404.1 776.099 1411.8 776.499C1416 776.699 1416.3 780.099 1416.2 783.299C1416.1 787.499 1413.2 787.999 1409.8 787.999C1402.9 787.899 1395.8 787.899 1388.7 787.899Z" fill="#0A0A0A"/>
<path d="M1724.3 651.298C1730.9 651.298 1737.6 651.298 1744.2 651.298C1747.4 651.298 1750.7 651.098 1750.9 655.598C1751.1 658.898 1750.7 661.898 1746.4 662.298C1739 662.998 1738.7 668.598 1738.7 673.998C1738.6 704.598 1738.6 735.098 1738.7 765.698C1738.7 771.298 1739.3 776.398 1746.9 776.698C1751.1 776.898 1751.1 780.598 1750.9 783.698C1750.7 786.998 1748.6 787.998 1745.5 787.998C1731.3 787.898 1717.2 787.998 1703 787.898C1700.4 787.898 1697.5 787.798 1697.2 784.198C1696.9 780.998 1696.9 777.298 1700.9 776.898C1711.7 775.798 1710 767.698 1710 760.998C1710.2 733.998 1710.2 706.998 1710 679.998C1710 672.298 1711.9 663.298 1700 661.798C1696.7 661.398 1697 657.798 1697.2 655.198C1697.5 651.598 1700.4 651.398 1703.1 651.398C1710.1 651.198 1717.2 651.298 1724.3 651.298Z" fill="#0A0A0A"/>
</svg>
