<svg width="1920" height="1080" viewBox="0 0 1920 1080" fill="none" xmlns="http://www.w3.org/2000/svg">
<path d="M296.199 442.301C296.199 487.201 295.899 532.101 296.399 577.001C296.499 586.301 294.799 590.001 284.399 589.901C194.999 589.501 105.699 589.501 16.2994 589.801C7.29941 589.801 5.49941 586.801 5.49941 578.401C5.79941 487.301 5.79941 396.201 5.39941 305.101C5.39941 295.301 8.69941 293.801 17.3994 293.801C106.299 294.101 195.199 294.201 284.099 293.701C294.199 293.701 296.399 296.501 296.299 306.201C295.899 351.701 296.199 397.001 296.199 442.301ZM36.1994 513.701C71.7994 513.701 107.499 513.801 143.099 513.601C146.999 513.601 153.199 515.901 153.199 508.801C153.199 498.901 154.799 488.801 151.299 478.701C148.699 489.801 141.799 496.901 132.199 501.501C115.999 509.201 98.9994 508.701 81.7994 506.301C77.2994 505.701 74.4994 503.201 74.4994 498.501C74.3994 481.801 74.3994 465.101 74.3994 448.401C74.3994 446.201 74.3994 443.101 76.7994 443.001C88.9994 442.601 101.599 440.101 113.399 444.401C121.599 447.401 121.099 456.301 121.499 463.801C121.599 465.601 122.999 465.601 124.899 465.701C124.899 447.601 124.899 429.501 124.899 411.501C115.899 435.001 115.899 435.001 95.6994 435.001C74.3994 435.001 74.3994 435.001 74.3994 413.701C74.3994 373.901 74.3994 373.901 114.699 376.301C140.899 377.901 143.799 380.501 148.899 406.501C148.999 407.001 149.999 407.301 152.099 408.801C154.099 387.801 164.599 376.401 185.899 375.901C194.099 375.701 196.499 377.701 196.399 385.901C195.999 422.801 195.999 459.801 196.399 496.801C196.499 504.701 194.399 509.401 185.899 510.001C182.599 510.201 179.399 511.401 172.899 512.801C196.899 512.801 217.599 512.801 238.499 512.801C231.799 507.701 218.999 513.801 218.999 499.401C219.099 460.701 218.999 422.001 218.999 383.301C218.999 380.401 218.599 377.401 222.699 376.001C236.199 371.301 258.299 382.001 262.799 395.901C264.199 400.101 265.199 404.401 266.299 408.601C268.799 399.601 268.099 390.901 268.999 382.401C270.299 371.401 265.599 369.401 255.599 369.501C186.099 369.901 116.599 369.701 47.0994 369.701C43.8994 369.701 40.5994 369.701 37.3994 369.701C53.0994 371.801 52.4994 382.801 52.3994 394.201C52.0994 426.301 51.8994 458.401 52.4994 490.501C52.7994 503.101 51.0994 512.501 36.1994 513.701Z" fill="#EA1C3C"/>
<path d="M570 433.7C609.3 455.1 617.7 490.9 618.8 530.3C619.1 540.4 619.6 550.5 620.3 560.6C620.5 564 620.7 568.2 625.3 568.7C630.2 569.3 632.3 565.4 633.5 561.6C637.2 549.2 637.4 536.4 637.6 523.7C637.7 518.6 636.3 513.1 644.9 513.1C653.6 513.1 652.3 518.6 652.1 523.7C651.8 533.8 651.7 543.9 650.6 554C647.9 578.3 638 589.1 617.4 591.3C590.4 594.2 572.5 584.2 564.7 562.1C559.7 547.8 558.7 532.8 558.1 517.9C557.4 502.1 558 486.2 557.7 470.4C557.3 449.6 548.8 440.8 527.9 440C513 439.4 498 439.9 483 439.6C477.4 439.5 475.3 441.2 475.3 447.1C475.6 484.9 475.7 522.8 475.5 560.6C475.4 569.8 480.8 571.9 488 572.1C501.2 572.6 514.4 572.8 527.6 572.8C533.1 572.8 536.5 573.5 536.6 580.5C536.7 587.6 533.4 588.1 527.8 588.1C471 588 414.3 588 357.5 588.1C352.3 588.1 348.3 588.4 348.2 580.9C348.1 573.3 351.5 572.3 357.8 572.4C370.1 572.5 382.4 571.7 394.7 571.6C406.8 571.5 411.3 566.1 411 553.7C410.3 519.8 410.8 485.9 410.8 452.1C410.8 409.9 410.5 367.6 411 325.4C411.1 314 407.7 308.3 395.8 308C383.1 307.7 370.4 306.5 357.6 305.8C352.8 305.6 348 306.7 348.1 298.9C348.2 292.1 351.1 290.8 356.9 290.9C421.1 291.8 485.4 289 549.6 292.4C575.5 293.8 597.9 304.5 616 323.6C645.4 354.8 638.6 399.5 601.3 420.9C592.1 426.2 581.6 429.2 570 433.7ZM503 423.8C511.8 424.3 522.3 423.4 532.7 421.5C551.4 418.2 563.7 407.8 568.2 388.9C572.1 372.3 571 355.7 567.1 339.2C562.9 321.5 551.3 311.6 533.7 307.8C518.4 304.6 503.1 305.8 487.7 305.4C478.6 305.2 475.5 308.9 475.7 318C476.1 344.8 475.7 371.7 475.7 398.5C475.6 423.8 475.6 423.8 503 423.8Z" fill="#0A0A0A"/>
<path d="M1071.8 412.5C1079.9 418.2 1086.6 423.4 1088.5 432C1091.1 443.4 1089.7 454.1 1079.8 461.8C1071.2 468.6 1061.5 470.5 1051.5 465.2C1040.2 459.1 1033.6 449.6 1034.4 436.3C1035.4 419.7 1043 406.7 1058.1 399.4C1087.6 385.1 1118 383 1148.7 395C1167.8 402.5 1177.4 416.7 1177.1 438C1176.7 472.3 1177.1 506.6 1177.3 540.9C1177.3 547.9 1177.7 555 1178.4 562C1179 568.1 1181.5 573.1 1188.8 573.3C1195.4 573.5 1198 569.1 1199.4 563.6C1201.5 555.5 1202.5 547.2 1202.4 538.8C1202.2 527.4 1202.5 515.9 1202.1 504.5C1201.9 498.7 1204.9 497.8 1209.4 498.4C1212.8 498.8 1218.3 496.4 1218 503.1C1217.2 525.4 1220.9 548 1215.3 570.1C1213.8 576.3 1210.2 581.2 1205 584.9C1186.5 598.1 1149.2 593.2 1135.4 575.2C1131.4 569.9 1129.9 569.7 1125.1 574.4C1106 592.7 1071.9 597.5 1047.8 586.1C1019 572.4 1010.5 536.4 1029.8 508.6C1044.5 487.5 1065.9 479.1 1090.8 477C1125.5 474.1 1127 472.7 1126.3 438.3C1126.1 427.1 1131.6 412.2 1118.4 406.1C1103.4 398.9 1087.5 402.4 1071.8 412.5ZM1125.4 515.9C1125.5 510.2 1124.9 504.4 1125.6 498.8C1127 488.2 1123.2 485.4 1113.5 489C1110.7 490 1107.5 490.2 1104.4 490.4C1088.2 491.4 1079 500.2 1074.7 515.6C1071.4 527.3 1072.1 539.1 1072.7 550.9C1073.2 560.3 1071.7 571.7 1083.2 575.6C1094.3 579.4 1103.7 573.5 1111.6 566.1C1120.4 558 1124.9 547.7 1125.3 535.7C1125.6 529.1 1125.4 522.5 1125.4 515.9Z" fill="#0A0A0A"/>
<path d="M1472.2 429.501C1472.2 471.701 1472.6 514.001 1471.9 556.201C1471.7 568.601 1476.2 572.901 1487.8 572.401C1494.4 572.101 1501 573.001 1507.6 572.801C1514 572.601 1515.9 575.301 1515.9 581.401C1515.9 588.001 1512.1 588.101 1507.3 588.101C1466.8 588.001 1426.4 588.001 1385.9 588.101C1381.2 588.101 1377.2 588.301 1377.3 581.601C1377.4 575.601 1378.9 573.101 1385.5 572.801C1396.8 572.401 1411.3 576.601 1418.4 568.201C1425.7 559.601 1420.7 545.401 1420.8 533.601C1421.1 465.901 1420.9 398.101 1420.9 330.401C1420.9 311.501 1420.4 311.101 1402 310.401C1396.7 310.201 1391.4 309.901 1386.2 310.101C1380.8 310.401 1378.1 308.901 1378.2 302.901C1378.3 297.701 1379.2 295.201 1385.3 294.701C1411.2 292.701 1437 290.401 1462.8 287.301C1472.3 286.201 1472.5 290.601 1472.4 297.701C1472.1 341.601 1472.2 385.601 1472.2 429.501Z" fill="#0A0A0A"/>
<path d="M943.6 487.8C943.6 508.5 943.2 529.2 943.8 549.8C944.1 559.7 944.2 571.2 957.9 573.2C968.6 574.8 975.3 567.1 978.1 552C981.7 532.4 980.2 512.5 980.5 492.8C980.6 486.5 980.5 482.1 989.2 482.2C998.2 482.3 996.5 487.9 996.3 492.8C995.6 515.2 999.2 537.7 994 559.8C989.6 578.8 979 588.3 959.7 590.9C924.9 595.6 901.4 583.6 894.3 556.7C892.3 549.2 891.9 541.1 891.8 533.2C891.5 498 891.3 462.8 891.9 427.6C892 418.3 889.3 415 880.1 416.1C874.9 416.7 869.6 416.3 864.3 416.2C861.1 416.1 856.8 417.4 856.6 411.8C856.4 407.4 855.8 402.9 861.6 401.1C908.2 386.9 922.7 350.8 924.8 306.9C925.2 299.3 928.5 298.7 934.6 298.4C941.6 298.1 943.6 300.7 943.5 307.5C943.1 331.7 944 355.9 943.1 380.1C942.7 391 946.4 393.6 956.3 392.7C964.1 391.9 972.1 392.5 980 392.5C992.1 392.5 998.4 402.6 993.4 413.5C991.6 417.5 988.3 416.1 985.5 416.2C974.5 416.4 963.5 416.7 952.5 416.1C944.7 415.6 943 418.6 943.2 425.8C943.6 446.5 943.4 467.1 943.4 487.8C943.5 487.8 943.6 487.8 943.6 487.8Z" fill="#0A0A0A"/>
<path d="M784.3 490.3C768 490.3 751.7 490.5 735.5 490.2C729.9 490.1 726.5 490.7 727.1 497.9C728.5 515.4 729.2 533.1 735.3 549.8C743.8 573.3 761.2 582.2 785.4 575.5C812.2 568 827.5 549.8 832.6 522.7C833.3 518.8 833.6 514.8 833.9 510.9C834.2 507.1 834.9 503.7 839.9 504.4C844.5 505.1 843.2 508.8 843.3 511.6C845.3 549.6 812.2 583.9 772.6 588.3C719.2 594.2 666.7 546.1 675 475.9C677.2 456.9 682.6 439 693.6 423C715 391.8 749 376.9 782.5 385.3C818.4 394.3 834 421.1 840.1 454.9C846.5 490.2 846.1 490.3 810.7 490.3C801.8 490.3 793.1 490.3 784.3 490.3ZM762.4 478.9C772 478.9 781.7 478.7 791.3 479C796.3 479.1 798.3 477.4 798.2 472.2C798 452 796.7 431.8 789.7 412.7C781.9 391.3 757.6 387.5 742.7 404.9C738.7 409.6 736.3 415.2 734.2 421.1C730.3 432.4 729.4 444.2 728 455.9C725.2 479 725.3 479 747.8 479C752.7 478.9 757.5 478.9 762.4 478.9Z" fill="#0A0A0A"/>
<path d="M1323.3 478.301C1323.3 505.601 1323.6 532.901 1323.1 560.101C1322.9 568.901 1326.4 572.001 1334.5 572.101C1342.4 572.201 1350.3 573.001 1358.2 572.701C1364.8 572.401 1366.2 575.301 1366.3 581.301C1366.4 587.901 1362.8 588.001 1358 588.001C1317.5 587.901 1277 587.901 1236.6 588.001C1231.8 588.001 1228.1 588.001 1228.3 581.301C1228.4 575.401 1229.7 571.901 1236.4 572.701C1236.8 572.801 1237.3 572.701 1237.7 572.701C1271.4 570.801 1271.4 570.801 1271.4 537.201C1271.4 500.201 1270.9 463.301 1271.7 426.301C1271.9 414.101 1267.7 409.401 1255.9 410.001C1249.8 410.301 1243.6 409.501 1237.4 409.501C1232.1 409.501 1228.2 409.201 1228.3 401.901C1228.4 395.801 1231 394.801 1236.1 394.401C1262.4 392.301 1288.7 390.001 1314.9 387.301C1322.5 386.501 1323.6 389.901 1323.5 396.301C1323.2 423.701 1323.3 451.001 1323.3 478.301Z" fill="#0A0A0A"/>
<path d="M1784 543.201C1784 530.401 1783.9 517.701 1784.1 504.901C1784.2 501.801 1782.1 496.601 1787 496.101C1792.6 495.601 1801.2 492.001 1803.7 498.101C1806.8 505.601 1808.7 501.101 1811.6 499.501C1826.9 491.301 1841.8 489.901 1854.9 503.601C1859 507.901 1860.4 504.801 1863 502.601C1875 492.701 1888.5 490.501 1902.4 496.901C1915.9 503.101 1918 516.001 1918 529.301C1918 547.301 1917.5 565.401 1918.2 583.401C1918.6 592.801 1913.1 591.601 1907.3 591.601C1901.5 591.601 1896.1 592.701 1896.5 583.401C1897.2 565.801 1896.9 548.201 1896.6 530.601C1896.4 517.101 1891.3 511.501 1880.1 511.601C1868.8 511.701 1862.2 518.501 1862.1 531.201C1861.9 548.401 1861.5 565.501 1862.3 582.701C1862.8 592.701 1857 591.401 1850.7 591.801C1844.1 592.101 1840.1 591.401 1840.4 583.001C1841 565.401 1841 547.801 1840.4 530.201C1839.9 514.801 1828.8 507.801 1815.4 513.301C1808.4 516.201 1805.6 521.201 1805.7 528.801C1806 546.801 1805.3 564.901 1806 582.901C1806.4 592.901 1800.5 591.701 1794.2 591.801C1787.8 592.001 1783.3 591.601 1783.8 582.901C1784.5 569.601 1784 556.401 1784 543.201Z" fill="#0A0A0A"/>
<path d="M1770.1 544.2C1770 574 1753.3 593 1726.9 593.3C1694.9 593.7 1675.3 564.2 1683.8 528.6C1689.4 505.1 1708.3 491.1 1730.8 493.8C1755.8 496.7 1770.2 515.3 1770.1 544.2ZM1748.8 544.5C1749.4 536.9 1748 529.6 1744.6 522.9C1741 515.8 1735.1 511.7 1726.9 511.4C1718.5 511.1 1712.1 514.8 1708.7 521.9C1702 536 1701.8 550.7 1708.4 565C1711.8 572.5 1718.4 575.7 1726.5 575.7C1735.3 575.7 1741.7 571.6 1745.1 563.7C1747.6 557.6 1749.1 551.2 1748.8 544.5Z" fill="#0A0A0A"/>
<path d="M1592.8 544.7C1592.7 506.9 1617.4 485.8 1649 495.6C1659.7 498.9 1667.8 505.8 1671.2 516.4C1672.4 520.2 1678.5 527.4 1670.5 529.3C1664.9 530.6 1655.8 534.8 1652.3 523.3C1649.8 515 1643 510.8 1633.9 511.4C1624.9 511.9 1619.2 516.8 1616.6 525.1C1612.7 537.6 1612.7 550.2 1616.8 562.7C1619.4 570.6 1625 575 1633.3 575.6C1641.4 576.2 1649 574.1 1651.8 566.1C1655.6 555.3 1664 559.3 1670.4 559.9C1677 560.5 1673.1 566.3 1672.1 569.3C1663.9 594.5 1625.9 602 1606.2 582.3C1595.4 571.6 1592.3 558.2 1592.8 544.7Z" fill="#0A0A0A"/>
<path d="M1294.7 347.6C1277.6 347.5 1265.3 334.7 1265.4 317.1C1265.5 300.4 1278 287.5 1294.2 287.2C1311 286.9 1324 300 1324.1 317.3C1324.3 335 1311.9 347.7 1294.7 347.6Z" fill="#0A0A0A"/>
<path d="M1564.8 569.001C1571.4 568.701 1575.4 573.001 1575.7 580.801C1575.9 588.201 1571.4 592.301 1564.5 592.601C1557.2 592.901 1551.5 589.301 1551.3 581.301C1551 573.701 1555.1 569.101 1564.8 569.001Z" fill="#0A0A0A"/>
<path d="M36.2002 513.701C51.1002 512.501 52.7002 503.101 52.5002 490.601C51.9002 458.501 52.1002 426.401 52.4002 394.301C52.5002 382.901 53.1002 371.901 37.4002 369.801C40.6002 369.801 43.9002 369.801 47.1002 369.801C116.6 369.801 186.1 370.001 255.6 369.601C265.6 369.501 270.2 371.501 269 382.501C268 391.001 268.8 399.701 266.3 408.701C265.1 404.501 264.1 400.201 262.8 396.001C258.3 382.201 236.2 371.501 222.7 376.101C218.5 377.501 219 380.501 219 383.401C219 422.101 219.1 460.801 219 499.501C219 513.801 231.8 507.801 238.5 512.901C217.5 512.901 196.9 512.901 172.9 512.901C179.4 511.501 182.6 510.301 185.9 510.101C194.4 509.501 196.5 504.801 196.4 496.901C196.1 460.001 196 423.001 196.4 386.001C196.5 377.801 194.1 375.801 185.9 376.001C164.6 376.501 154.1 387.901 152.1 408.901C149.9 407.401 149 407.101 148.9 406.601C143.8 380.601 140.9 378.001 114.7 376.401C74.4002 374.001 74.4002 374.001 74.4002 413.801C74.4002 435.101 74.4002 435.101 95.7002 435.101C115.9 435.101 115.9 435.101 124.9 411.601C124.9 429.701 124.9 447.701 124.9 465.801C123 465.701 121.6 465.701 121.5 463.901C121.1 456.401 121.6 447.501 113.4 444.501C101.7 440.201 89.1002 442.701 76.8002 443.101C74.3002 443.201 74.4002 446.301 74.4002 448.501C74.4002 465.201 74.4002 481.901 74.5002 498.601C74.5002 503.301 77.3002 505.801 81.8002 506.401C99.0002 508.801 116 509.301 132.2 501.601C141.8 497.001 148.7 490.001 151.3 478.801C154.9 488.901 153.3 499.001 153.2 508.901C153.2 515.901 147 513.701 143.1 513.701C107.5 513.801 71.9002 513.701 36.2002 513.701Z" fill="#FEFEFE"/>
<path d="M829.4 658.799C829.4 679.999 829.4 701.099 829.4 722.399C826.7 721.699 827.3 719.899 827 718.499C826.2 714.299 825.9 709.999 824.7 705.899C821.9 696.199 809.5 689.699 799.8 692.499C797.3 693.199 796.6 694.899 796.6 697.299C796.7 711.199 796.6 724.999 796.7 738.899C796.7 742.799 798.4 745.999 802.8 745.999C811.2 746.099 819.6 746.399 828 745.599C840 744.399 848.4 737.499 853.6 726.699C856.7 720.299 858.5 713.599 859.9 706.599C860.3 704.599 859.9 702.299 861.9 700.799C864 701.299 863.3 702.999 863.3 704.199C863.4 717.699 863.2 731.099 863.4 744.599C863.4 748.299 862.5 749.699 858.5 749.699C824.7 749.599 791 749.599 757.2 749.599C755.8 749.599 753.6 750.399 753.4 748.199C753.2 745.499 755.7 746.199 757.3 746.099C774.8 744.999 774.8 744.999 774.8 727.499C774.8 702.299 774.8 677.099 774.8 651.999C774.8 643.199 773.7 641.999 765 640.999C761.2 640.599 757.3 640.599 753.5 640.399C753.6 637.699 755.3 638.299 756.5 638.299C788.9 638.299 821.3 638.299 853.7 638.299C856.2 638.299 858.5 638.299 858.5 641.799C858.4 654.099 858.4 666.399 858.4 678.699C858.4 679.199 857.8 679.699 857.4 680.199C854.8 678.999 855.6 676.499 855.2 674.599C853.5 665.699 851.1 657.099 845.2 649.899C840.2 643.799 833.8 640.599 825.8 640.699C818.6 640.699 811.4 640.799 804.1 640.699C799.5 640.599 796.9 642.699 796.9 647.199C796.7 659.899 796.8 672.599 796.8 685.299C796.8 688.499 798.5 689.699 801.5 689.999C813.7 691.199 821.5 686.099 824.7 674.299C826.1 669.199 827 663.899 828.2 658.699C828.5 658.699 828.9 658.799 829.4 658.799Z" fill="#0A0A0A"/>
<path d="M1240.3 749.7C1242.5 745 1245.6 746.3 1248.1 746.1C1252 745.7 1254.1 744.2 1254 739.9C1253.8 722.9 1254 705.9 1253.9 689C1253.9 684.6 1253.3 680 1248.1 678.6C1243.1 677.3 1238.9 679.5 1235.9 683.6C1233.6 686.6 1232.5 690.1 1231.6 693.8C1227.6 709.3 1228 725.1 1228 740.9C1228 745.8 1231.6 745.8 1234.9 746.1C1236.6 746.3 1239.2 745.9 1239.1 748.1C1239 750.1 1236.5 749.8 1234.8 749.8C1223.3 749.8 1211.8 749.8 1200.3 749.8C1198.9 749.8 1196.6 750.6 1196.5 748.4C1196.3 745.8 1198.8 746.4 1200.4 746.3C1211.5 745.6 1211.6 745.5 1211.6 734.2C1211.6 720.5 1211.6 706.9 1211.6 693.2C1211.6 682.4 1210.5 681.2 1199.7 680.7C1198.6 680.6 1197.3 681 1196.5 679.7C1197.1 677.5 1199 678.5 1200.3 678.3C1207.9 677.5 1215.4 677 1223 676.1C1226.5 675.7 1228.1 676.7 1228 680.4C1227.9 683.7 1228.3 686.9 1229 690.6C1234.1 682.3 1240 675.2 1250.5 675C1261.2 674.7 1267.8 680.7 1271.8 690C1274.3 689.7 1274.4 687.5 1275.2 686.2C1280.8 677.3 1290.1 673.2 1299.1 675.6C1308.6 678.1 1314.7 686.2 1314.7 697.1C1314.7 710.4 1314.2 723.6 1313.9 736.9C1313.7 745.4 1314.1 745.7 1322.5 746.4C1324.1 746.5 1326.7 745.9 1326.6 748.4C1326.5 751 1323.8 749.9 1322.3 749.9C1311.2 750 1300.1 750 1288.9 749.9C1287.4 749.9 1284.8 750.9 1284.9 748.1C1285 746 1287.2 746.5 1288.7 746.4C1296.9 745.7 1297 745.6 1297 737.3C1297 721.9 1297.1 706.5 1296.9 691.1C1296.9 686.1 1297.2 680.5 1290.6 678.7C1285.5 677.3 1279.7 680.9 1276.8 687.3C1273.4 694.9 1272.2 703 1271.6 711.2C1271 720.1 1271.3 729.1 1270.7 738.1C1270.3 743.8 1272.4 746.5 1278.2 746.4C1279.8 746.4 1282.4 745.8 1282.4 748.2C1282.4 750.9 1279.8 749.9 1278.3 749.9C1265.9 749.8 1253.5 749.7 1240.3 749.7Z" fill="#0A0A0A"/>
<path d="M78.4998 722.299C75.2998 718.499 75.8998 713.799 75.0998 709.499C72.4998 695.199 62.1998 691.899 50.0998 692.399C46.9998 692.499 45.7998 694.499 45.7998 697.499C45.8998 711.199 45.7998 724.799 45.8998 738.499C45.8998 743.599 48.4998 746.399 53.9998 746.199C59.0998 745.999 64.0998 746.199 69.1998 746.199C70.8998 746.199 72.5998 746.499 72.3998 748.599C72.1998 750.599 70.1998 749.699 69.0998 749.699C48.1998 749.799 27.2998 749.799 6.39981 749.699C4.9998 749.699 2.7998 750.599 2.4998 748.399C2.1998 745.699 4.6998 746.299 6.2998 746.199C24.0998 745.099 24.0998 745.099 24.0998 727.299C24.0998 702.299 24.0998 677.299 24.0998 652.299C24.0998 643.299 22.8998 641.899 13.7998 641.099C9.9998 640.699 6.1998 640.699 2.2998 640.499C3.0998 637.599 4.9998 638.499 6.2998 638.499C38.2998 638.399 70.2998 638.499 102.3 638.399C105.3 638.399 107.6 638.399 107.6 642.599C107.4 654.699 107.5 666.799 107.5 678.899C107.5 679.899 107.5 680.899 106 681.499C104.3 679.599 104.5 676.999 104.1 674.699C102.3 664.799 99.3998 655.399 92.0998 647.899C87.5998 643.299 82.2998 640.899 75.9998 640.799C68.3998 640.699 60.7998 640.899 53.1998 640.699C48.0998 640.599 45.8998 643.199 45.8998 647.699C45.6998 660.199 45.7998 672.699 45.7998 685.199C45.7998 688.299 47.4998 689.599 50.4998 689.899C62.8998 691.199 70.5998 685.999 73.9998 673.899C75.2998 669.299 76.0998 664.499 78.4998 659.899C78.4998 680.799 78.4998 701.499 78.4998 722.299Z" fill="#050505"/>
<path d="M1556.2 691.4C1556.2 706.2 1556.4 721.1 1556.1 735.9C1556 741.7 1558.3 744.5 1564 745.3C1569.1 746 1574.1 746.1 1579.2 746.2C1580.7 746.2 1582.3 746.4 1582.3 748.1C1582.3 750 1580.5 749.8 1579.2 749.8C1556.9 749.8 1534.7 749.8 1512.4 749.8C1511.2 749.8 1509.3 750.2 1509.5 748C1509.7 746.2 1511.3 746.3 1512.7 746.3C1518 746.4 1523.2 746.1 1528.4 745C1532.4 744.2 1534.5 742 1534.5 737.8C1534.5 707.1 1534.5 676.5 1534.5 645.8C1534.5 642.4 1533.3 641 1529.7 640.8C1519.8 640.2 1512.3 643.9 1507.1 652.4C1501.5 661.5 1499.8 671.6 1498.9 682C1498.8 683.5 1499.8 686.2 1497.5 686.3C1494.9 686.4 1495.9 683.7 1495.9 682.2C1495.6 669.1 1495.6 656 1495.3 643C1495.2 639.7 1496.3 638.5 1499.6 638.5C1530.1 638.6 1560.5 638.6 1591 638.5C1594.3 638.5 1595.5 639.9 1595.5 643C1595.3 656.9 1595.2 670.7 1595 684.6C1595 685.7 1595.2 687.3 1593.7 687.4C1591.7 687.5 1592 685.6 1591.9 684.4C1591 671.9 1587.7 660.2 1580.3 649.9C1575.9 643.8 1570.2 640.6 1562.4 640.7C1557.7 640.8 1555.9 642 1556 647C1556.4 661.7 1556.2 676.6 1556.2 691.4Z" fill="#050505"/>
<path d="M539.8 638.401C538.4 649.801 539.4 661.201 539 672.601C538.8 676.501 539 680.401 538.9 684.301C538.9 685.501 539.4 687.401 537.3 687.301C535.9 687.201 535.9 685.701 535.7 684.501C535.2 680.401 534.9 676.301 534 672.401C532.2 663.901 528.9 656.101 523.7 649.101C518.6 642.201 511.8 640.101 503.7 640.701C500.8 640.901 500.2 642.401 500.2 644.901C500.2 675.901 500.2 707.001 500.2 738.001C500.2 742.401 502.6 744.201 506.5 745.001C511.5 746.001 516.6 746.101 521.7 746.201C523.3 746.201 525.9 745.501 526 747.901C526.2 750.701 523.5 749.701 522 749.701C500.3 749.801 478.7 749.801 457 749.701C455.6 749.701 453.4 750.501 453.3 748.101C453.2 745.801 455.3 746.201 456.8 746.201C461.9 746.201 466.9 745.901 471.9 744.901C476.1 744.101 478.2 741.801 478.2 737.201C478.1 706.701 478.1 676.301 478.2 645.801C478.2 642.001 476.8 640.801 473.1 640.601C463.4 640.101 456.1 643.801 451 652.001C445.3 661.301 443.5 671.501 442.8 682.201C442.7 683.701 443.7 686.401 441 686.201C439.1 686.101 439.6 683.701 439.6 682.301C439.5 669.001 439.4 655.801 439.2 642.501C439.1 639.501 440.1 638.301 443.2 638.301C473.8 638.401 504.5 638.401 535.1 638.301C536.8 638.301 538.3 640.101 540 638.601C539.9 638.701 539.8 638.401 539.8 638.401Z" fill="#0A0A0A"/>
<path d="M1023.1 678.8C1032.4 677.9 1041.6 676.9 1050.9 676C1053.4 675.7 1054.4 676.8 1054.5 679.3C1054.6 682.3 1054.3 685.4 1055.4 688.3C1057.4 687.8 1057.7 686.3 1058.4 685.3C1064.4 676.4 1074 672.8 1083.8 675.8C1093.7 678.7 1099.7 686.8 1099.6 697.8C1099.5 710.9 1099.2 724 1098.9 737C1098.8 745.1 1099.3 745.7 1107.1 746.3C1109 746.4 1112.4 745.2 1112.2 748.3C1112 751.2 1108.7 749.8 1106.8 749.8C1095.9 749.9 1084.9 749.9 1074 749.8C1072.4 749.8 1069.4 751.1 1069.4 748.1C1069.4 745.6 1072 746.5 1073.6 746.3C1081.4 745.7 1081.9 745.3 1081.9 737.7C1081.9 722.5 1081.9 707.2 1081.9 692C1081.9 683.9 1079 679.4 1073.4 678.5C1067.4 677.5 1061.8 681.2 1059.2 688.3C1056.5 695.5 1055.5 703.1 1055.1 710.7C1054.7 719.7 1055 728.7 1054.5 737.6C1054.1 743.7 1056.4 746.3 1062.3 746.3C1063.9 746.3 1066.5 745.6 1066.5 748.1C1066.6 750.9 1063.9 749.8 1062.4 749.8C1050.5 749.9 1038.6 749.9 1026.7 749.8C1025.3 749.8 1023.1 750.6 1023 748.3C1022.9 746.2 1025 746.4 1026.5 746.3C1028.3 746.3 1030 746.3 1031.8 746.1C1035.9 745.8 1038.2 743.7 1038.1 739.3C1038 722.5 1038 705.7 1038.1 688.9C1038.1 683.4 1035 681.3 1030.1 680.8C1027.7 680.6 1025.3 680.5 1022.9 680.3C1023.1 679.8 1023.1 679.3 1023.1 678.8Z" fill="#0A0A0A"/>
<path d="M1189.3 711.501C1189.7 732.201 1172.9 750.501 1153.1 750.901C1134.3 751.301 1118.6 734.101 1118.3 712.801C1118 692.601 1134.6 675.101 1154.3 674.801C1174.1 674.401 1188.9 689.901 1189.3 711.501ZM1171 711.901C1171 704.101 1170.7 696.301 1168.4 688.701C1166.1 681.001 1162.1 677.401 1155.6 677.001C1148.4 676.601 1142.5 679.801 1140.2 687.101C1134.7 704.701 1134.7 722.501 1140.8 739.901C1144.5 750.501 1158.1 751.501 1164.8 742.301C1166.7 739.701 1167.7 736.801 1168.6 733.801C1170.6 726.701 1171 719.401 1171 711.901Z" fill="#0A0A0A"/>
<path d="M1016 712C1016.2 732.6 999.2 750.7 979.4 750.9C960.9 751.1 945.4 733.9 945.1 712.9C944.8 692.4 961.5 674.9 981.5 674.7C1001.2 674.6 1015.8 690.4 1016 712ZM963.3 711.9C963.4 721.3 963.7 730.6 967.2 739.5C969.1 744.4 972.3 747.8 977.8 748.4C983.7 749 988.5 746.9 991.9 741.9C993.7 739.3 994.8 736.4 995.5 733.3C998.8 718.8 998.8 704.3 995.4 689.8C993.4 681 988.9 677.2 981.7 677C973.9 676.8 968.7 680.8 966 689.2C963.7 696.7 963.5 704.3 963.3 711.9Z" fill="#0A0A0A"/>
<path d="M183.899 712.3C183.899 691.9 200.699 674.6 220.699 674.7C240.199 674.7 254.799 690.8 254.899 712.2C254.999 732.9 237.599 751 217.499 750.9C199.299 750.8 183.899 733.2 183.899 712.3ZM202.299 712.4C202.399 721.8 202.499 731.2 206.299 740C210.599 750.1 223.099 751.7 229.999 743C232.199 740.2 233.499 736.9 234.299 733.5C237.599 719 237.599 704.5 234.299 690C232.299 681.2 227.899 677.3 220.699 677.1C212.899 676.8 207.699 680.8 204.899 689.2C202.399 696.8 202.399 704.6 202.299 712.4Z" fill="#0A0A0A"/>
<path d="M539.8 638.4L539.9 638.7C540.6 636.6 542.5 637.299 543.9 637.299C552.1 637.199 560.2 637.5 568.4 637.2C572.1 637.1 572.9 638.299 572.9 641.799C572.7 656.399 572.8 670.999 572.9 685.599C572.9 686.499 571.6 689.899 575 687.599C575.8 687.599 576.5 687.6 577.3 687.7C574.1 696.5 573.7 705.699 573.1 714.799C572.6 722.599 573.3 730.4 572.7 738.2C572.3 744.3 575.2 746.099 580.5 746.299C582.1 746.399 584.7 745.5 584.8 748C584.8 751.1 581.9 749.799 580.3 749.799C568.6 749.899 556.9 749.899 545.2 749.799C543.9 749.799 541.6 750.7 541.4 748.4C541.2 745.7 543.7 746.399 545.3 746.299C546.7 746.199 548 746.2 549.4 746.2C554.3 746 556.7 743.7 556.6 738.5C556.4 722.1 556.5 705.8 556.5 689.4C556.5 676.5 556.5 663.699 556.5 650.799C556.5 642.299 554.4 640.3 545.9 639.7C543.8 639.4 541.5 640.5 539.8 638.4Z" fill="#050505"/>
<path d="M680 712.199C673.8 712.199 667.5 712.399 661.3 712.099C657.9 711.999 656.8 713.099 657.2 716.399C657.7 720.899 657.6 725.399 658.2 729.799C659.6 739.999 664.3 745.499 672.2 746.999C681.1 748.699 691.2 744.099 695.6 736.099C697.5 732.699 698.5 728.899 699.2 724.999C699.4 723.399 699.6 721.399 701.7 721.799C703.8 722.299 702.8 724.399 702.6 725.799C700.1 744.599 681.4 755.299 661.8 748.899C649.5 744.899 641.8 736.499 639.1 723.699C635.7 707.299 642.8 689.399 656.5 679.999C672.9 668.699 693 674.899 700.2 693.399C701.6 696.999 702.3 700.899 702.9 704.699C703.8 709.999 702.6 712.699 696.4 711.999C691 711.799 685.5 712.199 680 712.199ZM671.8 708.699C675.3 708.699 678.8 708.599 682.3 708.699C685.5 708.899 687 707.599 686.8 704.299C686.6 698.099 686.4 691.899 684.3 685.899C682.7 681.399 680.2 677.799 675.1 677.199C670 676.499 666 678.799 663 682.799C659.8 687.099 658.5 692.199 657.8 697.499C656.2 708.699 656.1 708.699 667.1 708.699C668.7 708.699 670.2 708.699 671.8 708.699Z" fill="#0A0A0A"/>
<path d="M1827.5 712.201C1821.1 712.201 1814.6 712.301 1808.2 712.101C1805.4 712.001 1804.4 712.901 1804.6 715.701C1805 720.401 1805 725.101 1805.6 729.701C1806.8 739.601 1811.7 745.401 1819.6 747.001C1828.3 748.701 1838.3 744.301 1842.8 736.701C1844.9 733.101 1846.1 729.201 1846.6 725.101C1846.8 723.501 1847.1 721.501 1849 721.801C1851.1 722.201 1850.1 724.401 1850 725.801C1848.1 744.201 1829.4 755.101 1809.9 749.201C1796.2 745.101 1787 733.901 1785.9 719.201C1784.8 705.401 1789.4 693.401 1799.5 683.801C1808.6 675.301 1819.3 671.901 1831.3 676.401C1843.2 680.801 1848 690.901 1850 702.701C1850.2 703.701 1850.1 704.701 1850.3 705.601C1851.6 711.101 1849.2 712.701 1843.9 712.301C1838.5 711.901 1833 712.201 1827.5 712.201ZM1819.6 708.701C1836.4 708.701 1836.7 708.201 1833.4 691.401C1833.1 690.101 1832.9 688.701 1832.4 687.401C1830.8 682.401 1828.5 677.801 1822.5 677.201C1816.6 676.601 1812.5 679.701 1809.5 684.501C1806.2 689.801 1805.7 695.801 1804.8 701.801C1804 707.201 1805.8 709.501 1811.4 708.701C1814.1 708.401 1816.8 708.701 1819.6 708.701Z" fill="#0A0A0A"/>
<path d="M1909.3 704.9C1907.1 702.5 1907.4 699.1 1906.3 696.3C1903 687.9 1898.7 680.4 1889.2 677.7C1884 676.2 1879.1 676.9 1874.8 680.2C1867.7 685.6 1868.6 695.2 1876.6 699.3C1881.1 701.7 1886.1 702.8 1891 703.9C1894.2 704.6 1897.5 705.3 1900.6 706.3C1914.6 710.8 1920.8 723.8 1915.6 737.3C1911.1 749.1 1896.8 754.2 1884.1 748.7C1883.4 748.4 1882.7 748 1882 747.7C1878.4 746.3 1876 741.3 1872.3 742C1868.8 742.7 1867.5 747.7 1864.1 751.2C1864.1 738.8 1864.1 727.4 1864.1 715.8C1867.1 716.6 1866.8 719.2 1867.4 721C1869.4 727.8 1872.3 734.1 1876.6 739.8C1881.5 746.2 1888 749.1 1896 748.2C1901.9 747.6 1905.6 744.2 1907 738.4C1908.4 732.6 1906.1 727.8 1900.8 724.6C1895.1 721.2 1888.7 720.4 1882.4 719.1C1875.2 717.6 1869.3 714.2 1865.4 707.8C1860.2 699.4 1861.4 688.4 1868.2 681.3C1875.1 674.1 1885.8 672.4 1894.5 677.1C1895.9 677.8 1897.4 678.6 1898.4 679.7C1902.3 684 1904.7 682.4 1907 678C1907.7 676.6 1908.2 674 1910.4 674.7C1912.4 675.3 1911.5 677.7 1911.5 679.4C1911.3 686.6 1911.1 693.8 1910.8 701C1910.9 702.7 1911.1 704.1 1909.3 704.9Z" fill="#0A0A0A"/>
<path d="M934.9 721.7C932.9 725.1 935.5 728.899 934.4 732.299C929.5 746.499 914.2 754 898.2 749.9C879.7 745.1 868.5 723.799 873.9 703.599C879.2 683.699 899.4 670.9 917.6 675.9C923.6 677.6 928.7 680.7 932.2 685.9C935.6 690.8 935.6 697 932.4 701.2C930.1 704.3 927 705.7 923.2 705C919.5 704.2 916.9 701.799 916.2 698C915.5 694.2 916.9 691.2 920.1 688.9C924.5 685.8 924.4 683.699 920.2 680.299C913.7 675.099 904 676.299 898.2 683.099C888.9 693.999 888.3 729.099 897.3 740.099C905.9 750.799 924.8 747 931.1 733.2C932.6 729.5 933.6 725.5 934.9 721.7Z" fill="#0A0A0A"/>
<path d="M1445.4 718.899C1448.9 730.999 1439.4 746.099 1426.9 749.599C1411.7 753.899 1396.6 748.099 1388.7 734.299C1381.1 721.099 1380.7 707.499 1388.4 694.199C1395.7 681.699 1406.4 674.299 1421.4 674.699C1430 674.899 1437.3 678.299 1442.5 685.499C1446.3 690.699 1446.1 697.499 1442.4 701.799C1439.9 704.699 1436.6 705.899 1432.9 704.799C1429.5 703.799 1427.2 701.399 1426.6 697.799C1426 694.199 1427.3 691.299 1430.2 689.099C1434.9 685.599 1434.8 683.199 1430 679.799C1424.6 675.999 1416.8 676.199 1411.5 680.399C1410.1 681.499 1408.9 682.799 1407.8 684.099C1399.4 694.999 1399 727.999 1407 739.199C1413 747.599 1427.6 748.599 1435 741.199C1440.2 736.299 1440.2 736.299 1445.4 718.899Z" fill="#0A0A0A"/>
<path d="M577.3 687.501C576.5 687.501 575.8 687.501 575 687.401C580.7 676.901 590.4 672.401 601.3 675.301C611.9 678.101 618.1 686.601 617.9 698.501C617.7 711.601 617.4 724.601 617.2 737.701C617.1 744.901 617.8 745.601 625.1 746.001C626.3 746.101 627.4 746.101 628.6 746.101C629.7 746.101 630.6 746.701 630.7 747.801C630.9 749.401 629.6 749.601 628.4 749.601C623.5 749.601 618.6 749.601 613.8 749.601C606.2 749.601 598.6 749.601 591 749.601C589.7 749.601 587.9 750.101 587.7 748.201C587.5 745.901 589.5 746.201 591 746.101C600.2 745.201 600.2 745.201 600.2 736.101C600.2 722.001 600.2 708.001 600.2 693.901C600.2 684.201 598.1 680.001 592.7 678.501C587.2 677.001 582.1 680.001 577.3 687.501Z" fill="#0A0A0A"/>
<path d="M297.399 691.101C293.699 706.601 293.499 722.301 293.299 738.101C293.199 744.001 295.399 746.301 300.999 746.201C302.599 746.201 305.099 745.701 304.899 748.301C304.699 750.501 302.499 749.701 300.999 749.701C289.099 749.801 277.199 749.801 265.299 749.701C263.999 749.701 261.699 750.501 261.899 748.001C261.999 745.801 264.099 746.301 265.599 746.201C267.399 746.101 269.099 746.101 270.899 746.001C274.699 745.701 277.099 743.801 277.099 739.701C277.099 722.601 277.099 705.401 276.999 688.301C276.999 683.101 273.599 681.401 268.999 680.801C266.599 680.501 263.999 681.501 260.899 679.301C264.599 677.801 267.599 678.501 270.499 678.201C275.899 677.601 281.399 677.301 286.699 676.301C291.299 675.501 293.699 676.301 293.499 681.601C293.299 684.901 293.899 688.201 294.199 691.501C294.199 691.601 294.599 691.801 294.699 691.801C294.999 691.701 295.299 691.501 295.499 691.301C296.199 691.101 296.799 691.101 297.399 691.101Z" fill="#050505"/>
<path d="M113.899 678.9C123.799 677.9 133.299 676.9 142.699 676C144.799 675.8 145.399 676.7 145.299 678.7C145.199 681.2 144.999 683.8 145.299 686.3C145.499 687.8 143.599 691.9 148.399 689.4C149.499 688.8 149.899 690.8 149.499 692C143.799 708.2 146.399 725 146.099 741.5C145.999 746.1 150.799 745.1 153.799 746C156.599 746.9 161.999 744.6 161.899 747.9C161.699 751.9 156.399 749.5 153.499 749.6C141.799 749.9 130.099 749.8 118.399 749.7C116.999 749.7 114.399 750.9 114.499 747.9C114.599 745.6 116.799 746.3 118.199 746.2C129.499 745.5 129.599 745.4 129.599 734.3C129.599 720.6 129.599 707 129.599 693.3C129.599 681.8 128.899 681.1 117.499 680.6C116.399 680.5 115.199 680.9 113.899 678.9Z" fill="#050505"/>
<path d="M338.899 690C343.699 678.6 353.299 672.9 363.599 675.1C373.899 677.3 380.199 686.2 380.099 698.3C379.999 711.4 379.599 724.5 379.399 737.5C379.299 745.1 379.699 745.5 387.599 746.1C389.299 746.2 392.299 745.3 391.899 748.3C391.699 750.6 388.999 749.6 387.399 749.6C376.299 749.7 365.099 749.7 353.999 749.6C352.599 749.6 350.399 750.5 350.199 748.2C349.999 745.5 352.499 746.2 354.099 746.1C361.999 745.4 362.199 745.3 362.199 737.4C362.199 722.2 362.299 706.9 362.099 691.7C361.999 686.4 362.999 680.2 355.699 678.3C350.299 677 345.199 680.6 341.799 687.6C341.399 688.5 340.899 689.3 340.499 690.2C340.099 690.2 339.499 690.1 338.899 690Z" fill="#0A0A0A"/>
<path d="M1734.9 678C1751.4 669.8 1766.5 679.5 1766.5 697.6C1766.5 710.7 1766 723.7 1765.7 736.8C1765.6 745.1 1765.8 745.3 1774.4 746.1C1776 746.2 1778.5 745.5 1778.3 748.2C1778.1 750.4 1775.9 749.6 1774.5 749.6C1763 749.7 1751.5 749.7 1740 749.6C1738.7 749.6 1736.4 750.4 1736.6 747.8C1736.7 746 1738.5 746.3 1739.8 746.1C1748.8 745.1 1748.8 745.1 1748.8 735.9C1748.8 721.5 1748.8 707 1748.8 692.6C1748.9 680.3 1747.6 679 1734.9 678Z" fill="#050505"/>
<path d="M1647.8 678.9C1657.8 677.9 1667.2 676.9 1676.5 676C1678.9 675.7 1679.6 677 1679.7 679.1C1679.9 682 1679.9 684.9 1680.2 687.9C1680.3 689.2 1678.8 692.3 1682.7 690.3C1684 689.6 1683.9 691.8 1683.6 692.8C1679.6 708 1680 723.5 1679.8 739C1679.7 744.1 1681.7 746.1 1686.5 746.3C1688.2 746.4 1691.4 745.4 1691.3 748.1C1691.2 751.3 1687.9 749.7 1686.1 749.8C1675 750 1663.9 749.9 1652.8 749.8C1651.3 749.8 1648.7 750.9 1648.5 748.4C1648.3 745.8 1650.8 746.4 1652.4 746.3C1663.4 745.6 1663.6 745.5 1663.6 734.2C1663.6 720.6 1663.6 706.9 1663.6 693.3C1663.6 682.5 1662.3 681.2 1651.7 680.7C1650.6 680.5 1649.4 680.9 1647.8 678.9Z" fill="#050505"/>
<path d="M1331.1 678.8C1340.7 677.8 1350.2 676.7 1359.8 676C1363.5 675.7 1362.6 679 1362.6 681.2C1362.7 699.4 1362.6 717.5 1362.6 735.7C1362.6 745.3 1362.7 745.4 1372.2 746.2C1373.8 746.3 1376.3 745.7 1376.1 748.3C1376 750.5 1373.7 749.7 1372.3 749.8C1359.8 749.9 1347.3 749.9 1334.8 749.8C1333.4 749.8 1331.2 750.6 1331.1 748.3C1331 746.1 1333 746.3 1334.6 746.3C1336.2 746.2 1337.7 746.2 1339.3 746.2C1344.4 746 1346.4 743.3 1346.3 738.2C1346.2 722.2 1346.3 706.2 1346.2 690.2C1346.2 682.7 1344.4 681.1 1336.8 680.7C1334.9 680.5 1332.9 681 1331.1 678.8Z" fill="#0A0A0A"/>
<path d="M1598.7 678.899C1608.5 677.899 1617.8 676.899 1627 675.999C1631.6 675.499 1630.7 678.999 1630.7 681.499C1630.8 699.699 1630.7 717.799 1630.7 735.999C1630.7 745.199 1631 745.499 1640 746.199C1641.6 746.299 1644.2 745.499 1644.2 747.999C1644.2 750.799 1641.6 749.699 1640.1 749.699C1627.8 749.799 1615.5 749.799 1603.2 749.699C1601.8 749.699 1599.2 750.899 1599.3 747.899C1599.4 745.699 1601.6 746.299 1603 746.199C1614.4 745.399 1614.4 745.399 1614.4 734.299C1614.4 720.199 1614.4 706.199 1614.4 692.099C1614.4 682.199 1613.2 680.999 1603.5 680.599C1602.3 680.599 1601.2 680.499 1600 680.299C1599.7 680.299 1599.5 679.799 1598.7 678.899Z" fill="#0A0A0A"/>
<path d="M1726.5 692.5C1723.1 707.4 1722.7 722.6 1722.6 737.8C1722.6 743.5 1724.4 746.2 1730.2 746.1C1731.8 746.1 1734.3 745.3 1734.4 747.8C1734.5 750.6 1731.9 749.5 1730.4 749.5C1719.5 749.6 1708.6 749.6 1697.6 749.5C1696.2 749.5 1694 750.2 1693.9 748C1693.8 745.9 1695.9 746.2 1697.4 746C1705.9 745.2 1706 745.2 1706 736.6C1706 721.4 1706 706.2 1706 691C1706 680.3 1704.3 678.7 1693.6 678.4C1693.1 678.4 1692.6 678 1692 677.7C1707.3 671 1715.9 674.8 1724.4 691.4C1725.1 691.9 1725.8 692.2 1726.5 692.5Z" fill="#050505"/>
<path d="M338.9 689.999C339.5 690.099 340.1 690.3 340.7 690.4C337.5 700 337.3 709.999 336.6 719.999C336.2 725.399 336.4 730.9 336.4 736.4C336.4 745 336.4 745.099 345.1 746.299C346.5 746.499 348.1 746.399 348.1 748.2C348.1 750.2 346.2 749.799 345 749.799C333.5 749.799 322 749.799 310.5 749.799C309.2 749.799 307.4 750.099 307.4 748.099C307.4 746.399 309 746.399 310.5 746.2C319.7 745.1 319.7 744.999 319.7 735.599C319.7 721.799 319.7 707.899 319.7 694.099C319.7 680.299 319.1 679.599 306.2 677.999C318.1 671.099 332.2 676.1 336.2 688.9C336.8 690.9 337.1 691.899 338.9 689.999Z" fill="#050505"/>
<path d="M150 686.5C155.5 678.5 163.3 676.1 171.7 679.6C178.5 682.5 180.6 691.8 175.7 697.2C172.3 701 166.7 701.7 163.1 698.8C159.6 696 158.9 690.9 161.3 686.7C162.3 685 165.4 683.3 163.3 681.4C161.1 679.5 158 680.9 155.9 682.7C154.2 684.2 152.8 686.1 151.2 687.8C150.7 687.3 150.4 686.9 150 686.5Z" fill="#0A0A0A"/>
<path d="M1364.2 646C1364.2 652.1 1360.8 655.9 1355.2 655.9C1349.4 656 1345.3 651.9 1345.3 646C1345.3 640.3 1349.6 636 1355.2 636C1360.6 636 1364.2 640 1364.2 646Z" fill="#0A0A0A"/>
<path d="M1632.3 646C1632.3 652.1 1628.9 655.9 1623.4 656C1617.6 656.1 1613.5 652 1613.5 646.2C1613.5 640.5 1617.7 636.199 1623.3 636.099C1628.7 635.999 1632.3 640 1632.3 646Z" fill="#0A0A0A"/>
<path d="M1726.5 692.501C1725.8 692.201 1725.1 691.901 1724.4 691.601C1726.2 688.901 1725.9 684.501 1730.7 684.401L1730.8 684.301C1727.9 686.301 1728.2 690.001 1726.5 692.501Z" fill="#0A0A0A"/>
<path d="M297.4 691.1C296.8 691.1 296.1 691.1 295.5 691.1C296.4 688 297.7 685.1 301.1 683.4C299.9 686 298.7 688.6 297.4 691.1Z" fill="#0A0A0A"/>
<path d="M1733.5 680.199L1733.3 680.699L1733.6 680.799L1733.5 680.199Z" fill="#0A0A0A"/>
<path d="M1730.6 684.4C1730.8 684.2 1731 684 1731.2 683.7C1731 683.6 1730.8 683.5 1730.6 683.4C1730.6 683.7 1730.7 684 1730.6 684.4Z" fill="#0A0A0A"/>
<path d="M150 686.5C150.4 686.9 150.8 687.3 151.1 687.8C150.9 689 150.3 689.5 149 689.2C149.7 688.7 149.8 688 149.4 687.2C149.4 686.8 149.6 686.5 150 686.5Z" fill="#050505"/>
<path d="M149.1 689.1C148 688.2 148.8 687.7 149.5 687.1C149.9 687.9 149.8 688.6 149.1 689.1Z" fill="#050505"/>
</svg>
