<svg width="1920" height="1080" viewBox="0 0 1920 1080" fill="none" xmlns="http://www.w3.org/2000/svg">
<path d="M1293.7 610.598C1295.9 611.598 1298.2 611.199 1300.4 611.199C1333 611.199 1365.6 611.199 1398.3 611.199C1405.3 611.199 1405.3 611.198 1405.3 618.098C1405.3 641.598 1405.3 665.199 1405.3 688.699C1405.3 689.499 1405.3 690.199 1405.3 690.999C1405.1 695.699 1405 695.899 1400.3 695.899C1385.1 695.899 1369.8 695.899 1354.6 695.899C1303.5 695.899 1252.3 695.899 1201.2 695.899C1200 695.899 1198.9 695.899 1197.7 695.899C1195 695.999 1193.8 694.798 1193.8 692.098C1194 682.498 1193.6 672.799 1194.2 663.199C1194.8 653.399 1194.9 643.499 1194.2 633.699C1193.5 623.699 1193.4 613.598 1193.9 603.598C1194.4 593.998 1194.4 584.299 1194.4 574.699C1194.4 570.699 1195.2 567.299 1197.5 563.899C1220.1 530.299 1242.5 496.599 1264.9 462.999C1281.3 438.499 1297.6 413.898 1314 389.398C1325.7 371.898 1337.5 354.599 1349 336.999C1360.8 319.199 1373.1 301.699 1384.3 283.498C1390.2 273.898 1390.4 273.898 1401.7 273.898C1505.2 273.898 1608.6 273.898 1712.1 273.898C1714.1 273.898 1716.3 273.299 1718.7 275.199C1713.9 276.499 1709.4 277.098 1705 277.898C1687.4 281.298 1671 287.499 1655.4 295.999C1632.7 308.398 1613.7 324.999 1598.2 345.599C1587.2 360.099 1578.9 376.199 1573.6 393.699C1566 419.099 1563.3 444.999 1565.7 471.398C1566.4 478.898 1567.4 486.299 1569 493.699C1570 498.199 1570.5 498.798 1575.1 498.798C1602.5 498.798 1629.9 498.798 1657.3 498.798C1657.9 498.798 1658.5 498.798 1659 498.798C1661.7 498.898 1662.4 497.599 1661.7 495.199C1659.5 487.799 1658.4 480.199 1657.4 472.599C1655.4 457.599 1656.2 442.798 1659.1 427.898C1661.7 414.598 1667.2 402.599 1674.7 391.599C1685.2 376.099 1700.1 366.399 1717.9 361.599C1732.1 357.799 1746.7 357.798 1761.4 360.298C1772 362.098 1781.4 365.998 1789.9 371.998C1802.3 380.799 1810.1 393.099 1815.2 407.099C1821.9 425.499 1823.3 444.699 1821.6 464.099C1820.4 477.899 1815.5 490.599 1807.4 501.999C1795.6 518.699 1779.4 529.799 1761.6 538.999C1745.6 547.398 1728.7 553.899 1712.3 561.399C1692.3 570.499 1672.9 580.699 1654.7 592.899C1636 605.499 1619 620.199 1604.3 637.699C1590 654.899 1578.8 673.798 1570.4 694.298C1566 704.898 1562.7 715.999 1559.8 727.199C1555.9 742.199 1553.2 757.298 1552 772.598C1551.2 782.998 1550.7 793.298 1550.1 803.698C1549.8 807.998 1549.8 808.298 1545.4 808.298C1529 808.398 1512.6 808.298 1496.2 808.298C1486.7 808.298 1477.3 808.298 1467.8 808.298C1461.4 808.298 1461.4 808.198 1461.4 801.798C1461.4 767.798 1461.4 733.899 1461.4 699.899C1461.4 588.299 1461.4 476.799 1461.4 365.199C1461.4 364.999 1461.4 364.799 1461.4 364.599C1461 362.699 1462.5 359.998 1459.8 358.998C1456.6 357.799 1455.5 360.698 1454.2 362.798C1442.9 379.998 1431.5 397.199 1420.3 414.499C1409 431.999 1397.5 449.298 1386.3 466.798C1379.3 477.598 1371.9 488.198 1365.3 499.298C1358.1 511.398 1349.5 522.598 1342.3 534.598C1334.8 547.198 1326.1 558.999 1318.5 571.399C1311.2 583.399 1303.3 594.999 1295.5 606.699C1294.8 607.899 1293.8 608.898 1293.7 610.598Z" fill="#EE2839"/>
<path d="M547.001 680.599C547.001 642.399 547.001 604.199 547.001 565.999C547.001 552.799 545.401 539.899 540.601 527.499C534.701 512.399 523.401 503.999 507.801 500.899C494.001 498.099 480.301 498.899 466.401 500.299C454.101 501.499 442.001 503.499 430.201 507.199C425.701 508.599 425.401 508.999 425.401 513.599C425.401 540.199 425.401 566.799 425.401 593.399C425.401 618.799 425.201 644.299 425.201 669.699C425.201 686.299 425.301 702.899 425.401 719.399C425.401 723.499 425.501 723.599 429.601 723.599C441.801 723.599 453.901 723.499 466.101 723.599C472.101 723.599 472.301 723.799 472.301 729.699C472.301 754.199 472.301 778.699 472.301 803.199C472.301 808.399 472.201 808.399 466.601 808.399C428.801 808.399 390.901 808.399 353.101 808.399C329.201 808.399 305.201 808.399 281.301 808.399C280.101 808.399 279.001 808.399 277.801 808.399C275.901 808.499 274.901 807.699 275.001 805.699C275.001 804.699 275.001 803.799 275.001 802.799C275.001 778.299 275.001 753.799 275.001 729.299C275.001 723.099 274.801 723.499 280.501 723.499C288.401 723.499 296.301 723.499 304.201 723.499C308.801 723.499 313.501 723.399 318.101 723.499C320.801 723.599 321.801 722.499 321.801 719.799C321.701 710.299 321.701 700.899 321.701 691.399C321.701 633.899 321.701 576.399 321.801 518.899C321.801 517.699 321.801 516.599 321.801 515.399C321.801 508.599 321.801 508.599 315.301 508.599C301.001 508.599 286.701 508.599 272.501 508.599C271.301 508.599 270.201 508.599 269.001 508.599C266.701 508.599 265.401 507.499 265.301 505.099C265.301 504.299 265.301 503.599 265.301 502.799C265.401 485.699 265.601 468.599 265.701 451.599C265.701 444.299 265.401 436.999 265.301 429.699C265.301 424.199 265.401 424.099 270.701 424.099C297.301 424.099 323.901 424.199 350.501 424.199C365.901 424.199 381.401 424.299 396.801 423.999C400.701 423.899 402.901 425.199 404.401 428.699C405.801 431.899 407.401 434.899 408.901 437.999C410.701 441.999 411.401 442.399 415.301 440.499C422.901 436.899 430.501 433.199 438.401 430.199C452.101 424.999 465.901 420.599 480.301 417.799C496.301 414.699 512.401 413.599 528.601 414.799C544.901 415.999 561.101 418.099 576.701 423.699C600.901 432.399 619.601 447.399 632.001 470.099C636.801 478.899 640.301 488.099 643.001 497.799C645.601 507.099 647.401 516.599 648.501 525.999C650.201 540.499 651.001 555.199 650.801 569.799C650.601 580.999 650.801 592.099 650.801 603.299C650.701 635.699 650.701 668.099 650.601 700.499C650.601 706.499 650.501 712.399 650.501 718.399C650.501 723.399 650.701 723.499 655.601 723.499C670.801 723.499 686.101 723.499 701.301 723.499C706.301 723.499 706.401 723.599 706.401 728.599C706.401 753.699 706.401 778.799 706.401 803.899C706.401 808.399 706.401 808.499 701.401 808.499C674.401 808.499 647.401 808.499 620.301 808.499C597.701 808.499 575.101 808.499 552.601 808.499C546.901 808.499 546.901 808.499 546.901 802.899C547.001 762.099 547.001 721.399 547.001 680.599Z" fill="#050808"/>
<path d="M753.1 613.998C753.1 597.998 753.1 581.998 753.1 565.898C753.2 546.798 755.6 527.998 761 509.498C765.1 495.698 770.9 482.798 779.3 471.298C787.4 460.198 797.5 450.998 809 443.398C824.6 433.098 841.9 426.998 859.9 422.498C875.8 418.498 892 416.598 908.4 415.498C924.2 414.498 940 413.798 955.8 414.898C965.2 415.498 974.7 415.298 984 416.698C993.2 418.098 1002.4 418.098 1011.5 419.498C1019.5 420.698 1027.6 421.398 1035.6 422.598C1047.4 424.298 1059.2 425.798 1070.9 428.298C1073.3 428.798 1075.9 428.998 1078.3 429.498C1080.7 429.898 1082 431.198 1081.8 433.898C1081.6 437.898 1081.6 441.998 1081.6 445.998C1081.7 482.198 1081.8 518.498 1081.9 554.698C1081.9 559.798 1081.5 560.398 1076.4 560.398C1045.3 560.398 1014.3 560.398 983.2 560.398C978.3 560.398 978.3 560.298 978.2 555.098C978.2 539.498 978.2 523.798 978.2 508.198C978.2 501.498 978.2 501.598 971.8 500.798C958.2 498.998 944.5 498.598 930.9 499.598C915 500.798 899.8 504.798 886.8 514.498C873.9 524.198 865.9 537.098 861.3 552.598C856.9 567.698 856.7 582.998 856.8 598.398C856.9 612.098 856.8 625.798 856.8 639.498C856.8 649.698 857.8 659.798 861.1 669.598C866.4 685.398 875.7 698.098 889.8 707.298C902 715.298 915.5 719.198 929.6 721.798C938.6 723.498 947.6 723.698 956.6 723.598C971.1 723.498 985.5 723.498 1000 723.498C1010.4 723.598 1020.7 721.798 1031.1 721.698C1041.5 721.598 1051.8 719.898 1062.2 718.898C1068.9 718.298 1075.6 717.498 1082.1 715.698C1083 715.398 1084 715.298 1084.9 715.198C1090.6 714.498 1090.8 714.598 1090.8 720.298C1090.8 743.298 1090.8 766.198 1090.8 789.198C1090.8 794.798 1090.6 794.898 1085.2 795.698C1073.6 797.498 1062.1 799.698 1050.5 801.398C1041.9 802.598 1033.2 802.998 1024.7 804.298C1011.5 806.298 998.2 806.298 985 807.498C971.8 808.698 958.4 808.398 945.1 808.598C927.7 808.898 910.4 807.898 893.2 805.998C876.6 804.198 860.2 801.298 844.1 796.398C829.8 792.098 816.3 786.298 803.9 778.298C786.9 767.298 774.1 752.398 765.9 733.598C762.4 725.498 759.4 717.198 757.7 708.598C755.1 694.998 753 681.298 753 667.398C753.1 649.498 753 631.698 753.1 613.998Z" fill="#050808"/>
<path d="M58.8005 541.198C58.8005 482.698 58.8005 424.198 58.8005 365.798C58.8005 358.898 58.8005 358.898 52.1005 358.898C40.5005 358.898 28.9005 358.898 17.4005 358.798C11.9005 358.798 12.0005 358.598 12.0005 353.298C12.1005 329.198 12.1005 305.098 12.1005 280.898C12.1005 273.898 12.1005 273.898 18.9005 273.898C80.7005 273.898 142.4 273.898 204.2 273.898C209.4 273.898 209.4 273.898 209.4 278.898C209.4 303.798 209.4 328.698 209.4 353.598C209.4 358.798 209.3 358.898 203.8 358.898C191.8 358.898 179.9 358.898 167.9 358.898C162.6 358.898 162.6 358.898 162.6 364.398C162.6 395.698 162.7 426.898 162.7 458.198C162.7 511.498 162.6 564.698 162.6 617.998C162.6 650.998 162.7 683.998 162.7 716.998C162.7 717.998 162.8 718.898 162.7 719.898C162.4 722.698 163.8 723.598 166.5 723.598C175.4 723.498 184.3 723.598 193.1 723.598C200 723.598 207 723.498 213.9 723.598C219.1 723.598 219.1 723.698 219.1 728.698C219.1 742.598 219.1 756.498 219.1 770.398C219.1 780.998 219.1 791.599 219.1 802.198C219.1 808.398 219.1 808.398 212.6 808.398C179.201 808.398 145.8 808.398 112.4 808.398C78.0005 808.398 43.7005 808.398 9.30048 808.398C1.70048 808.398 3.00048 808.098 3.00048 802.298C3.00048 778.398 3.00048 754.398 3.00048 730.498C3.00048 729.498 3.10048 728.598 3.00048 727.598C2.70048 724.698 3.60048 723.198 6.80048 723.498C8.50048 723.698 10.3005 723.498 12.0005 723.498C25.9005 723.498 39.8005 723.498 53.7005 723.498C58.7005 723.498 58.7005 723.398 58.7005 718.398C58.8005 659.398 58.8005 600.298 58.8005 541.198Z" fill="#050808"/>
<path d="M1916.1 468.199C1917.3 470.199 1916.9 472.199 1916.9 474.099C1916.9 555.099 1916.9 636.199 1916.9 717.199C1916.9 718.399 1916.9 719.499 1916.9 720.699C1916.9 722.799 1915.7 723.899 1913.7 723.899C1913.3 723.899 1912.9 723.899 1912.5 723.899C1897.8 724.099 1883.2 724.599 1868.5 724.299C1857.7 724.099 1846.9 723.599 1836.1 723.999C1826.7 724.299 1817.2 724.699 1807.8 724.399C1797 724.099 1786.2 723.599 1775.4 723.999C1764.4 724.299 1753.4 724.799 1742.4 724.399C1731.2 723.999 1720 723.899 1708.9 723.899C1701.8 723.999 1694.7 724.799 1687.5 724.299C1681 723.899 1680.8 723.599 1681.6 716.999C1683.5 700.399 1692 687.999 1705.4 678.499C1718.2 669.399 1732.3 662.799 1746.4 656.099C1757.9 650.599 1769.3 645.099 1780.5 639.199C1794.6 631.799 1808.4 623.699 1821.7 614.799C1835.3 605.699 1848.5 596.099 1860.3 584.599C1869.5 575.599 1877.9 565.799 1885.4 555.199C1895.5 540.699 1902.6 524.799 1907.9 508.099C1910.3 500.499 1912.4 492.499 1912.8 484.499C1913.1 478.699 1915.8 473.599 1916.1 468.199Z" fill="#EE2839"/>
</svg>
