<svg width="1920" height="1080" viewBox="0 0 1920 1080" fill="none" xmlns="http://www.w3.org/2000/svg">
<g clip-path="url(#clip0_5822_2801)">
<path d="M917.381 156.003C914.512 154.501 911.629 152.909 908.805 151.347C877.461 149.184 846.056 149.845 814.637 150.957C813.285 149.455 811.933 147.863 810.582 146.346C813.21 111.802 811.257 77.2589 811.603 42.7154C811.708 30.475 813.3 18.0844 810.356 5.90411C811.858 4.40222 813.255 2.90033 814.667 1.39844C815.809 1.76503 816.987 2.00674 818.181 2.11934C896.039 2.11934 973.907 2.06928 1051.79 1.96916C1070.47 1.96916 1070.51 1.96916 1070.51 20.2021C1070.51 295.629 1070.54 571.07 1070.6 846.527C1070.6 856.8 1068.65 867.133 1070.9 877.391C1070.51 881.28 1070.12 885.17 1069.73 889.03C1061.53 905.551 1059.93 924.49 1051.39 941.041C1031.87 979.023 1007.1 1012.38 971.149 1036.73C936.605 1060.11 900.56 1078.36 857.666 1079.67C818.617 1080.85 779.928 1079.67 743.883 1063.01C705.705 1045.29 677.8 1015.94 655.842 980.405C652.087 974.398 654.34 970.508 658.47 966.362C670.17 954.663 681.75 942.858 693.464 931.158C714.821 909.821 736.228 888.53 757.685 867.283C761.755 863.258 767.928 857.581 771.067 866.457C773.501 872.803 776.57 878.886 780.228 884.615C795.788 910.853 814.051 930.708 848.88 929.927C868.72 929.476 881.711 920.915 894.372 908.6L899.028 904.094C912.545 892.304 918.552 876.91 918.552 859.413C918.613 629.013 918.557 398.608 918.387 168.198C918.447 164.143 919.469 159.908 917.381 156.003Z" fill="#A9ABAE"/>
<path d="M761.368 461.969C761.368 555.597 761.368 649.215 761.368 742.823C761.368 760.665 761.368 760.635 743.345 760.62C701.502 760.62 659.66 760.215 617.832 760.906C606.418 761.086 602.423 757.782 602.438 746.367C602.648 556.208 602.648 366.054 602.438 175.904C602.438 165.782 604.871 161.486 616.525 161.712C659.179 162.553 701.863 162.087 744.531 162.087C761.052 162.087 761.247 162.087 761.247 178.608C761.327 273.057 761.368 367.51 761.368 461.969Z" fill="#A9ABAE"/>
<path d="M680.955 144.873C658.983 144.873 637.01 144.467 615.052 145.053C605.095 145.324 601.941 141.404 602.001 131.972C602.261 92.1817 602.261 52.3916 602.001 12.6016C602.001 3.72539 604.704 -0.0593722 614.106 0.000703418C659.283 0.321107 704.465 0.321107 749.652 0.000703418C758.768 0.000703418 762.072 3.10962 761.997 12.3012C761.667 52.0912 761.667 91.8813 761.997 131.671C762.102 142.094 758.212 145.309 748.075 145.038C725.742 144.452 703.333 144.873 680.955 144.873Z" fill="#ED3237"/>
<path d="M1317.53 389H702.531V503H1317.53V389Z" fill="#1A1A1A"/>
<path d="M742.833 418.719V472.984H732.254V418.719H742.833ZM750.527 472.984V417.28H758.156L786.728 455.208H786.872V418.719H797.452V474.064H789.823L761.251 436.136H761.107V472.984H750.527ZM805.137 472.984V418.719H820.251C835.94 418.719 846.448 430.45 846.448 445.924C846.448 461.181 835.653 472.984 820.179 472.984H805.137ZM815.717 427.931V463.772H817.444C830.471 463.772 835.509 456.575 835.509 445.852C835.509 434.049 829.463 427.931 817.444 427.931H815.717ZM862.244 418.719V472.984H851.665V418.719H862.244ZM899.878 461.541H881.022L876.56 472.984H865.404L886.563 417.28H894.768L915.351 472.984H904.052L899.878 461.541ZM896.927 452.905L890.162 433.185H890.018L884.044 452.905H896.927ZM918.574 472.984V417.28H926.203L954.775 455.208H954.919V418.719H965.499V474.064H957.87L929.298 436.136H929.154V472.984H918.574ZM1014.5 418.719V454.56C1014.5 459.598 1014.36 463.916 1011.33 468.306C1008.53 472.409 1004.06 474.424 999.17 474.424C995.212 474.424 991.181 472.121 988.518 469.314L995.284 461.541C995.787 463.124 997.659 465.068 999.386 465.068C1004.57 465.068 1003.92 456.287 1003.92 452.761V418.719H1014.5ZM1050.03 427.931H1032.54V439.878H1049.38V449.09H1032.54V463.772H1050.03V472.984H1021.96V418.719H1050.03V427.931ZM1063.29 418.719L1074.23 455.712H1074.38L1085.17 417.999H1091.43L1102.66 455.712H1102.8L1113.46 418.719H1124.54L1106.19 474.064H1098.41L1087.62 438.583H1087.47L1077.25 474.064H1069.48L1052.21 418.719H1063.29ZM1155.45 427.931H1137.97V439.878H1154.81V449.09H1137.97V463.772H1155.45V472.984H1127.39V418.719H1155.45V427.931ZM1173.11 418.719V463.772H1188.08V472.984H1162.53V418.719H1173.11ZM1202.06 418.719V463.772H1217.03V472.984H1191.48V418.719H1202.06ZM1248.51 427.931H1231.02V439.878H1247.86V449.09H1231.02V463.772H1248.51V472.984H1220.44V418.719H1248.51V427.931ZM1276.96 450.098L1292.29 472.984H1279.48L1266.31 451.105H1266.16V472.984H1255.58V418.719H1269.9C1280.63 418.719 1288.04 423.469 1288.04 435.056C1288.04 441.965 1284.23 448.874 1276.96 450.098ZM1266.16 427.355V443.693H1267.53C1273.36 443.693 1277.46 441.965 1277.46 435.344C1277.46 428.651 1273.21 427.355 1267.6 427.355H1266.16Z" fill="white"/>
<path d="M713.274 525.228V544.096H708.843V525.228H704.262V521.37H717.855V525.228H713.274ZM723.918 530.322H732.116V521.37H736.547V544.096H732.116V533.939H723.918V544.096H719.488V521.37H723.918V530.322ZM751.551 525.228H744.227V530.231H751.28V534.089H744.227V540.238H751.551V544.096H739.797V521.37H751.551V525.228ZM774.498 525.228H767.656V530.231H774.076V534.089H767.656V544.096H763.226V521.37H774.498V525.228ZM787.92 539.303H780.024L778.155 544.096H773.483L782.344 520.767H785.78L794.4 544.096H789.668L787.92 539.303ZM786.684 535.687L783.851 527.428H783.791L781.289 535.687H786.684ZM810.941 522.094V527.398C809.705 525.891 807.836 524.987 805.937 524.987C801.688 524.987 799.246 528.905 799.246 532.823C799.246 536.651 801.778 540.479 805.907 540.479C807.806 540.479 809.705 539.484 810.941 538.068V543.342C809.283 544.126 807.625 544.699 805.787 544.699C799.397 544.699 794.665 539.183 794.665 532.914C794.665 526.464 799.216 520.767 805.877 520.767C807.655 520.767 809.403 521.25 810.941 522.094ZM825.606 525.228H818.282V530.231H825.335V534.089H818.282V540.238H825.606V544.096H813.852V521.37H825.606V525.228ZM858.68 532.703C858.68 539.394 854.37 544.699 847.438 544.699C840.506 544.699 836.196 539.394 836.196 532.703C836.196 525.951 840.657 520.767 847.438 520.767C854.22 520.767 858.68 525.951 858.68 532.703ZM854.099 532.522C854.099 528.845 851.627 525.138 847.438 525.138C843.249 525.138 840.777 528.845 840.777 532.522C840.777 536.018 842.525 540.328 847.438 540.328C852.351 540.328 854.099 536.018 854.099 532.522ZM872.13 525.228H865.288V530.231H871.708V534.089H865.288V544.096H860.857V521.37H872.13V525.228ZM887.952 521.37V544.096H883.521V521.37H887.952ZM891.174 544.096V520.767H894.369L906.334 536.651H906.394V521.37H910.825V544.548H907.63L895.665 528.664H895.604V544.096H891.174ZM914.044 544.096V521.37H920.373C926.944 521.37 931.344 526.283 931.344 532.763C931.344 539.153 926.823 544.096 920.343 544.096H914.044ZM918.474 525.228V540.238H919.198C924.653 540.238 926.763 537.224 926.763 532.733C926.763 527.79 924.231 525.228 919.198 525.228H918.474ZM937.959 521.37V544.096H933.529V521.37H937.959ZM953.72 539.303H945.823L943.954 544.096H939.283L948.144 520.767H951.58L960.2 544.096H955.468L953.72 539.303ZM952.484 535.687L949.651 527.428H949.59L947.089 535.687H952.484ZM961.549 544.096V520.767H964.744L976.71 536.651H976.77V521.37H981.201V544.548H978.006L966.04 528.664H965.98V544.096H961.549ZM1001.72 521.37V536.38C1001.72 538.49 1001.66 540.298 1000.4 542.137C999.22 543.855 997.351 544.699 995.302 544.699C993.644 544.699 991.956 543.734 990.841 542.559L993.674 539.303C993.885 539.967 994.669 540.78 995.392 540.78C997.562 540.78 997.291 537.103 997.291 535.626V521.37H1001.72ZM1016.6 525.228H1009.28V530.231H1016.33V534.089H1009.28V540.238H1016.6V544.096H1004.85V521.37H1016.6V525.228ZM1022.16 521.37L1026.74 536.862H1026.8L1031.32 521.069H1033.94L1038.64 536.862H1038.7L1043.16 521.37H1047.8L1040.12 544.548H1036.86L1032.34 529.689H1032.28L1028 544.548H1024.75L1017.51 521.37H1022.16ZM1060.75 525.228H1053.43V530.231H1060.48V534.089H1053.43V540.238H1060.75V544.096H1049V521.37H1060.75V525.228ZM1068.14 521.37V540.238H1074.41V544.096H1063.71V521.37H1068.14ZM1080.27 521.37V540.238H1086.54V544.096H1075.84V521.37H1080.27ZM1099.72 525.228H1092.4V530.231H1099.45V534.089H1092.4V540.238H1099.72V544.096H1087.97V521.37H1099.72V525.228ZM1111.64 534.511L1118.05 544.096H1112.69L1107.17 534.933H1107.11V544.096H1102.68V521.37H1108.68C1113.17 521.37 1116.28 523.359 1116.28 528.212C1116.28 531.105 1114.68 533.999 1111.64 534.511ZM1107.11 524.987V531.829H1107.69C1110.13 531.829 1111.85 531.105 1111.85 528.332C1111.85 525.529 1110.07 524.987 1107.72 524.987H1107.11ZM1123.84 533.667L1116.79 521.37H1121.95L1125.92 529.267L1130.26 521.37H1135.45L1128.27 533.667V544.096H1123.84V533.667ZM1149.73 521.37V544.096H1145.3V521.37H1149.73ZM1152.96 544.096V520.767H1156.15L1168.12 536.651H1168.18V521.37H1172.61V544.548H1169.41L1157.45 528.664H1157.39V544.096H1152.96ZM1175.83 544.096V521.37H1182.16C1188.73 521.37 1193.13 526.283 1193.13 532.763C1193.13 539.153 1188.61 544.096 1182.13 544.096H1175.83ZM1180.26 525.228V540.238H1180.98C1186.44 540.238 1188.55 537.224 1188.55 532.733C1188.55 527.79 1186.01 525.228 1180.98 525.228H1180.26ZM1195.19 534.963V521.37H1199.62V534.089C1199.62 536.892 1199.86 540.841 1203.63 540.841C1207.4 540.841 1207.64 536.892 1207.64 534.089V521.37H1212.07V534.963C1212.07 540.509 1209.72 544.699 1203.63 544.699C1197.54 544.699 1195.19 540.509 1195.19 534.963ZM1227.99 523.299L1225.91 526.373C1225.06 525.228 1223.98 524.505 1222.5 524.505C1221.09 524.505 1219.73 525.59 1219.73 527.067C1219.73 530.894 1228.74 529.297 1228.74 536.922C1228.74 541.474 1225.91 544.699 1221.27 544.699C1218.13 544.699 1215.84 542.89 1214.27 540.268L1217.14 537.465C1217.74 539.213 1219.34 540.78 1221.24 540.78C1223.04 540.78 1224.16 539.243 1224.16 537.495C1224.16 535.144 1221.99 534.481 1220.21 533.788C1217.29 532.582 1215.15 531.105 1215.15 527.579C1215.15 523.811 1217.95 520.767 1221.78 520.767C1223.8 520.767 1226.6 521.762 1227.99 523.299ZM1238.46 525.228V544.096H1234.03V525.228H1229.45V521.37H1243.04V525.228H1238.46ZM1253.62 534.511L1260.04 544.096H1254.68L1249.16 534.933H1249.1V544.096H1244.67V521.37H1250.67C1255.16 521.37 1258.26 523.359 1258.26 528.212C1258.26 531.105 1256.67 533.999 1253.62 534.511ZM1249.1 524.987V531.829H1249.67C1252.12 531.829 1253.83 531.105 1253.83 528.332C1253.83 525.529 1252.06 524.987 1249.7 524.987H1249.1ZM1265.83 533.667L1258.78 521.37H1263.93L1267.91 529.267L1272.25 521.37H1277.44L1270.26 533.667V544.096H1265.83V533.667Z" fill="black"/>
</g>
<defs>
<clipPath id="clip0_5822_2801">
<rect width="1920" height="1080" fill="white"/>
</clipPath>
</defs>
</svg>
