<svg width="1920" height="1080" viewBox="0 0 1920 1080" fill="none" xmlns="http://www.w3.org/2000/svg">
<g clip-path="url(#clip0_16878_14236)">
<path d="M1919.78 569.07C1919.41 582.227 1920.87 598.287 1919.11 614.206C1916.9 634.257 1907.46 652.815 1892.55 666.407C1882.89 675.575 1870.98 682.044 1858.03 685.168C1846.44 688.173 1834.38 688.999 1822.48 687.604C1813.99 686.488 1805.49 685.432 1797.55 682.122C1783.7 676.336 1771.15 668.62 1762.34 655.991C1761.45 654.712 1760.62 653.372 1759.66 652.113C1755.09 646.022 1755.19 645.068 1761.51 641.23C1766.69 638.083 1772.27 635.748 1777.41 632.459C1780.96 630.185 1782.52 630.814 1785.14 634.489C1790.95 643.151 1799.2 649.899 1808.84 653.879C1821.34 658.671 1834.18 660.742 1847.66 656.336C1855.87 654.027 1863.43 649.858 1869.77 644.154C1880.37 633.897 1886.82 620.089 1887.88 605.373C1888.31 601.13 1888.39 596.846 1888.49 592.562C1888.49 591.1 1889 589.13 1886.89 588.643C1885.3 588.277 1884.65 589.76 1883.86 590.836C1878.48 597.778 1871.46 603.276 1863.43 606.835C1855.83 610.779 1847.41 612.925 1838.85 613.109H1830.05C1806.83 613.251 1787.92 603.769 1772.25 587.12C1763.94 578.517 1757.93 567.969 1754.75 556.441C1751.34 543.507 1749.67 530.249 1752.31 516.442C1756.86 492.707 1769.43 474.839 1788.86 461.418C1796.13 456.549 1804.19 452.965 1812.67 450.82C1823.1 447.94 1833.97 447.031 1844.73 448.14C1868.12 450.515 1887.68 460.322 1902.6 478.596C1914.33 492.459 1920.5 510.172 1919.94 528.32C1919.49 541.03 1919.78 553.639 1919.78 569.07ZM1835.84 582.389C1865.18 583.425 1887.43 557.334 1887.66 530.492C1887.92 503.021 1864.1 478.413 1834.87 478.9C1828.08 478.959 1821.36 480.354 1815.11 483.007C1808.86 485.66 1803.19 489.519 1798.43 494.362C1793.67 499.206 1789.91 504.94 1787.36 511.237C1784.82 517.533 1783.54 524.27 1783.6 531.061C1783.84 559.791 1808.61 583.811 1835.84 582.389Z" fill="#DA1E30"/>
<path d="M776.766 375.09C803.567 375.09 830.388 374.887 857.21 375.09C867.261 375.082 877.213 377.082 886.481 380.973C895.748 384.864 904.145 390.568 911.178 397.749C917.162 403.436 921.861 410.337 924.961 417.988C928.06 425.64 929.487 433.865 929.147 442.114C928.639 456.875 922.325 469.504 912.66 480.387C905.761 488.466 897.18 494.941 887.518 499.36C877.857 503.779 867.347 506.034 856.722 505.969C837.576 506.152 818.429 506.863 799.283 506.213C797.943 506.213 796.44 505.969 795.729 507.452C794.856 509.259 796.115 510.538 797.333 511.512C801.394 514.456 805.455 517.279 809.516 520.101L896.457 580.546C902.731 584.891 909.005 589.236 915.36 593.5C917.837 595.144 918.792 596.911 916.863 599.591C912.396 605.804 908.112 612.159 903.482 618.23C900.396 622.291 899.219 622.149 895.097 619.286L823.14 569.196C807.262 558.151 791.202 547.389 775.689 535.877C765.152 528.06 759.324 517.096 760.888 503.675C762.573 489.462 772.461 478.336 787.486 475.047C790.838 474.469 794.239 474.231 797.638 474.336C817.231 474.092 836.845 474.336 856.418 473.585C872.133 472.955 884.843 466.133 893.249 452.164C898.549 443.271 897.026 430.479 889.31 422.094C885.121 417.503 879.999 413.86 874.288 411.409C868.577 408.958 862.408 407.755 856.195 407.881C814.044 407.638 771.913 407.881 729.762 407.881H690.352C684.078 407.881 683.286 407.13 683.225 400.978C683.164 394.826 683.225 388.369 683.225 382.055C683.225 375.74 683.814 375.171 690.19 375.171H776.766V375.09Z" fill="#DA1E30"/>
<path d="M403.582 463.144C403.582 485.661 403.704 508.199 403.582 530.716C403.318 566.573 386.872 592.541 354.71 608.074C342.156 613.831 328.34 616.291 314.57 615.221C284.012 613.475 260.825 599.181 244.907 573.111C237.377 560.482 233.629 545.959 234.105 531.264C234.268 517.904 236.318 504.869 242.43 492.687C250.512 476.204 264.049 463.025 280.743 455.388C295.739 448.472 312.433 446.101 328.762 448.566C341.998 450.346 354.389 456.077 364.314 465.012C365.055 465.849 365.871 466.617 366.751 467.307C368.781 468.505 370.223 468.078 370.629 465.601C370.7 464.702 370.7 463.799 370.629 462.901C370.629 437.02 370.581 411.126 370.487 385.218C370.487 379.736 371.197 378.761 376.436 378.66C383.867 378.518 391.298 378.538 398.77 378.66C402.831 378.761 403.765 379.797 403.765 384.061V463.104L403.582 463.144ZM370.426 531.873C371.766 503.448 348.091 479.083 319.158 478.819C290.225 478.555 266.713 503.184 266.53 531.081C266.348 558.979 287.748 584.521 318.691 584.603C349.635 584.684 371.664 558.959 370.365 531.873H370.426Z" fill="#0A0A0A"/>
<path d="M1362.48 566.735V603.282C1362.48 610.348 1361.75 611.099 1354.82 611.14C1348.97 611.14 1343.11 611.14 1337.26 611.14C1332.53 611.14 1331.17 609.84 1331.31 605.15C1331.31 599.973 1331.63 594.795 1331.78 589.618C1331.78 588.724 1331.66 587.709 1330.7 587.323C1330.28 587.167 1329.81 587.156 1329.38 587.292C1328.95 587.428 1328.58 587.703 1328.33 588.075C1326.94 589.577 1325.58 591.059 1324.26 592.623C1316.34 602.278 1305.54 609.161 1293.44 612.277C1282.76 615.099 1271.62 615.755 1260.67 614.206C1239.88 611.241 1223.62 601.231 1210.7 585.191C1204.67 577.404 1199.99 568.651 1196.88 559.304C1191.4 543.934 1191.7 528.158 1194.36 512.605C1196.67 500.886 1201.83 489.913 1209.36 480.646C1218.99 467.768 1232.23 458.037 1247.39 452.688C1264.27 446.8 1282.52 446.093 1299.8 450.657C1315.12 454.419 1329.03 462.536 1339.84 474.027C1349.87 484.406 1356.75 497.427 1359.65 511.569C1361.65 521.259 1362.6 531.137 1362.48 541.03C1362.35 549.599 1362.48 558.146 1362.48 566.715V566.735ZM1277.99 478.88C1250.09 476.85 1226.24 503.062 1225.2 528.32C1223.9 557.923 1246.76 583.648 1276.9 583.892C1307.03 584.136 1328.24 559.527 1329.18 533.132C1330.15 503.915 1306.15 477.885 1277.99 478.88Z" fill="#DA1E30"/>
<path d="M650.171 563.466C650.171 577.002 650.171 590.538 650.171 604.074C650.171 610.855 649.318 611.606 642.334 611.546C636.709 611.546 631.065 611.647 625.441 611.546C620.162 611.546 619.228 610.49 619.207 605.109C619.207 600.602 619.39 596.115 619.451 591.607C619.451 590.267 619.451 588.764 617.745 588.419C617.183 588.349 616.613 588.456 616.114 588.725C615.615 588.994 615.213 589.413 614.964 589.922C607.776 600.297 597.746 606.855 586.132 611.119C577.458 614.335 568.229 615.791 558.986 615.403C526.5 613.982 503.13 598.145 489.222 569.232C480.332 551.308 478.268 530.761 483.415 511.427C490.237 485.032 505.749 466.514 530.479 455.225C543.225 449.552 557.171 447.105 571.087 448.099C598.159 449.52 619.695 461.154 635.694 483.001C645.229 495.928 650.296 511.608 650.13 527.67C650.13 539.609 650.13 551.547 650.13 563.466H650.171ZM565.808 478.758C538.763 477.743 513.383 501.823 513.688 531.913C513.992 558.938 534.885 584.115 565.463 584.074C597.462 584.074 617.867 559.385 617.989 531.284C618.091 501.803 593.482 478.088 565.808 478.758Z" fill="#0A0A0A"/>
<path d="M1007.26 539.836H950.411C944.95 539.836 943.488 541.481 945.213 546.861C949.274 559.368 955.934 570.069 967.142 577.48C978.473 585.058 992.322 587.893 1005.72 585.378C1019.55 582.962 1031.57 576.424 1039.83 564.343C1042.69 560.14 1042.86 560.079 1047.34 562.313C1052.8 564.911 1058.16 567.754 1063.59 570.536C1067.18 572.383 1067.5 573.155 1065.45 576.728C1059.97 586.351 1052.41 594.633 1043.32 600.971C1026.29 612.89 1007.24 615.854 986.857 614.108C971.549 612.868 956.9 607.345 944.584 598.169C934.835 590.851 926.906 581.38 921.417 570.495C913.133 554.78 911.895 538.009 913.174 520.75C913.779 510.289 916.489 500.057 921.144 490.669C925.798 481.28 932.3 472.928 940.259 466.112C952.868 454.945 967.548 448.245 984.745 447.839C992.176 447.676 999.689 447.047 1007.08 448.143C1016.92 449.415 1026.38 452.758 1034.84 457.952C1043.29 463.145 1050.55 470.072 1056.13 478.274C1068.05 495.35 1072.03 514.659 1070.98 535.125C1070.75 539.308 1069.96 539.877 1064.66 539.877C1048.66 539.877 1032.66 539.877 1016.66 539.877H1007.2L1007.26 539.836ZM991.973 517.969V518.151C1005.27 518.151 1018.55 518.151 1031.85 518.151C1036.22 518.151 1037.43 516.974 1036.97 512.548C1035.95 503.319 1031.62 494.773 1024.78 488.487C1016.68 480.809 1005.9 476.586 994.735 476.711C976.624 476.427 961.294 482.376 952.097 499.655C950.379 503.289 948.867 507.017 947.569 510.822C945.112 516.913 945.538 517.908 952.056 517.928C965.396 517.989 978.695 517.969 991.973 517.969Z" fill="#DA1E30"/>
<path d="M606.051 375.395C618.436 375.395 630.822 375.578 643.207 375.395C645.194 375.221 647.191 375.595 648.98 376.475C650.77 377.356 652.284 378.71 653.359 380.39C669.602 403.008 686.17 425.464 702.617 447.981C712.423 461.402 722.189 474.884 732.098 488.244C733.524 489.938 734.535 491.942 735.05 494.096C735.564 496.25 735.569 498.494 735.062 500.65C732.687 512.832 731.448 525.116 729.763 537.359C729.713 538.49 729.591 539.615 729.397 540.73C725.804 553.785 726.331 567.592 722.393 580.587C722.123 581.449 721.972 582.343 721.946 583.246C721.946 584.607 721.946 586.129 723.53 586.576C725.113 587.023 725.438 585.663 726.027 584.749C734.149 572.059 742.9 559.816 749.742 546.395C750.477 544.979 751.319 543.622 752.26 542.334C752.468 541.929 752.764 541.576 753.127 541.3C753.49 541.025 753.91 540.835 754.356 540.743C754.802 540.652 755.263 540.661 755.705 540.771C756.147 540.882 756.558 541.089 756.909 541.38C763.183 545.745 770.005 549.176 776.563 553.095C780.624 555.572 781.193 557.44 779.345 560.729C769.171 578.732 757.887 596.085 745.559 612.687C731.184 632.057 702.596 628.118 692.18 606.596C689.003 599.786 688.064 592.145 689.5 584.769C691.693 572.83 693.277 560.79 695.084 548.791C697.114 535.877 698.475 522.883 701.175 510.112C701.728 507.739 701.725 505.271 701.165 502.9C700.605 500.53 699.503 498.321 697.947 496.447C688.566 483.777 679.308 471.047 670.029 458.316C659.065 443.224 648.121 428.124 637.197 413.018C636.09 411.237 634.513 409.795 632.639 408.853C630.766 407.911 628.668 407.504 626.578 407.678C607.208 408.165 587.818 407.922 568.448 407.901C562.235 407.901 561.545 407.069 561.545 400.775C561.545 394.481 561.545 387.719 561.545 381.181C561.545 376.105 562.255 375.375 567.473 375.334C580.306 375.334 593.158 375.334 606.051 375.334V375.395Z" fill="#0A0A0A"/>
<path d="M223.013 563.833C223.013 577.369 223.013 590.905 223.013 604.441C223.013 610.796 222.363 611.507 216.17 611.547C209.653 611.547 203.115 611.547 196.577 611.547C190.587 611.547 189.775 610.593 189.775 604.319C189.775 580.442 189.775 556.564 189.775 532.707C189.944 521.627 187.087 510.711 181.512 501.135C176.193 492.019 167.819 485.081 157.874 481.55C147.928 478.02 137.054 478.124 127.178 481.846C113.514 486.841 105.392 496.81 100.235 510.028C97.2382 518.529 95.8608 527.516 96.174 536.524C96.174 559.041 96.174 581.558 96.174 604.075C96.174 610.715 95.4431 611.527 88.9661 611.568C82.4892 611.608 76.3574 611.568 70.0429 611.568C64.2562 611.568 63.2613 610.512 63.2613 604.928C63.2613 578.533 62.7943 552.24 63.4847 525.905C63.9923 506.434 69.7789 488.262 82.611 473.115C91.5802 462.65 103.428 455.053 116.681 451.268C129.908 447.368 143.845 446.507 157.451 448.75C185.735 453.075 206.181 468.445 216.475 495.835C220.912 507.643 223.102 520.176 222.932 532.788C222.932 543.143 222.932 553.519 222.932 563.874L223.013 563.833Z" fill="#0A0A0A"/>
<path d="M1739.58 563.834V603.021C1739.58 610.432 1738.83 611.143 1731.46 611.143C1725.82 611.143 1720.19 611.143 1714.55 611.143C1708.46 611.143 1707.64 610.351 1707.62 604.097C1707.62 584.727 1707.62 565.357 1707.62 545.987C1707.62 540.81 1707.79 535.612 1707.46 530.455C1706.92 515.956 1701.23 502.124 1691.4 491.451C1680.4 479.512 1658.12 475.959 1643.85 481.705C1627.75 488.182 1619.48 500.364 1615.3 516.587C1613.39 524.686 1612.55 533 1612.78 541.317C1612.78 562.048 1612.78 582.778 1612.78 603.488C1612.78 610.473 1612.05 611.163 1605.05 611.143C1598.96 611.143 1592.87 611.143 1586.77 611.143C1582.39 611.143 1581.25 610.046 1580.8 605.721C1580.75 604.822 1580.75 603.92 1580.8 603.021C1580.8 578.656 1580.8 554.292 1580.8 530.049C1580.8 512.831 1584.36 496.446 1593.33 481.745C1600.26 470.557 1610.21 461.55 1622.02 455.756C1638.49 447.452 1656.17 445.95 1673.96 448.528C1703.03 452.65 1723.34 468.934 1734.02 496.364C1737.9 506.456 1739.79 517.206 1739.58 528.018C1739.42 539.957 1739.58 551.896 1739.58 563.834Z" fill="#DA1E30"/>
<path d="M1129.14 522.983C1129.14 534.699 1129.04 546.414 1129.14 558.109C1129.32 572.85 1142.5 585.459 1157.56 585.52C1166.79 585.736 1175.91 583.463 1183.96 578.941C1188.02 576.626 1189.77 577.621 1189.85 582.291C1189.97 588.585 1189.85 594.9 1189.85 601.194C1189.9 602.905 1189.44 604.592 1188.5 606.026C1187.57 607.461 1186.22 608.574 1184.63 609.214C1172.82 614.809 1159.65 616.861 1146.7 615.123C1137.77 613.762 1129.14 611.793 1121.48 606.494C1112.51 600.461 1105.43 592.014 1101.06 582.129C1097 573.195 1096.14 563.957 1096.02 554.576C1095.76 532.729 1096.02 510.882 1096.02 489.035C1096.02 488.365 1096.02 487.695 1096.02 487.005C1096.02 480.69 1095.21 479.939 1089.08 479.939C1082.95 479.939 1076.9 480.061 1070.81 479.939C1065.12 479.939 1064.19 478.68 1064.33 473.158C1064.47 467.98 1064.53 462.803 1064.43 457.625C1064.33 452.448 1064.8 451.534 1070.36 451.351C1075.92 451.168 1082.05 451.351 1087.92 451.351C1088.81 451.351 1089.73 451.493 1090.62 451.453C1095.23 451.229 1095.96 450.519 1095.96 445.808C1095.96 436.347 1095.96 426.905 1095.96 417.383C1095.96 410.52 1096.88 409.627 1103.74 409.586C1109.83 409.586 1115.92 409.586 1122.01 409.586C1128.1 409.586 1129.08 410.256 1129.12 416.469C1129.12 425.944 1129.12 435.419 1129.12 444.894C1129.12 451.29 1129.12 451.392 1135.21 451.371C1150.98 451.371 1166.74 451.371 1182.5 451.371C1183.63 451.371 1184.75 451.371 1185.89 451.371C1186.45 451.317 1187.02 451.387 1187.56 451.575C1188.1 451.763 1188.59 452.066 1188.99 452.462C1189.4 452.858 1189.72 453.337 1189.92 453.868C1190.12 454.398 1190.21 454.967 1190.17 455.534C1190.17 462.051 1190.17 468.589 1190.17 475.107C1190.29 475.781 1190.24 476.472 1190.04 477.125C1189.84 477.779 1189.48 478.374 1189.01 478.864C1188.53 479.353 1187.94 479.722 1187.29 479.941C1186.65 480.16 1185.96 480.222 1185.28 480.122C1183.92 480.122 1182.58 480.122 1181.22 480.122H1135.29C1129.2 480.122 1128.87 480.345 1128.85 486.578C1128.85 498.761 1128.85 510.943 1128.85 523.126L1129.14 522.983Z" fill="#DA1E30"/>
<path d="M1454.45 493.441V384.023C1454.45 379.495 1455.24 378.602 1459.93 378.541C1466.67 378.541 1473.44 378.541 1480.24 378.541C1486.11 378.541 1486.94 379.455 1486.94 385.16C1486.94 457.875 1486.94 530.59 1486.94 603.306C1486.94 610.087 1485.9 611.082 1479.14 611.062H1460.87C1455.43 611.062 1454.78 610.392 1454.59 604.828C1454.59 602.351 1454.59 599.874 1454.59 597.397V493.441H1454.45Z" fill="#DA1E30"/>
<path d="M32.73 502.578V603.976C32.73 610.981 32.0396 611.57 25.0145 611.529C18.6999 611.529 12.4057 611.631 6.09118 611.671C1.48219 611.671 0.121824 610.453 0 605.783C0 603.996 0 602.189 0 600.382C0 533.731 0 467.067 0 400.388C0 394.663 1.0355 393.485 6.41605 393.465C13.1773 393.465 19.9182 393.465 26.72 393.465C31.796 393.465 32.8112 394.622 32.8112 399.921V502.619L32.73 502.578Z" fill="#0A0A0A"/>
<path d="M1520.44 530.679V457.788C1520.44 452.306 1521.03 451.595 1526.53 451.494C1533.52 451.372 1540.5 451.331 1547.47 451.494C1552.81 451.636 1553.66 452.672 1553.66 457.93C1553.66 506.754 1553.66 555.579 1553.66 604.403C1553.66 610.596 1552.81 611.489 1546.72 611.55C1540.18 611.55 1533.66 611.55 1527.14 611.55C1521.05 611.55 1520.36 610.656 1520.36 604.281C1520.36 579.754 1520.36 555.234 1520.36 530.72L1520.44 530.679Z" fill="#DA1E30"/>
<path d="M1389.5 530.027C1389.5 505.459 1389.5 480.891 1389.5 456.344C1389.5 453.095 1390.84 451.714 1393.8 451.674C1401.46 451.674 1409.11 451.674 1416.79 451.674C1420.1 451.674 1422.17 453.481 1422.06 457.765C1421.72 473.541 1421.9 489.317 1421.9 505.093C1421.9 537.769 1421.9 570.445 1421.9 603.121C1421.9 610.491 1421.19 611.243 1413.78 611.141C1407.93 611.141 1402.07 611.141 1396.2 611.141C1390.33 611.141 1389.7 610.41 1389.7 604.441V549.62C1389.7 543.082 1389.7 536.544 1389.7 530.027H1389.5Z" fill="#DA1E30"/>
<path d="M463.62 530.722C463.62 555.263 463.62 579.817 463.62 604.385C463.62 610.476 462.544 611.511 456.595 611.532C449.834 611.532 443.073 611.532 436.291 611.532C432.23 611.532 431.154 610.374 430.911 606.334C430.789 604.547 430.911 602.74 430.911 600.933V457.648C430.911 452.755 431.418 452.024 436.088 451.963C443.519 451.841 450.951 451.78 458.422 451.963C462.991 452.065 463.641 453.059 463.641 457.75C463.641 482.114 463.641 506.479 463.641 530.844L463.62 530.722Z" fill="#0A0A0A"/>
<path d="M1643.67 683.423C1643.97 676.276 1642.83 668.622 1645.7 661.089C1647.47 656.089 1650.72 651.742 1655 648.612C1659.28 645.483 1664.41 643.717 1669.72 643.546C1678.75 643.14 1686.71 644.866 1692.35 652.663C1693.76 654.571 1695.32 654.693 1696.72 652.663C1702.41 644.947 1710.32 643.1 1719.4 643.485C1724.7 643.722 1729.8 645.55 1734.05 648.729C1738.29 651.909 1741.48 656.294 1743.2 661.312C1744.72 665.788 1745.45 670.494 1745.37 675.22C1745.17 682.875 1745.37 690.53 1745.37 698.205C1745.37 703.199 1744.39 703.991 1739.42 704.296C1728.29 704.966 1727.85 704.539 1727.91 693.677C1727.91 687.586 1727.91 681.494 1727.91 675.403C1728.15 672.01 1727.35 668.623 1725.61 665.698C1722.63 661.414 1717.61 659.079 1713.43 660.013C1710.78 660.634 1708.39 662.096 1706.64 664.182C1704.88 666.267 1703.84 668.864 1703.68 671.586C1703.32 679.464 1703.54 687.362 1703.5 695.24C1703.5 697.027 1703.5 698.834 1703.34 700.621C1703.33 701.538 1702.96 702.415 1702.31 703.064C1701.66 703.713 1700.78 704.082 1699.87 704.093C1699.19 704.181 1698.52 704.229 1697.84 704.235C1685.37 704.235 1685.15 705.737 1685.39 692.58C1685.51 686.042 1685.39 679.505 1685.39 672.987C1685.46 670.952 1685.02 668.932 1684.12 667.107C1683.21 665.283 1681.87 663.71 1680.21 662.53C1678.76 661.354 1677.05 660.555 1675.21 660.203C1673.38 659.851 1671.49 659.959 1669.71 660.516C1667.93 661.073 1666.31 662.062 1665.01 663.394C1663.7 664.727 1662.74 666.363 1662.22 668.155C1661.2 671.619 1660.74 675.225 1660.86 678.835C1660.96 685.149 1661.09 691.443 1661.05 697.758C1661.05 703.118 1660.03 704.011 1654.79 704.275C1643.89 704.824 1643.56 704.458 1643.75 693.23C1643.71 690.184 1643.67 687.017 1643.67 683.423Z" fill="#0A0A0A"/>
<path d="M1601.37 705.495C1585.62 707.079 1569.64 690.633 1569.72 674.593C1569.72 658.958 1585.17 643.223 1602.43 643.71C1615.85 644.096 1633.35 655.385 1633.25 674.958C1633.15 694.531 1615.16 706.835 1601.37 705.495ZM1615.99 675.242C1616.68 666.126 1607.14 659.832 1601.31 659.892C1594.65 659.892 1587.36 667.506 1587.1 674.552C1587.18 678.384 1588.68 682.049 1591.3 684.842C1593.93 687.635 1597.49 689.358 1601.31 689.678C1605.13 689.54 1608.76 687.971 1611.48 685.282C1614.2 682.593 1615.81 678.981 1615.99 675.161V675.242Z" fill="#0A0A0A"/>
<path d="M1536.42 705.495C1528.57 705.661 1520.96 702.802 1515.15 697.511C1509.35 692.22 1505.81 684.902 1505.25 677.07C1504.95 672.009 1505.89 666.951 1507.97 662.33C1510.06 657.709 1513.24 653.663 1517.23 650.539C1521.22 647.415 1525.91 645.306 1530.9 644.392C1535.89 643.479 1541.02 643.788 1545.86 645.294C1551.97 647.034 1557.32 650.791 1561.03 655.954C1563.61 659.588 1563.22 661.091 1559.28 663.385C1558.12 664.075 1556.93 664.684 1555.77 665.415C1550.79 668.4 1550.73 668.4 1546.04 664.278C1540.38 659.324 1535.89 658.735 1530.14 662.248C1527.35 663.766 1525.14 666.181 1523.88 669.104C1522.61 672.028 1522.37 675.29 1523.18 678.369C1524.01 681.155 1525.57 683.671 1527.69 685.664C1529.8 687.657 1532.41 689.055 1535.24 689.719C1539.44 690.328 1542.61 688.318 1545.6 685.821C1550.51 681.76 1550.49 681.76 1556.32 685.029L1556.89 685.394C1564.01 689.293 1564.24 690.755 1558.71 696.48C1555.9 699.541 1552.44 701.938 1548.58 703.497C1544.72 705.056 1540.57 705.739 1536.42 705.495Z" fill="#0A0A0A"/>
<path d="M1384.95 398.195C1383.85 388.165 1394.33 377.444 1406.23 377.769C1411.82 378 1417.11 380.404 1420.96 384.471C1424.81 388.539 1426.92 393.947 1426.84 399.547C1426.77 405.147 1424.51 410.496 1420.55 414.456C1416.59 418.416 1411.24 420.675 1405.64 420.752C1393.6 420.691 1384.67 410.803 1384.95 398.195Z" fill="#DA1E30"/>
<path d="M447.151 420.956C441.539 420.784 436.214 418.433 432.305 414.403C428.396 410.372 426.21 404.978 426.21 399.363C426.21 393.748 428.396 388.354 432.305 384.323C436.214 380.292 441.539 377.942 447.151 377.77C460.775 377.77 468.937 390.053 468.369 400.104C468.227 405.653 465.934 410.929 461.976 414.82C458.017 418.71 452.701 420.91 447.151 420.956Z" fill="#0A0A0A"/>
<path d="M1557.88 398.907C1557.97 401.714 1557.51 404.512 1556.51 407.137C1555.51 409.762 1554 412.163 1552.06 414.2C1550.13 416.236 1547.81 417.868 1545.24 419C1542.67 420.132 1539.9 420.742 1537.09 420.794C1524.75 420.794 1515.93 411.292 1515.87 397.932C1515.87 387.212 1525.78 377.953 1536.97 377.791C1549.29 377.628 1558.45 389.506 1557.88 398.907Z" fill="#DA1E30"/>
<path d="M1482.51 704.987C1479.1 704.154 1477.37 701.433 1475.61 698.895C1475.95 696.71 1475.67 694.471 1474.79 692.439L1476.48 689.454C1477.82 689.657 1478.02 689.068 1477.49 687.992L1478.94 686.612C1483.12 685.728 1487.44 685.728 1491.63 686.612L1493.09 688.013C1495.12 696.134 1495.12 696.134 1492.95 701.352C1492.43 702.301 1491.72 703.131 1490.87 703.785C1490.01 704.44 1489.02 704.905 1487.97 705.149C1486.23 704.436 1484.29 704.378 1482.51 704.987Z" fill="#0A0A0A"/>
<path d="M1492.95 701.193C1495.16 696.056 1495.16 696.056 1493.09 687.854C1498.11 694.574 1498.09 695.528 1492.95 701.193Z" fill="#DA1E30"/>
<path d="M1491.62 686.45C1487.44 685.567 1483.12 685.567 1478.93 686.45C1483.16 682.653 1487.38 682.755 1491.62 686.45Z" fill="#DA1E30"/>
<path d="M1482.51 704.986C1484.27 704.325 1486.21 704.325 1487.97 704.986C1486.49 706.63 1484.66 705.595 1483 705.635C1482.78 705.631 1482.56 705.597 1482.35 705.534L1482.51 704.986Z" fill="#DA1E30"/>
<path d="M1474.79 692.357C1475.67 694.39 1475.95 696.628 1475.61 698.814C1474.02 696.824 1472.93 694.774 1474.79 692.357Z" fill="#DA1E30"/>
<path d="M1477.5 687.914C1478.02 688.99 1477.82 689.579 1476.48 689.376C1476.07 688.361 1476.5 687.955 1477.5 687.914Z" fill="#DA1E30"/>
</g>
<defs>
<clipPath id="clip0_16878_14236">
<rect width="1920" height="1080" fill="white"/>
</clipPath>
</defs>
</svg>
