<svg width="1920" height="1080" viewBox="0 0 1920 1080" fill="none" xmlns="http://www.w3.org/2000/svg">
<path d="M1172.3 468.8C1192.2 473.1 1210.4 480.5 1224 495.7C1257.1 532.7 1244.4 588.9 1198.7 609.6C1180.8 617.7 1161.8 620.5 1142.4 620.5C1099.1 620.5 1055.9 620.5 1012.6 620.5C1011.5 620.5 1010.5 620.5 1009.4 620.5C1007.8 620.5 1007.3 619.7 1007.3 618.2C1007.3 616.5 1008.1 616.1 1009.6 616.1C1014.4 616.1 1019.2 615.8 1023.9 616.2C1028.1 616.6 1029.2 615 1028.6 611.2C1028.5 610.3 1028.6 609.4 1028.6 608.5C1028.6 517.4 1028.5 426.3 1028.7 335.2C1028.7 329.9 1027.3 328.3 1022.3 329C1019.2 329.4 1015.9 329.3 1012.7 329C1010.8 328.8 1007.5 330.9 1007.4 327C1007.2 322.8 1010.8 324.8 1012.5 324.8C1039.3 324.7 1066 324.7 1092.8 324.7C1111.6 324.7 1130.4 324.5 1149.2 325C1162.9 325.3 1176.3 327.8 1188.9 333.3C1209.4 342.3 1222.6 357.3 1227.7 379.3C1231.4 395.3 1231.4 411.2 1226.2 426.9C1218.4 450.8 1200.1 461.9 1177 467.1C1175.8 467.4 1174.6 467.6 1173.4 468C1173.2 467.9 1172.9 468.2 1172.3 468.8ZM1092.5 542.6C1092.5 565.6 1092.6 588.6 1092.4 611.7C1092.4 615 1093 616.3 1096.7 616.2C1106.8 615.9 1116.9 616.4 1127 615.9C1147.4 615 1161.6 605.1 1169 585.9C1176.4 566.7 1176.3 546.8 1174.7 526.8C1173.9 516.4 1171.4 506.2 1166.8 496.7C1159.6 481.9 1148.1 473.1 1131.6 471.2C1120.1 469.9 1108.6 471 1097.1 470.5C1093.3 470.3 1092.4 471.5 1092.4 475.2C1092.6 497.6 1092.5 520.1 1092.5 542.6ZM1092.5 397.7C1092.5 419 1092.6 440.2 1092.4 461.5C1092.4 465.3 1093.4 466.3 1097.1 466.1C1105.4 465.8 1113.7 466 1122.1 466C1141.8 465.9 1153.9 456.8 1159.4 437.8C1163.6 423.2 1164 408.1 1163.5 393.1C1163 378.4 1161.4 363.8 1155.1 350.2C1149.6 338.4 1140.8 331.1 1127.6 329.5C1117.5 328.3 1107.4 329.4 1097.4 328.9C1093.3 328.7 1092.4 330 1092.5 333.9C1092.6 355.2 1092.5 376.4 1092.5 397.7Z" fill="#375582"/>
<path d="M523.5 487.5C519.9 499.4 516.8 510.1 513.6 520.7C504 553.2 494.3 585.7 484.7 618.3C483.8 621.4 482.5 622.8 478.9 622.7C465.8 622.4 452.7 622.5 439.5 622.7C436.2 622.8 434.9 621.5 433.9 618.6C411.5 552.7 389 486.9 366.8 420.9C364.9 415.3 362.6 412.8 356.5 413.7C352.5 414.3 348.4 413.8 344.3 413.8C342.7 413.8 341.6 413.5 341.6 411.5C341.6 409.6 342.5 409 344.2 409.1C345.1 409.2 346 409.1 346.9 409.1C382.5 409.1 418.2 409.1 453.8 409.1C454.7 409.1 455.6 409.2 456.5 409.1C458.4 409 459.5 409.4 459.4 411.7C459.3 413.9 458 413.8 456.5 413.8C450 413.8 443.5 413.8 436.2 413.8C454.6 468.4 472.8 522.3 491.4 577.5C499.7 549.3 507 522.2 515.6 495.6C519.5 483.6 519.2 473 514.7 461.4C509.2 447.3 505.1 432.6 500.8 418C499.8 414.6 498.3 413.5 494.9 413.8C490.7 414.1 486.4 413.8 482.1 413.9C480.5 413.9 479.4 413.6 479.4 411.6C479.4 409.6 480.4 409.2 482 409.2C482.9 409.2 483.8 409.2 484.7 409.2C524.8 409.2 564.8 409.2 604.9 409.2C606.3 409.2 607.8 409.1 609.1 409.5C610.4 409.9 610 411.3 609.9 412.3C609.6 414.5 607.8 413.8 606.5 413.8C596.2 413.9 585.9 414 575.7 413.7C571.5 413.6 571.2 414.7 572.4 418.5C588.6 470.3 604.6 522.1 620.7 573.9C620.9 574.5 621.1 575.2 621.3 575.8C622.9 575.5 622.8 574.3 623 573.3C637.4 521.7 651.7 470.1 666.2 418.6C667.2 415 667 413.7 662.7 413.8C653.3 414.1 643.9 414 634.5 413.8C632.9 413.8 630.3 415.1 630.2 411.7C630 408.3 632.6 409.3 634.3 409.3C655.2 409.3 676.1 409.3 697.1 409.3C698.9 409.3 701.3 408.5 701.2 411.8C701.1 414.8 698.9 413.9 697.3 413.9C690.6 414 683.8 414.2 677.1 413.8C673 413.5 671.8 415.3 670.8 418.8C657.4 467.5 643.9 516.2 630.4 564.9C625.4 582.8 620.4 600.6 615.6 618.6C614.7 622 613.2 622.9 609.8 622.9C597 622.7 584.3 622.6 571.5 622.9C567.6 623 566.1 621.7 564.9 618.1C551.6 574.9 537.8 532 523.5 487.5Z" fill="#375582"/>
<path d="M1397.1 574.6C1393 581.1 1390 587.8 1386 594C1365.1 626.9 1318.9 635 1290.7 610.8C1277 599.1 1271.7 583.5 1271.3 566.4C1270.5 536.3 1271 506.1 1270.9 476C1270.9 456.7 1270.8 437.4 1271 418C1271 414.6 1270.2 413.3 1266.6 413.6C1262.2 413.9 1257.7 413.7 1253.3 413.7C1251.5 413.7 1249.1 414.5 1249.3 411.2C1249.5 408.3 1251.7 409.1 1253.3 409.1C1274.2 409.1 1295.1 409 1316 409.1C1321.1 409.1 1327.9 406.8 1330.8 410.1C1333.3 413 1331.6 419.6 1331.6 424.5C1331.6 472 1331.6 519.5 1331.6 567C1331.6 570.2 1331.7 573.4 1332.2 576.5C1335.5 600.6 1362.8 603.8 1377.9 591.6C1390.2 581.6 1395.1 567.7 1396.5 552.5C1397.8 538.7 1397 524.9 1397.1 511.1C1397.2 480.3 1397.1 449.4 1397.2 418.6C1397.2 414.7 1396.5 413.4 1392.3 413.6C1384.9 414 1377.4 413.7 1370 413.7C1368.5 413.7 1366.8 414.1 1366.8 411.5C1366.8 409.1 1368.1 409 1369.8 409C1398 409 1426.2 409.1 1454.3 408.9C1458.4 408.9 1457.8 411.3 1457.8 413.7C1457.8 446.3 1457.8 478.9 1457.8 511.5C1457.8 544.6 1457.9 577.8 1457.7 610.9C1457.7 614.8 1458.5 616.2 1462.6 615.8C1467 615.4 1471.5 615.7 1475.9 615.7C1477.4 615.7 1479.2 615.3 1479.1 617.9C1479.1 620.4 1477.4 620.1 1475.9 620.1C1461.9 620.1 1447.9 620.1 1433.9 620.1C1423.1 620.1 1412.3 619.9 1401.5 620.2C1397.8 620.3 1397.1 619 1397.2 615.7C1397.1 602.2 1397.1 588.4 1397.1 574.6Z" fill="#375582"/>
<path d="M30.2993 617.599C47.6993 624.499 60.8993 617.099 63.9993 599.599C64.8993 594.499 64.9993 589.399 64.9993 584.299C64.9993 501.199 64.9993 418.099 65.0993 334.899C65.0993 329.899 63.7993 328.599 58.9993 328.899C52.7993 329.299 46.5993 328.999 40.3993 328.999C38.6993 328.999 36.7993 329.399 36.8993 326.499C36.9993 323.799 38.9993 324.599 40.2993 324.599C75.6993 324.599 111.199 324.599 146.599 324.599C147.999 324.599 149.899 323.799 149.999 326.499C150.199 329.399 148.299 328.999 146.599 328.999C142.199 328.999 137.699 329.299 133.299 328.899C129.499 328.599 128.599 329.999 128.599 333.599C128.799 356.599 128.699 379.699 128.699 402.699C128.699 451.799 128.499 500.899 128.799 549.999C128.999 593.299 101.499 618.399 62.8993 623.499C49.2993 625.299 35.6993 625.699 22.3993 621.199C6.49931 615.799 -1.80069 602.599 0.499308 586.899C2.79931 571.499 16.0993 563.199 32.8993 566.299C53.7993 570.199 54.6993 596.799 43.8993 608.399C40.3993 612.299 36.2993 615.599 30.2993 617.599Z" fill="#375582"/>
<path d="M1558.7 615.999C1579.2 615.999 1599 615.899 1618.9 616.099C1622 616.099 1622.8 614.099 1624 612.399C1636.9 593.799 1649.7 575.099 1662.5 556.399C1663.2 555.399 1664 554.399 1664.6 553.399C1665.6 551.899 1667.1 552.199 1668.4 552.299C1670.3 552.499 1669.7 554.199 1669.7 555.199C1669.7 575.899 1669.7 596.699 1669.8 617.399C1669.8 619.699 1669.1 620.699 1666.8 620.499C1665.6 620.399 1664.3 620.499 1663.1 620.499C1606.7 620.499 1550.4 620.499 1494 620.499C1485.5 620.499 1485.1 619.799 1489.1 612.299C1517.4 559.699 1545.7 507.199 1574 454.599C1581.2 441.299 1588.3 427.899 1595.9 413.799C1585.6 413.799 1575.9 413.799 1566.3 413.799C1559.2 413.799 1552.1 413.899 1545 413.699C1542.2 413.599 1540.6 414.599 1539 416.899C1526.7 434.999 1514.2 453.099 1501.8 471.199C1500.6 472.899 1499.4 474.699 1498.1 476.399C1497.1 477.699 1495.5 477.499 1494.2 477.099C1492.9 476.699 1493.3 475.399 1493.3 474.399C1493.3 453.699 1493.3 432.899 1493.2 412.199C1493.2 409.899 1494 408.999 1496.3 409.199C1497.5 409.299 1498.8 409.199 1500 409.199C1552.3 409.199 1604.6 409.199 1656.9 409.199C1665.9 409.199 1666.2 409.699 1661.9 417.999C1639.6 460.799 1617.3 503.499 1595 546.199C1583.3 568.599 1571.6 590.999 1559.9 613.299C1559.4 613.899 1559.2 614.599 1558.7 615.999Z" fill="#375582"/>
<path d="M1754.5 615.999C1775.1 615.999 1794.9 615.899 1814.8 616.099C1817.8 616.099 1818.7 614.199 1820 612.399C1832.8 593.699 1845.7 575.099 1858.5 556.399C1859.3 555.199 1860.1 554.099 1861 552.999C1861.9 551.799 1863.3 552.099 1864.5 552.299C1866.5 552.499 1865.7 554.199 1865.7 555.199C1865.7 575.899 1865.6 596.699 1865.8 617.399C1865.8 621.999 1862.8 620.399 1860.8 620.399C1812.1 620.499 1763.3 620.499 1714.6 620.499C1705.6 620.499 1696.5 620.299 1687.5 620.599C1682.5 620.799 1682.8 618.199 1683.9 614.999C1684.5 613.199 1685.7 611.599 1686.6 609.899C1720.9 546.099 1755.2 482.299 1789.5 418.499C1790.2 417.199 1791.4 415.999 1791.2 413.799C1773.9 413.799 1756.6 413.799 1739.2 413.799C1736.6 413.799 1736.1 415.799 1735 417.299C1722.2 435.799 1709.5 454.299 1696.8 472.799C1696 473.999 1695.2 475.199 1694.4 476.299C1693.4 477.599 1691.8 477.399 1690.5 477.199C1688.6 476.899 1689.4 475.199 1689.4 474.199C1689.4 453.599 1689.5 433.099 1689.3 412.499C1689.3 408.699 1691.3 409.199 1693.7 409.199C1712.1 409.199 1730.6 409.199 1749 409.199C1784.1 409.199 1819.2 409.199 1854.3 409.199C1861.6 409.199 1862.2 409.999 1858.8 416.599C1842.7 447.599 1826.5 478.599 1810.3 509.699C1792.2 544.299 1774.2 578.899 1756.1 613.499C1755.4 613.999 1755.2 614.599 1754.5 615.999Z" fill="#375582"/>
<path d="M974.798 466.499C974.798 514.499 974.898 562.599 974.698 610.599C974.698 614.899 975.498 616.599 980.098 616.099C983.898 615.699 987.898 615.899 991.798 616.099C993.198 616.199 995.498 614.899 995.698 617.999C995.898 621.399 993.498 620.499 991.798 620.499C968.098 620.499 944.298 620.499 920.598 620.499C912.598 620.499 904.598 620.499 896.698 620.499C895.098 620.499 892.898 621.299 892.898 618.299C892.898 615.199 895.098 616.199 896.698 616.099C901.498 615.999 906.298 615.899 911.098 616.099C913.698 616.199 914.598 615.299 914.298 612.799C914.198 611.899 914.298 610.999 914.298 610.099C914.298 515.599 914.298 421.199 914.398 326.699C914.398 321.499 913.098 319.799 907.998 320.399C904.498 320.799 900.898 320.599 897.398 320.399C895.798 320.299 893.198 321.699 892.998 318.299C892.898 314.799 895.598 316.099 897.198 316.099C910.498 315.999 923.798 315.999 937.098 315.999C947.898 315.999 958.698 316.199 969.498 315.899C973.798 315.799 975.098 316.799 975.098 321.299C974.698 369.699 974.798 418.099 974.798 466.499Z" fill="#375582"/>
<path d="M874.999 588.7C875.499 592 875.299 593.9 873.299 595.8C838.799 627.3 780.299 634.3 739.399 611.6C721.099 601.4 707.599 586.8 699.699 567.5C685.799 533.6 684.299 499.1 698.899 465.3C725.299 404.4 796.399 392.5 840.199 416.1C863.799 428.8 875.899 449.6 879.499 475.7C881.099 487 880.599 498.3 879.699 509.6C879.399 513.4 877.899 514.1 874.499 514.1C835.699 514 796.899 514.1 758.099 513.9C753.599 513.9 752.599 515 752.699 519.4C752.899 538.3 754.799 556.8 761.099 574.8C772.899 608.4 796.799 620.1 831.199 613.5C846.599 610.6 859.199 602 871.099 592.4C872.199 591.2 873.299 590.1 874.999 588.7ZM787.099 509.6C796.999 509.6 806.899 509.3 816.799 509.7C820.899 509.9 821.799 508.3 821.999 504.7C822.899 489.3 823.899 474 821.999 458.6C820.299 444.6 817.399 431 809.299 419.2C801.199 407.4 786.499 405.9 775.999 415.7C769.499 421.7 765.399 429.3 762.499 437.6C754.799 460 753.399 483.2 752.699 506.6C752.599 509.5 753.899 509.6 756.199 509.6C766.499 509.6 776.799 509.6 787.099 509.6Z" fill="#375582"/>
<path d="M344.4 588.999C346.1 592.899 344.1 594.699 341.9 596.599C319.1 616.599 292.2 624.899 262.2 624.599C247.5 624.499 233.3 622.299 219.7 616.699C197.5 607.599 180.6 592.399 170.7 570.499C155.2 536.099 153.5 500.699 168.2 465.899C192.4 408.599 256.9 393.099 303 412.699C332.9 425.399 347 449.699 349.7 481.199C350.5 490.199 350.1 499.199 349.4 508.299C349.1 512.499 347.9 513.999 343.1 513.999C304.5 513.699 265.8 513.899 227.2 513.799C223.1 513.799 221.8 514.699 222 518.899C222.6 536.799 224.1 554.499 229.5 571.799C242.4 612.699 273.5 621.699 308.4 611.099C322.2 606.999 333.5 598.499 344.4 588.999ZM256.7 509.599C267 509.599 277.3 509.599 287.5 509.599C289.9 509.599 291.2 509.399 291.5 506.299C292.8 489.299 293.5 472.299 291.3 455.399C289.5 441.399 286 427.999 277 416.599C273.3 411.899 268.6 409.299 262.4 409.299C254 409.299 247.4 412.899 242.2 419.199C237.4 424.999 234.1 431.599 231.8 438.699C224.4 460.799 223.4 483.799 222.2 506.799C222 509.999 223.9 509.599 225.9 509.599C236.1 509.599 246.4 509.599 256.7 509.599Z" fill="#375582"/>
<path d="M1372.8 727.3C1382 732.9 1384.8 738.8 1382.9 747.8C1381.1 756.4 1375.4 761.2 1365.6 762.2C1352.9 763.5 1340.1 762.4 1327.4 762.8C1324.9 762.9 1324.5 761.8 1324.5 759.6C1324.6 739.8 1324.5 719.9 1324.5 700.1C1324.5 698.1 1324.5 696.7 1327.2 696.8C1339.2 697.2 1351.3 696.4 1363.3 697.2C1370.9 697.8 1376.5 701.1 1379.2 708.3C1381.7 714.8 1379.5 720.8 1372.8 727.3ZM1350.7 751C1353.4 751 1356 751.2 1358.6 750.9C1363.7 750.3 1366.8 747.2 1366.7 742.8C1366.6 738 1363.7 735.3 1359.2 734.6C1355.6 734.1 1351.8 734.1 1348.1 734C1340.8 733.9 1340.8 734 1340.8 741.1C1340.9 751.1 1340.9 751.1 1350.7 751ZM1350 708.4C1340.7 708.6 1340.7 708.6 1340.8 718C1340.8 718.9 1340.8 719.8 1340.8 720.7C1340.8 721.8 1341.2 722.4 1342.3 722.4C1347.9 722.1 1353.6 723.3 1359.1 721.6C1362.3 720.6 1364.3 718.3 1364.1 715C1363.9 711.6 1361.6 709.5 1358.3 709C1355.7 708.6 1352.9 708.6 1350 708.4Z" fill="#375582"/>
<path d="M430.298 734.5C439.398 741.2 443.898 751.1 449.998 759.7C451.898 762.4 450.798 763.1 448.098 762.8C447.698 762.8 447.398 762.7 446.998 762.8C436.598 764.7 429.098 761.4 424.498 751.4C422.698 747.6 419.598 744.5 417.098 741.1C415.798 739.4 414.298 738 412.198 737.2C406.298 734.8 404.798 735.8 404.798 742C404.798 747.8 404.698 753.7 404.898 759.5C404.998 762.1 404.098 762.7 401.598 762.8C388.498 763.4 388.498 763.5 388.498 750.7C388.498 734.4 388.598 718.1 388.398 701.8C388.398 698.1 388.998 696.5 393.198 696.7C404.998 697.3 416.898 696 428.798 697.4C439.498 698.7 444.798 703.7 445.798 713C446.898 723.7 442.998 730 432.598 733.7C431.998 734 431.398 734.2 430.298 734.5ZM414.398 708.7C404.898 708.6 404.898 708.6 404.898 718.2C404.898 719.4 404.998 720.7 404.898 721.9C404.798 723.5 405.098 724.6 407.098 724.5C412.198 724.2 417.298 724.8 422.498 724C426.798 723.3 429.298 720.8 429.398 716.6C429.598 712 426.698 709.4 422.398 708.7C419.698 708.4 416.998 708.7 414.398 708.7Z" fill="#375582"/>
<path d="M710.799 729.299C710.799 719.699 710.799 710.199 710.799 700.599C710.799 698.699 710.399 696.699 713.599 696.799C723.699 696.999 733.799 696.399 743.899 696.999C757.499 697.799 765.499 705.199 768.499 718.499C770.199 725.999 770.199 733.699 768.599 741.199C765.699 754.799 756.299 762.499 742.299 762.799C733.099 762.999 723.899 762.699 714.699 762.899C711.699 762.999 710.799 761.999 710.899 758.999C710.899 749.099 710.799 739.199 710.799 729.299ZM726.899 729.499C726.899 735.499 726.899 741.599 726.899 747.599C726.899 748.999 726.299 750.599 728.799 751.099C743.899 754.199 752.199 747.999 752.899 732.599C752.899 731.899 752.999 731.199 752.999 730.499C753.199 713.299 747.999 708.299 730.999 708.399C727.799 708.399 726.599 708.999 726.799 712.499C727.099 718.199 726.899 723.899 726.899 729.499Z" fill="#375582"/>
<path d="M205.999 763.9C199.799 764.1 194.099 763.4 188.699 760.7C181.399 757.1 178.199 750.6 176.699 743C176.599 742.4 176.499 741.199 176.899 741.099C179.799 739.699 183.099 740.399 186.199 739.799C189.299 739.2 191.899 738.7 193.499 743C196.399 750.7 205.699 753.5 212.999 749.4C215.499 748 217.399 746 217.399 743.2C217.399 740.1 214.999 738.6 212.299 737.9C206.199 736.2 199.999 734.8 193.899 732.9C184.199 729.8 179.499 724 179.199 715.7C178.799 704.6 186.199 697.2 199.599 696C204.899 695.5 210.199 695.6 215.399 696.9C224.599 699.1 230.799 705.9 231.699 714.9C231.899 717.2 231.699 718.599 228.799 718.299C226.499 718.099 224.199 718.099 221.899 718.299C218.199 718.499 215.699 718.399 213.999 713.799C211.799 707.699 200.499 706.8 196.099 711.7C193.699 714.4 194.699 716.599 197.299 718.299C199.799 719.999 202.799 720.6 205.699 721.4C210.799 722.8 215.999 723.899 220.999 725.599C229.699 728.599 233.799 734.7 233.799 743.7C233.799 752.2 229.199 758.799 220.899 761.799C215.899 763.499 210.899 764.1 205.999 763.9Z" fill="#375582"/>
<path d="M1043.6 730C1043.6 739.7 1043.5 749.5 1043.7 759.2C1043.7 761.8 1043.2 762.8 1040.3 762.9C1027.5 763.2 1027.6 763.4 1027.4 750.6C1027.3 745.2 1029.7 737.9 1026.4 734.9C1023.5 732.2 1016.3 734.2 1011.1 734.1C1009.7 734.1 1008.2 734.3 1006.9 734.1C1004.1 733.7 1003.7 735.1 1003.7 737.5C1003.8 744.8 1003.6 752 1003.8 759.3C1003.9 762 1003.2 762.9 1000.3 763C987.399 763.4 987.399 763.5 987.399 750.7C987.399 734.2 987.499 717.8 987.299 701.3C987.299 698 987.999 696.8 991.599 696.8C1003.7 696.9 1003.6 696.7 1003.7 708.9C1003.7 713.3 1001.8 719 1004.4 721.7C1007.1 724.4 1012.8 722.4 1017.2 722.5C1027.4 722.6 1027.4 722.5 1027.4 712.5C1027.4 711.1 1027.3 709.7 1027.4 708.3C1027.7 704.7 1025.7 699 1028.1 697.8C1031.8 696 1037 697.1 1041.6 697C1044.4 696.9 1043.5 699.1 1043.5 700.4C1043.6 710.2 1043.6 720.1 1043.6 730Z" fill="#375582"/>
<path d="M498.1 729.7C498.1 720.1 498.2 710.6 498 701C497.9 698 498.4 696.6 502 696.7C516.9 696.9 531.7 696.9 546.6 696.7C549.7 696.7 550.4 697.6 550.4 700.6C550.4 708.5 550.5 708.5 542.7 708.5C534.6 708.5 526.4 708.6 518.3 708.4C515.2 708.3 514 708.9 514.1 712.3C514.2 722.2 514 722.2 524 722.2C530.7 722.2 537.5 722.4 544.2 722.1C547.3 722 548.3 723 547.9 725.9C547.7 727.5 547.7 729.1 547.9 730.7C548.2 733.3 547.2 734 544.6 733.9C535.9 733.8 527.2 734 518.6 733.8C515.4 733.7 514.1 734.3 514.1 738C514.2 750.9 514 750.9 526.9 750.9C533.8 750.9 540.7 751.1 547.6 750.8C550.9 750.7 552.2 751.6 551.7 754.9C551.5 756.5 551.5 758.1 551.7 759.7C551.9 762.1 550.8 762.6 548.6 762.6C532.8 762.5 517.1 762.5 501.3 762.6C498.1 762.6 498.1 761 498.1 758.7C498.1 749.2 498.1 739.5 498.1 729.7Z" fill="#375582"/>
<path d="M1096.9 729.599C1096.9 719.899 1097 710.099 1096.8 700.399C1096.8 697.699 1097.5 696.799 1100.3 696.799C1115.3 696.899 1130.4 696.899 1145.5 696.799C1148.1 696.799 1149.6 697.299 1149.2 700.199C1149 701.599 1149 703.099 1149.2 704.399C1149.6 707.599 1148.5 708.699 1145.2 708.599C1136 708.399 1126.8 708.699 1117.6 708.399C1113.9 708.299 1112.9 709.299 1113 712.999C1113.2 722.299 1113 722.299 1122.5 722.299C1129.4 722.299 1136.3 722.399 1143.2 722.299C1145.8 722.199 1147.3 722.699 1146.8 725.699C1146.6 726.899 1146.6 728.199 1146.8 729.399C1147.6 733.699 1145.5 734.199 1141.8 734.099C1133.5 733.799 1125.2 734.099 1116.8 733.899C1113.8 733.799 1112.8 734.699 1113 737.699C1113.3 741.899 1111.6 747.499 1113.7 750.099C1115.9 752.799 1121.7 750.799 1125.9 750.899C1132.6 751.099 1139.4 751.199 1146.1 750.799C1150 750.599 1151.4 752.099 1150.5 755.599C1149.9 757.999 1153.2 762.499 1147.9 762.599C1131.8 762.799 1115.7 762.599 1099.6 762.699C1096.3 762.699 1097.1 760.499 1097.1 758.699C1096.9 749.099 1096.9 739.399 1096.9 729.599Z" fill="#375582"/>
<path d="M1489.8 721.1C1489.8 728.2 1490.2 735.3 1489.7 742.3C1488.7 756 1482.9 762.2 1469.3 763.6C1461.1 764.5 1452.6 764.7 1444.9 760.7C1439.4 757.8 1435.8 753.2 1435 747.1C1433 731.2 1434.2 715.3 1433.9 699.3C1433.9 697.4 1434.6 696.7 1436.4 696.9C1436.6 696.9 1436.8 696.9 1436.9 696.9C1450.2 695.9 1450.1 695.9 1450.2 709.2C1450.2 719.6 1450.1 730.1 1450.5 740.5C1450.8 747.8 1455.5 752 1462.3 752.1C1469.3 752.2 1473.4 748.4 1473.7 740.4C1474.1 727.3 1474.1 714.2 1473.9 701.1C1473.9 697.7 1474.7 696.7 1478.2 696.7C1490.1 696.8 1490.1 696.6 1490.1 708.3C1490.1 712.6 1490.1 716.8 1490.1 721.1C1490 721.1 1489.9 721.1 1489.8 721.1Z" fill="#375582"/>
<path d="M665.6 762.799C660.2 762.799 655.3 762.699 650.4 762.899C647.9 762.999 647.2 761.399 647 759.699C645.2 748.999 638.7 746.699 628.6 747.699C618.3 748.699 618 747.799 614.5 757.699C613.1 761.599 611.3 763.399 607 762.899C603.3 762.399 599.6 762.799 595.1 762.799C598.2 755.299 601 748.399 603.9 741.399C609.5 727.699 615.2 713.999 620.7 700.199C621.7 697.599 622.9 696.799 625.7 696.799C637.9 696.699 638 696.499 642.7 707.599C649.9 724.499 656.9 741.399 664 758.399C664.5 759.599 664.9 760.899 665.6 762.799ZM630 717.199C627.4 723.899 625.1 729.799 622.7 736.099C628 736.099 632.4 736.099 637.3 736.099C634.9 729.899 632.6 723.999 630 717.199Z" fill="#375582"/>
<path d="M284.299 729.699C284.299 719.999 284.299 710.199 284.299 700.499C284.299 698.399 284.299 696.799 287.299 696.899C298.799 697.299 310.299 696.299 321.799 697.499C331.799 698.599 338.099 705.699 338.299 716.199C338.599 727.999 332.799 735.699 322.699 737.499C316.499 738.599 310.399 738.499 304.199 738.299C301.099 738.199 300.299 739.199 300.399 742.199C300.599 747.299 300.499 752.499 300.499 757.599C300.499 758.299 300.699 759.099 300.499 759.699C298.299 766.299 292.899 761.599 289.199 762.699C287.099 763.299 284.299 763.699 284.399 759.499C284.399 749.499 284.299 739.599 284.299 729.699ZM305.799 726.599C309.599 726.799 312.799 726.699 315.799 725.599C318.999 724.399 320.999 721.999 321.399 718.499C321.799 715.199 320.599 712.499 317.899 710.699C312.799 707.399 306.599 707.599 301.499 709.099C298.599 709.899 300.799 715.399 300.299 718.799C300.199 719.299 300.399 719.899 300.299 720.399C299.699 725.099 300.599 728.199 305.799 726.599Z" fill="#375582"/>
<path d="M1573 708.6C1563.2 708.6 1554.7 708.4 1546.2 708.7C1542.6 708.8 1541.9 707.6 1541.9 704.3C1542.1 696.9 1541.9 696.9 1549 696.9C1562.5 696.9 1575.9 697 1589.4 696.8C1592.7 696.7 1593.3 697.7 1593.5 700.9C1593.7 706.1 1592.4 710.2 1588.8 714.2C1578.3 726 1568.3 738.1 1558.1 750.1C1559.1 751.9 1560.7 751 1561.9 751C1571.6 751.1 1581.4 751.1 1591.1 751C1593.8 751 1595 751.6 1594.6 754.5C1594.4 755.7 1594.4 757 1594.6 758.2C1595.2 761.9 1593.8 762.9 1590.1 762.9C1574 762.7 1557.9 762.7 1541.8 762.9C1538.5 762.9 1537.8 762 1537.7 758.8C1537.4 752.8 1538.9 748.2 1543.1 743.6C1553.2 732.5 1562.6 720.9 1573 708.6Z" fill="#375582"/>
<path d="M1656.8 751.099C1668.1 751.099 1678.6 751.299 1689.2 750.999C1693 750.899 1693.9 752.099 1693.7 755.699C1693.4 762.799 1693.7 762.799 1686.8 762.799C1671.8 762.799 1656.7 762.699 1641.7 762.899C1638 762.999 1636.7 762.299 1636.6 758.099C1636.5 752.399 1638 748.099 1641.8 743.899C1651.1 733.499 1660 722.699 1669 711.999C1669.7 711.099 1671 710.499 1670.9 708.599C1662.4 708.599 1654 708.399 1645.6 708.699C1642 708.799 1640.8 707.999 1640.9 704.099C1641.2 696.899 1640.9 696.899 1648.1 696.899C1661.4 696.899 1674.7 696.999 1687.9 696.799C1691.2 696.799 1692.3 697.399 1692.4 700.999C1692.6 706.299 1691.1 710.299 1687.6 714.299C1677.4 725.799 1667.6 737.699 1657.6 749.399C1657.5 749.699 1657.4 749.999 1656.8 751.099Z" fill="#375582"/>
<path d="M911.999 696.799C919.799 696.799 927.599 696.899 935.399 696.699C938.499 696.599 940.099 697.199 939.499 700.699C939.299 702.099 939.299 703.499 939.499 704.899C939.799 707.599 938.999 708.699 936.099 708.499C932.199 708.299 928.299 708.699 924.399 708.399C920.699 708.099 919.599 709.099 919.699 712.999C919.899 728.099 919.699 743.099 919.899 758.199C919.999 761.999 918.899 762.899 915.199 762.899C903.499 762.799 903.499 762.899 903.499 751.499C903.499 738.599 903.399 725.599 903.599 712.699C903.599 709.599 903.099 708.199 899.599 708.499C896.299 708.799 892.799 708.199 889.499 708.699C884.499 709.399 883.599 707.399 883.499 702.699C883.399 697.699 884.899 696.499 889.599 696.799C897.099 697.099 904.599 696.799 911.999 696.799Z" fill="#375582"/>
<path d="M1907.8 392.699C1908.8 387.999 1910.2 383.299 1910.8 378.599C1911.4 374.299 1914.3 375.699 1916.7 375.399C1920.2 375.099 1919.6 377.499 1919.6 379.599C1919.6 386.999 1919.6 394.499 1919.6 401.899C1919.6 403.699 1920.3 405.899 1917.1 405.999C1913.5 406.099 1914.3 403.699 1914.3 401.699C1914.3 398.599 1914.3 395.499 1914.3 391.199C1911.3 394.499 1912 397.599 1910.9 399.999C1910 402.099 1911.7 405.899 1907.3 405.999C1902.9 406.099 1904.2 402.399 1903.6 400.199C1902.6 397.099 1902.2 393.799 1900.2 390.599C1900.2 394.599 1900.1 398.599 1900.2 402.699C1900.2 404.799 1899.9 406.099 1897.4 405.999C1894.9 405.899 1895.1 404.399 1895.1 402.699C1895.1 394.699 1895.2 386.799 1895.2 378.799C1895.2 376.999 1894.9 374.999 1897.7 375.399C1899.9 375.699 1902.8 374.199 1903.4 378.099C1904.1 382.499 1905.2 386.699 1906.1 391.099C1906.3 391.799 1906.5 392.499 1907.8 392.699Z" fill="#375582"/>
<path d="M1880.8 393C1880.8 390.7 1880.6 388.4 1880.8 386.1C1881.2 382.4 1880.4 380.2 1876.1 381C1874 381.4 1873.3 380.3 1873.3 378.3C1873.3 376.3 1873.9 375.4 1876 375.4C1881 375.5 1885.9 375.5 1890.9 375.4C1892.8 375.4 1893.2 376.3 1893.2 378C1893.2 379.8 1893.1 381.4 1890.7 381C1885.5 380 1885.6 383.2 1885.7 386.9C1885.9 391.9 1885.8 396.8 1885.7 401.8C1885.7 403.5 1886.7 405.9 1883.3 406C1879.7 406.1 1880.7 403.5 1880.6 401.6C1880.7 398.7 1880.8 395.9 1880.8 393Z" fill="#375582"/>
</svg>
