<svg width="1920" height="1080" viewBox="0 0 1920 1080" fill="none" xmlns="http://www.w3.org/2000/svg">
<path d="M1917.3 442.6C1889.7 442.1 1862.2 441.5 1834.6 441.1C1828.7 441 1825.2 443.3 1825.3 450.1C1825.5 480.7 1825.6 511.3 1825.3 541.8C1825.2 548.9 1828.5 550.3 1834.6 550.2C1850.3 550 1866 550.3 1881.7 550C1888.9 549.9 1892.7 551.5 1892.4 559.9C1891.8 575.6 1891.8 591.3 1892.2 607C1892.4 614.3 1889.6 616.6 1882.5 616.4C1868.9 616 1855.3 617 1841.7 616.1C1829.2 615.2 1824.7 618.8 1825 632.2C1825.8 678.9 1825.1 725.6 1825.5 772.4C1825.6 781.6 1823.4 785.3 1813.5 784.9C1797.4 784.1 1781.2 784 1765.1 784.9C1753.7 785.6 1750.9 781.9 1750.9 770.7C1751.3 648.4 1751.1 526 1751.1 403.7C1751.1 378.7 1751.1 378.6 1775.7 378.7C1822.8 378.7 1870 378.8 1917.1 378.8C1917.3 400.1 1917.3 421.4 1917.3 442.6Z" fill="#9E9E9E"/>
<path d="M61.3008 510.598C61.3008 594.298 61.3008 677.898 61.3008 761.598C61.3008 784.698 61.4008 784.698 38.2008 785.998C5.70078 787.898 5.60078 787.898 5.60078 755.398C5.60078 633.898 5.70078 512.398 5.30078 390.898C5.30078 380.198 8.90078 378.198 18.4008 378.498C43.0008 379.098 67.7008 379.098 92.3008 378.698C100.501 378.598 104.301 380.498 105.701 389.398C112.701 435.798 120.401 482.098 127.901 528.498C130.801 546.598 134.101 564.598 139.601 582.498C146.401 542.298 153.301 502.098 160.101 461.898C164.301 436.798 168.501 411.798 172.401 386.698C173.301 380.998 175.701 378.698 181.501 378.698C209.101 378.898 236.701 378.898 264.301 378.598C270.701 378.498 272.301 381.598 272.101 387.198C271.901 391.898 272.101 396.498 272.101 401.198C272.101 524.398 271.901 647.598 272.401 770.798C272.401 782.798 269.001 786.398 257.501 785.198C242.801 783.598 227.901 786.198 213.101 785.398C203.201 784.898 202.301 780.998 202.301 773.198C202.601 747.698 202.301 722.198 202.301 696.698C202.301 640.998 202.301 585.398 202.301 529.698C202.301 525.098 202.301 520.598 202.301 515.998C201.501 515.898 200.601 515.898 199.801 515.798C193.701 550.298 187.401 584.798 181.401 619.398C172.401 671.198 163.401 723.099 154.601 774.898C153.401 781.898 150.501 784.398 142.901 784.498C113.101 784.698 112.501 785.098 107.601 758.198C95.3008 689.898 83.5008 621.398 71.4008 552.998C68.9008 538.898 66.3008 524.798 63.7008 510.798C62.9008 510.698 62.1008 510.598 61.3008 510.598Z" fill="#1A6099"/>
<path d="M1244.3 581.699C1244.3 518.799 1244.7 455.899 1244 393.099C1243.9 380.899 1247.8 377.999 1259.1 378.599C1291.7 380.299 1324.4 376.799 1357 381.099C1403.5 387.199 1434.4 415.599 1442.4 462.299C1447.5 491.999 1446.1 521.499 1435.4 549.999C1429.6 565.699 1421.7 580.199 1407.3 589.799C1402.2 593.199 1401.9 597.299 1403.3 602.999C1416.4 658.699 1429.2 714.499 1442.1 770.199C1445.2 783.599 1444.4 784.699 1430.7 784.699C1414.1 784.699 1397.6 784.499 1381 784.899C1373.5 785.099 1370.1 783.299 1368.5 774.899C1358.9 724.099 1348.4 673.499 1338.4 622.799C1337 615.499 1335.1 609.999 1325.7 610.799C1314.7 611.599 1318.4 619.499 1318.4 624.999C1318.2 674.299 1318 723.599 1318.5 772.799C1318.6 782.299 1315.9 785.399 1306.3 784.899C1290.2 784.099 1274 784.099 1257.9 784.999C1247.5 785.499 1244.1 782.499 1244.2 771.699C1244.5 708.299 1244.3 644.999 1244.3 581.699ZM1318.1 494.899C1318.1 510.599 1318.4 526.199 1317.9 541.899C1317.6 549.799 1320.5 551.999 1328.1 552.099C1349.8 552.399 1365.5 538.499 1369 515.199C1371.1 501.299 1371.1 487.599 1369.3 473.599C1366.3 450.199 1350.5 436.599 1326.8 437.599C1320.2 437.899 1317.9 440.199 1318 446.599C1318.3 462.699 1318.1 478.799 1318.1 494.899Z" fill="#9E9E9E"/>
<path d="M1154.4 573.499C1190.9 584.299 1215.1 606.399 1222.6 643.999C1230.8 685.299 1224.6 723.599 1195.2 755.599C1177.4 774.899 1155.1 784.899 1128.4 784.699C1097.8 784.499 1067.2 784.399 1036.6 784.899C1027.5 785.099 1025.2 781.999 1025.2 773.199C1025.4 646.199 1025.5 519.099 1025.1 392.099C1025.1 381.399 1028.5 378.099 1039 378.599C1072 380.199 1105.2 376.499 1138.2 380.999C1177 386.199 1210.2 417.299 1215.4 456.599C1219.3 485.899 1218.4 515.099 1201.1 541.299C1190 558.299 1173.3 566.699 1154.4 573.499ZM1099.4 666.999C1099.4 683.099 1099.3 699.299 1099.4 715.399C1099.4 720.399 1098.9 725.899 1105.9 727.399C1123.8 731.299 1147.4 715.199 1149.6 696.699C1151.4 681.199 1153.2 665.799 1150.7 649.899C1146.7 624.099 1136.8 613.299 1111.5 609.299C1102.1 607.799 1099.1 610.999 1099.3 619.799C1099.6 635.599 1099.4 651.299 1099.4 666.999ZM1099.4 491.199C1099.4 506.099 1099.3 520.899 1099.5 535.799C1099.6 540.299 1099.2 545.399 1106.2 545.799C1123.9 546.999 1137.5 537.799 1143 520.599C1148.4 503.699 1148.7 486.399 1145.5 469.099C1141.2 445.799 1135.2 440.499 1112.5 437.899C1103.9 436.899 1098.7 438.699 1099.2 449.099C1099.9 463.199 1099.4 477.199 1099.4 491.199Z" fill="#9E9E9E"/>
<path d="M545.7 784.999C530 784.999 514.2 784.499 498.6 785.199C489.3 785.599 487.3 782.099 487.4 773.399C488.3 730.099 489 686.799 488.9 643.599C488.9 558.699 488.3 473.899 487.9 388.999C487.9 383.699 486.6 378.599 494.7 378.699C525.3 378.999 556 377.399 586.4 379.699C630 382.899 656.4 410.099 672.7 448.599C684.4 476.099 685.5 505.599 686.9 534.699C689.6 587.699 689.6 640.799 679.9 693.299C673.4 728.399 657.3 757.999 624.2 775.599C612 782.099 599.1 785.599 585.1 785.199C572 784.599 558.8 784.899 545.7 784.999ZM561.2 582.399C561.2 625.699 561.5 668.999 561 712.199C560.9 721.499 563.6 724.099 572.5 723.199C587.9 721.599 599.2 714.699 603.8 699.699C606.5 690.799 608.6 681.499 609.1 672.299C612.9 611.299 612.7 550.199 609.1 489.199C608.1 472.699 604.2 456.599 590.2 445.399C582.6 439.299 573.1 439.299 565 441.699C558.1 443.699 561.4 452.099 561.3 457.599C561.1 499.199 561.2 540.799 561.2 582.399Z" fill="#1A6099"/>
<path d="M910.001 379.199C924.001 379.199 938.101 379.599 952.101 378.999C959.501 378.699 962.501 380.799 963.401 388.499C972.701 467.399 982.401 546.199 991.901 624.999C997.901 674.299 1003.6 723.599 1009.9 772.899C1011 781.499 1009.8 784.999 1000.1 784.499C983.601 783.699 967.001 784.099 950.401 784.399C944.101 784.499 941.401 782.699 940.801 776.099C938.601 751.999 935.401 727.999 933.301 703.899C932.601 695.899 930.201 692.699 921.901 693.099C908.801 693.699 895.501 693.599 882.401 693.099C874.701 692.799 872.401 695.599 871.501 703.099C868.401 727.099 864.201 750.899 860.901 774.899C859.901 782.099 857.601 784.999 849.801 784.499C836.701 783.699 823.401 783.699 810.301 784.499C801.001 785.099 800.001 781.299 801.101 773.499C811.001 703.699 820.601 633.899 830.301 564.099C838.301 506.099 846.601 448.099 854.101 389.899C855.301 380.999 858.401 378.599 866.801 378.899C881.101 379.599 895.601 379.199 910.001 379.199ZM903.201 446.199C902.501 446.099 901.901 445.999 901.201 445.799C894.201 500.399 887.401 555.099 880.201 609.699C876.701 636.599 876.401 636.599 904.101 636.599C907.501 636.599 911.001 636.099 914.301 636.699C925.701 638.599 926.301 632.799 925.101 623.699C921.501 596.799 918.401 569.899 915.101 542.999C911.201 510.699 907.201 478.499 903.201 446.199Z" fill="#1A6099"/>
<path d="M301.6 581.499C301.6 518.199 301.7 454.899 301.5 391.699C301.5 382.299 303.2 378.299 314.1 378.499C362.1 379.199 410.1 379.099 458.1 378.499C468.4 378.399 471.4 381.699 470.8 391.499C470.1 403.299 469.9 415.299 470.8 427.099C471.6 438.399 468.6 442.899 456.2 442.299C433.7 441.299 411.2 442.399 388.7 441.899C380.4 441.699 376.7 443.399 376.9 452.899C377.5 480.499 377.5 508.099 376.9 535.699C376.7 543.799 379.4 545.999 387 545.799C403.1 545.399 419.3 545.999 435.4 545.499C443.5 545.299 446.8 547.599 446.4 556.299C445.7 571.599 445.8 586.899 446.4 602.199C446.7 610.099 444.1 612.599 436.3 612.399C420.6 611.999 404.9 612.799 389.2 612.099C380 611.699 376.6 613.799 376.8 623.899C377.5 653.599 377.3 683.399 376.9 713.099C376.8 720.999 378.9 723.399 386.8 723.199C412.3 722.799 437.8 723.399 463.2 722.899C472.3 722.699 475 725.899 474.6 734.699C474 748.699 474.2 762.699 474.5 776.699C474.6 782.599 472.9 785.099 466.7 784.999C414.5 784.899 362.2 784.899 310 785.099C304.5 785.099 302.2 782.799 302.2 777.599C302.1 770.799 302 763.999 302 757.199C302 698.599 302 639.999 302 581.399C301.8 581.499 301.7 581.499 301.6 581.499Z" fill="#1A6099"/>
<path d="M1565 581.599C1565 518.299 1565.2 454.999 1564.8 391.699C1564.7 382.199 1566.7 378.399 1577.3 378.599C1624.4 379.199 1671.6 379.099 1718.8 378.699C1728.7 378.599 1732.6 381.099 1731.8 391.499C1730.9 403.799 1731 416.199 1731.8 428.399C1732.4 438.799 1729.1 442.699 1718.3 442.399C1696.2 441.699 1674.1 442.599 1652 442.099C1642.4 441.799 1638.5 444.099 1638.8 454.699C1639.5 481.399 1639.4 508.199 1638.9 534.999C1638.7 543.899 1641.8 547.099 1650.6 546.899C1666.3 546.499 1682 547.099 1697.8 546.699C1705.3 546.499 1708.6 548.699 1708.3 556.699C1707.8 571.999 1707.8 587.299 1708.3 602.599C1708.5 610.199 1705.2 611.999 1698.4 611.899C1682.3 611.599 1666.1 612.099 1650 611.699C1641.7 611.499 1639 614.699 1639 622.999C1639.2 653.999 1638.9 684.999 1638.3 715.999C1638.2 724.199 1643.1 723.599 1648.3 723.599C1672.9 723.599 1697.6 724.099 1722.2 723.399C1733.6 722.999 1737.3 726.699 1736.4 737.899C1735.5 749.699 1735.7 761.699 1736.4 773.599C1736.9 782.499 1734 785.299 1725 785.299C1675.7 784.899 1626.4 784.899 1577.2 785.399C1567.7 785.499 1564.9 782.699 1565 773.199C1565.4 721.799 1565.2 670.399 1565.2 618.999C1565.1 606.199 1565 593.899 1565 581.599Z" fill="#9E9E9E"/>
<path d="M1458.9 581.7C1458.9 518.5 1459.1 455.2 1458.7 392C1458.6 381.3 1461.6 378 1472.2 378.6C1487.9 379.4 1503.6 379.5 1519.3 378.6C1531.1 377.9 1534.5 381.8 1534.5 393.6C1534.1 495 1534.3 596.5 1534.3 697.9C1534.3 722.5 1533.8 747.2 1534.5 771.8C1534.8 782.7 1531 785.6 1520.7 785C1504.6 784.2 1488.4 784.2 1472.3 785C1461.8 785.5 1458.6 782.2 1458.7 771.5C1459.2 708.2 1458.9 645 1458.9 581.7Z" fill="#9E9E9E"/>
<path d="M713.101 581.699C713.101 517.999 713.301 454.399 712.901 390.699C712.801 381.199 715.201 378.099 724.901 378.499C742.301 379.299 759.701 379.099 777.101 378.599C785.201 378.399 788.201 380.399 788.201 389.099C787.901 517.699 788.001 646.299 788.201 774.899C788.201 782.399 786.301 785.499 778.201 785.299C760.401 784.799 742.501 784.499 724.701 785.299C714.401 785.799 713.101 781.399 713.201 772.699C713.501 708.999 713.401 645.399 713.401 581.699C713.201 581.699 713.201 581.699 713.101 581.699Z" fill="#1A6099"/>
<path d="M137.201 351.499C152.057 351.499 164.101 339.456 164.101 324.599C164.101 309.743 152.057 297.699 137.201 297.699C122.344 297.699 110.301 309.743 110.301 324.599C110.301 339.456 122.344 351.499 137.201 351.499Z" fill="#070707"/>
<path d="M34.2008 351.499C49.0572 351.499 61.1008 339.456 61.1008 324.599C61.1008 309.743 49.0572 297.699 34.2008 297.699C19.3443 297.699 7.30078 309.743 7.30078 324.599C7.30078 339.456 19.3443 351.499 34.2008 351.499Z" fill="#165E98"/>
<path d="M240.601 350.999C255.458 350.999 267.501 338.956 267.501 324.099C267.501 309.243 255.458 297.199 240.601 297.199C225.745 297.199 213.701 309.243 213.701 324.099C213.701 338.956 225.745 350.999 240.601 350.999Z" fill="#9D9D9D"/>
</svg>
