<svg width="1920" height="1080" viewBox="0 0 1920 1080" fill="none" xmlns="http://www.w3.org/2000/svg">
<path d="M109.838 327.846C173.597 327.846 206.346 365.893 206.346 432.44V445.532H144.398V428.244C144.398 398.588 132.516 387.231 111.65 387.231C90.7833 387.231 78.901 398.588 78.901 428.244C78.901 513.887 206.925 529.873 206.925 648.499C206.925 715.046 173.597 753.093 109.259 753.093C44.9206 753.093 11.6648 715.335 11.6648 648.499V623.183H73.5395V652.912C73.5395 682.641 86.6535 693.346 107.52 693.346C128.386 693.346 141.428 682.641 141.428 652.912C141.428 567.341 13.4037 551.645 13.4037 432.44C13.4037 365.893 46.1523 327.846 109.838 327.846Z" fill="#EF4136"/>
<path d="M383.131 627.958L427.472 332.621H518.835V748.61H456.96V450.235L411.677 748.61H349.802L300.969 454.43V748.61H243.804V332.621H334.877L383.131 627.958Z" fill="#EF4136"/>
<path d="M762.349 428.246V443.146C762.349 485.895 749.235 513.237 720.109 526.908C755.176 540.579 768.87 572.117 768.87 616.095V649.947C768.87 714.179 734.962 748.61 669.464 748.61H566.509V332.621H665.334C733.15 332.621 762.349 364.086 762.349 428.246ZM631.934 392.079V502.026H657.51C681.926 502.026 696.779 491.32 696.779 458.047V434.9C696.779 405.171 686.708 392.079 663.451 392.079H631.934ZM631.934 561.484V689.224H669.464C691.2 689.224 703.445 679.098 703.445 648.211V612.045C703.445 573.419 690.91 561.411 661.132 561.411L631.934 561.484Z" fill="#EF4136"/>
<path d="M983.837 433.019V441.916H957.609V431.5C957.609 387.522 940.945 354.248 895.734 354.248C850.524 354.248 833.787 386.943 833.787 430.922C833.787 532.188 984.416 533.78 984.416 648.5C984.416 708.465 958.189 752.516 894.503 752.516C830.817 752.516 804.589 708.175 804.589 648.5V626.8H830.817V649.947C830.817 694.577 848.06 726.62 893.923 726.62C939.786 726.62 957.029 694.577 957.029 649.947C957.029 550.127 806.4 548.319 806.4 432.441C806.4 370.017 833.787 329.583 895.082 329.004C958.189 329.004 983.837 372.983 983.837 433.019Z" fill="#303030"/>
<path d="M1100.49 748.61V357.576H1015.35V332.621H1212.43V357.576H1127.87V748.61H1100.49Z" fill="#303030"/>
<path d="M1246.19 434.249C1246.19 373.634 1274.3 329.004 1337.41 329.004C1401.74 329.004 1429.71 373.561 1429.71 434.249V646.981C1429.71 707.597 1401.74 752.226 1337.41 752.226C1274.3 752.226 1246.33 707.597 1246.33 646.981L1246.19 434.249ZM1273.72 648.5C1273.72 693.636 1291.62 726.91 1337.41 726.91C1383.2 726.91 1402.61 693.636 1402.61 648.5V432.441C1402.61 387.232 1384.14 353.959 1337.41 353.959C1290.67 353.959 1273.72 387.232 1273.72 432.441V648.5Z" fill="#303030"/>
<path d="M1561.87 332.621C1625.55 332.621 1651.2 367.63 1651.2 426.654V462.821C1651.2 511.574 1632.14 539.494 1591.06 548.97C1633.88 558.518 1651.2 588.826 1651.2 633.962V699.062C1651.2 716.277 1652.36 735.228 1661.27 748.972H1632.72C1625.48 736.53 1623.81 721.63 1623.81 699.062V633.962C1623.81 578.699 1593.46 563.22 1545.78 563.22H1502.31V748.61H1474.99V332.621H1561.87ZM1546.43 537.614C1595.19 537.614 1623.81 523.943 1623.81 468.101V428.897C1623.81 384.267 1606.5 357.576 1561.29 357.576H1502.31V537.614H1546.43Z" fill="#303030"/>
<path d="M1784.51 588.753L1691.05 332.621H1719.67L1799.37 551.285L1879.06 332.621H1905.8L1811.61 588.753V748.61H1784.51V588.753Z" fill="#303030"/>
</svg>
