<svg width="1920" height="1080" viewBox="0 0 1920 1080" fill="none" xmlns="http://www.w3.org/2000/svg">
<path d="M629.802 914.881C629.588 911.611 628.673 908.425 627.119 905.54C625.635 902.211 623.409 899.224 622.953 895.381C622.8 894.049 621.355 892.869 620.575 891.576C618.425 888.075 615.856 884.803 615.609 880.408C615.238 878.023 614.087 875.829 612.337 874.168C609.806 871.143 607.409 868.118 607.676 863.761C607.622 862.658 607.335 861.579 606.833 860.595C606.331 859.611 605.626 858.745 604.765 858.054C602.496 855.695 600.9 852.772 600.142 849.588C599.277 845.98 597.649 842.6 595.367 839.676C593.942 838.027 593.076 835.969 592.893 833.797C592.456 827.272 587.89 823.41 583.476 819.547C582.428 818.74 581.211 818.182 579.915 817.915C578.62 817.648 577.281 817.679 575.999 818.006C568.504 819.319 560.779 819.205 553.455 821.336C548.43 822.775 543.211 823.417 537.988 823.238C532.984 823.048 527.981 823.238 522.977 823.124C518.624 823.259 514.278 822.707 510.097 821.488C506.064 820.156 501.821 821.488 497.826 820.137C494.162 818.795 490.31 818.038 486.411 817.892C482.606 817.778 478.611 817.207 474.711 816.903C472.521 816.865 470.378 816.263 468.49 815.153C462.782 811.348 456.162 810.035 449.465 808.856C445.11 808.386 440.975 806.698 437.536 803.985C436.345 803.028 434.893 802.451 433.37 802.33C431.467 802.045 429.565 801.588 427.662 801.36C426.464 801.287 425.292 800.972 424.219 800.432C423.147 799.893 422.195 799.14 421.422 798.221C419.523 796.1 416.949 794.702 414.136 794.263C410.882 793.732 407.929 792.043 405.822 789.507C404.677 788.147 403.11 787.209 401.37 786.844C399.715 786.368 398.117 785.607 396.462 785.094C395.189 784.798 393.997 784.225 392.971 783.416C391.945 782.607 391.11 781.582 390.526 780.413C390.261 779.688 389.833 779.034 389.276 778.5C388.718 777.965 388.046 777.566 387.311 777.331C381.242 775.943 377.266 771.415 372.814 767.667C366.517 762.378 360.505 756.746 353.903 751.781C353.342 751.446 352.857 750.999 352.476 750.468C349.261 744.437 343.268 740.728 339.615 735.077C337.246 731.961 335.206 728.607 333.527 725.07C333.084 723.379 332.151 721.857 330.845 720.694C327.04 717.974 325.594 713.864 323.939 709.869C323.523 708.177 322.715 706.606 321.58 705.284C318.25 702.411 317.09 698.416 315.872 694.478C315.547 692.551 314.749 690.734 313.551 689.189C311.498 686.904 310.202 684.04 309.842 680.989C309.003 676.723 307.728 672.553 306.037 668.547C304.625 664.667 303.655 660.64 303.145 656.543C301.522 645.137 300.733 633.628 300.786 622.108C301.039 619.299 301.536 616.517 302.27 613.794C302.954 609.304 303.069 604.681 305.694 600.667C306.108 599.663 306.34 598.593 306.379 597.508C307.773 591.135 310.802 585.234 315.168 580.386C316.466 579.229 317.52 577.826 318.27 576.258C318.636 574.886 319.317 573.618 320.258 572.555C321.199 571.492 322.375 570.662 323.692 570.132C325.298 569.406 326.564 568.091 327.23 566.46C327.83 565.178 328.679 564.029 329.728 563.078C330.776 562.128 332.003 561.395 333.337 560.924C334.748 560.309 336.037 559.445 337.142 558.374C341.08 554.569 345.894 551.963 350.117 548.519C351.301 547.577 352.689 546.926 354.169 546.617C357.567 545.813 360.765 544.324 363.568 542.241C367.373 539.559 371.996 538.874 376.124 536.933C377.813 536.528 379.564 536.457 381.28 536.724C384.977 536.888 388.651 536.054 391.915 534.308C395.601 532.453 399.578 531.243 403.672 530.731C413.812 528.924 424.029 529.228 434.207 529.095C452.471 528.848 470.735 529.095 488.999 529.095C494.44 529.095 499.881 528.829 505.303 528.791C513.788 528.791 522.267 528.791 530.739 528.791C532.889 528.791 535.058 529.209 537.227 529.323C543.6 529.628 546.397 527.592 548.147 521.447C549.067 518.298 549.185 514.969 548.489 511.763C547.916 508.768 547.693 505.716 547.823 502.669C548.052 492.681 547.443 482.674 548.699 472.705C548.998 469.444 548.735 466.155 547.919 462.984C546.72 457.676 543.41 454.917 538.102 455.64C533.824 456.334 529.462 456.334 525.184 455.64C524.111 455.412 523.003 455.412 521.931 455.64C516.794 456.896 511.562 456.496 506.349 456.629C503.096 456.76 499.839 456.556 496.628 456.02C494.057 455.59 491.453 455.386 488.846 455.412C468.185 455.412 447.524 455.412 426.863 455.412C423.605 455.432 420.352 455.66 417.123 456.097C409.786 456.972 402.371 456.972 395.035 456.097C391.581 455.673 388.107 455.438 384.628 455.393H273.104C268.759 455.208 264.405 455.463 260.111 456.154C257.74 456.509 255.325 456.444 252.976 455.963C250.617 455.593 248.23 455.421 245.842 455.45C244.535 455.375 243.227 455.565 241.995 456.006C240.763 456.448 239.632 457.133 238.67 458.02C237.708 458.908 236.934 459.98 236.395 461.172C235.855 462.365 235.561 463.654 235.53 464.962C234.709 471.442 234.563 477.99 235.093 484.501C235.27 485.569 235.334 486.653 235.283 487.735C234.046 499.683 236.291 511.649 234.884 523.578C234.807 524.661 234.807 525.748 234.884 526.831C235.055 542.679 235.34 558.545 235.397 574.393C235.397 583.297 234.788 592.219 235.074 601.028C235.34 609.266 234.96 617.561 236.253 625.76C236.623 627.902 236.719 630.082 236.539 632.248C236.067 638.317 235.908 644.407 236.063 650.493C236.063 665.275 235.568 680.095 236.177 694.84C236.881 711.6 236.577 728.323 236.71 745.065C236.71 749.612 236.348 754.178 236.253 758.744C236.164 761.561 236.228 764.381 236.444 767.191C236.928 771.087 236.702 775.038 235.778 778.853C234.951 781.793 234.795 784.882 235.321 787.89C236.196 792.856 235.626 797.878 235.854 802.863C236.025 806.668 233.951 809.445 231.802 812.204C231.291 812.778 230.659 813.231 229.952 813.531C229.244 813.83 228.479 813.968 227.711 813.935C224.875 814.088 222.042 813.58 219.435 812.451C214.214 810.307 208.781 808.719 203.226 807.714C199.779 807.292 196.501 805.981 193.714 803.909C192.279 802.906 190.591 802.327 188.843 802.235C183.478 801.398 178.132 800.504 172.767 799.59C168.874 799.041 165.215 797.406 162.209 794.872C161.162 794.077 160.344 793.02 159.836 791.807C159.328 790.595 159.149 789.27 159.317 787.966C160.611 778.644 159.945 769.284 159.945 759.962C159.945 673.411 159.945 586.867 159.945 500.329C159.945 490.322 159.945 480.315 159.945 470.308C159.945 468.577 159.945 466.827 159.945 465.095C159.922 462.673 158.987 460.349 157.326 458.586C155.665 456.823 153.4 455.75 150.984 455.583C148.823 455.358 146.649 455.275 144.477 455.336H56.4114C53.805 455.336 51.1795 455.24 48.5731 455.336C47.2682 455.36 45.9738 455.098 44.7807 454.569C43.5877 454.04 42.5249 453.256 41.6671 452.273C39.236 449.489 37.1297 446.438 35.3889 443.179C34.8182 442.246 34.685 440.934 33.943 440.287C29.9668 436.824 27.836 431.935 24.4306 428.168C21.6347 425.137 19.2373 421.761 17.2963 418.123C16.9919 417.533 16.8016 416.905 16.4972 416.335C14.8801 413.234 10.942 412.073 10.0478 408.325C9.15362 404.577 6.24282 402.618 3.82666 400.125C3.04094 399.375 2.29781 398.581 1.60075 397.747C0.919171 396.96 0.434766 396.021 0.187567 395.01C-0.0596326 393.998 -0.0625294 392.942 0.179117 391.929C0.420764 390.916 0.900016 389.975 1.57727 389.184C2.25452 388.393 3.11034 387.774 4.07399 387.379C5.65246 386.622 7.38397 386.237 9.1346 386.256C21.2915 386.047 33.3723 384.658 45.5862 384.906C64.2686 385.267 82.9891 384.906 101.672 384.906C109.719 384.906 117.748 384.354 125.776 384.068C128.825 383.911 131.879 384.226 134.832 385.001C138.41 385.953 142.107 386.389 145.809 386.294C152.335 386.294 158.841 386.294 165.367 386.294C166.455 386.33 167.545 386.26 168.62 386.085C169.329 386 170.013 385.772 170.631 385.413C171.249 385.055 171.787 384.574 172.212 384.001C172.638 383.428 172.942 382.773 173.106 382.078C173.27 381.383 173.291 380.662 173.167 379.959C172.159 375.241 170.427 370.694 165.995 368.088C164.826 367.531 163.787 366.735 162.945 365.752C162.103 364.769 161.476 363.62 161.105 362.38C160.896 361.418 160.49 360.509 159.914 359.711C159.338 358.912 158.604 358.241 157.757 357.738C155.249 356.263 153.357 353.932 152.43 351.174C150.98 347.553 149.061 344.137 146.722 341.015C144.059 337.458 141.643 333.405 142.023 328.478C142.095 327.058 141.875 325.639 141.377 324.307C140.88 322.976 140.116 321.76 139.131 320.735C137.376 318.521 136.424 315.778 136.43 312.954C135.46 303.194 135.631 293.415 135.174 283.655C135.122 281.481 135.34 279.308 135.821 277.187C136.403 274.43 136.759 271.63 136.887 268.816C136.814 265.551 137.922 262.369 140.007 259.855C140.801 259.101 141.428 258.188 141.844 257.174C142.26 256.161 142.458 255.071 142.423 253.977C142.281 251.189 143.238 248.457 145.086 246.367C147.426 242.999 150.242 239.898 151.65 235.941C151.976 235.117 152.49 234.38 153.15 233.789C153.811 233.198 154.6 232.769 155.455 232.535C156.611 232.222 157.671 231.627 158.541 230.804C159.411 229.98 160.063 228.954 160.439 227.817C160.814 226.67 161.481 225.64 162.376 224.83C163.27 224.019 164.36 223.455 165.538 223.194C166.521 222.982 167.44 222.54 168.22 221.905C169 221.27 169.62 220.461 170.028 219.541C170.585 218.354 171.434 217.326 172.495 216.555C173.556 215.783 174.795 215.292 176.097 215.128C177.352 214.861 178.589 214.291 179.902 214.119C181.098 214.052 182.258 213.691 183.28 213.067C184.303 212.443 185.155 211.576 185.761 210.543C186.362 209.63 187.177 208.879 188.136 208.355C189.095 207.831 190.167 207.55 191.26 207.537C195.197 207.389 198.987 205.997 202.085 203.561C203.013 203.002 204.04 202.628 205.11 202.457C206.392 202.275 207.633 201.876 208.781 201.278C211.921 198.747 215.611 198.766 219.283 198.443C225.124 197.929 230.964 197.339 236.805 196.75C245.671 195.837 254.555 195.057 263.44 196.997C264.694 197.239 265.967 197.373 267.245 197.397C275.502 197.72 283.758 198.005 291.977 198.386C293.708 198.386 295.44 198.747 297.152 198.995C300.386 199.451 303.582 200.06 306.836 200.383C310.54 200.606 314.127 201.765 317.261 203.751C319.475 205.144 322.011 205.944 324.624 206.072C328.524 206.49 332.386 207.118 336.286 207.48C339.164 207.553 341.898 208.756 343.896 210.828C344.977 212.076 346.385 212.997 347.962 213.488C349.538 213.979 351.22 214.02 352.819 213.606C354.856 213.13 356.983 213.197 358.986 213.802C360.99 214.406 362.799 215.526 364.234 217.049C366.991 219.505 370.389 221.127 374.031 221.729C377.69 222.27 381.269 223.261 384.685 224.678C385.675 225.135 386.949 225.306 387.634 226.029C390.811 229.396 395.244 230.176 399.277 231.451C401.626 231.98 403.758 233.214 405.384 234.99C406.843 236.645 408.892 237.663 411.092 237.824C413.014 238.147 414.919 238.566 416.799 239.08C417.879 239.202 418.908 239.602 419.786 240.241C422.963 243.608 427.282 244.483 431.353 245.948C433.908 246.556 436.181 248.011 437.803 250.076C438.451 250.95 439.266 251.686 440.199 252.245C441.133 252.803 442.168 253.172 443.244 253.33C447.525 254.073 451.541 255.908 454.906 258.657C457.36 260.825 461.108 261.682 464.418 262.69C469.029 263.994 473.336 266.199 477.089 269.177C478.464 270.239 480.008 271.062 481.655 271.613C487.971 273.928 493.784 277.435 498.777 281.943C500.106 283.4 501.822 284.449 503.724 284.968C506.914 285.713 509.873 287.229 512.342 289.382C513.137 290.123 514.05 290.728 515.044 291.17C521.721 293.377 527.239 297.6 533.136 301.158C534.077 301.692 535.089 302.089 536.142 302.338C539.691 303.41 543.035 305.069 546.035 307.246C547.935 308.692 549.99 309.924 552.161 310.918C552.587 311.017 552.976 311.235 553.284 311.546C556.175 315.769 560.722 317.253 565.193 318.889C566.4 319.403 567.483 320.169 568.37 321.134C570.958 323.817 574.572 324.064 577.693 325.472C580.813 326.88 581.878 330.514 585.207 331.56C586.444 331.959 587.604 332.625 588.86 332.949C590.045 333.157 591.176 333.601 592.186 334.255C593.195 334.908 594.064 335.758 594.739 336.754C595.339 337.667 596.128 338.441 597.054 339.022C597.98 339.603 599.02 339.978 600.104 340.121C600.754 340.26 601.391 340.458 602.006 340.711C607.714 342.918 609.198 346.228 607.181 352.031C605.869 355.036 603.621 357.538 600.773 359.163C597.924 360.788 594.626 361.449 591.371 361.048C589.887 360.676 588.519 359.937 587.395 358.899C583.539 355.345 578.758 352.951 573.602 351.993C571.664 351.655 569.833 350.866 568.256 349.691C564.668 347.253 560.755 345.331 556.632 343.983C552.599 342.442 548.432 341.167 544.989 338.276C543.51 337.361 541.88 336.717 540.175 336.373C536.999 335.59 534.065 334.034 531.633 331.845C529.604 330.161 527.06 329.222 524.423 329.182C520.995 328.785 517.723 327.529 514.91 325.529C510.623 322.174 505.558 319.956 500.185 319.08C497.775 318.864 495.493 317.899 493.66 316.321C492.249 315.312 490.63 314.629 488.922 314.323C483.003 312.884 477.338 310.549 472.124 307.398C469.801 305.791 467.138 304.743 464.342 304.335C460.858 303.953 457.557 302.58 454.83 300.378C453.26 299.228 451.464 298.424 449.56 298.019C442.749 295.907 435.653 294.804 429.299 291.113C426.198 289.325 422.297 288.906 418.759 287.879C417.445 287.679 416.165 287.301 414.954 286.756C409.246 283.161 402.968 281.772 396.557 280.535C394.175 280.188 391.925 279.224 390.031 277.739C387.253 275.57 383.737 274.573 380.233 274.961C377.852 275.126 375.465 274.721 373.27 273.781C371.045 272.917 368.737 272.279 366.383 271.879C363.544 271.474 360.817 270.49 358.374 268.987C355.045 266.818 350.935 266.799 347.092 266.19C344.72 265.898 342.326 265.816 339.939 265.943C336.234 266.094 332.53 265.625 328.981 264.554C325.238 263.518 321.422 262.767 317.566 262.309C315.835 262.175 314.125 261.85 312.467 261.339C304.515 258.067 296.239 258.542 288.001 259.132C283.249 259.64 278.455 259.595 273.713 258.999C269.168 258.52 264.586 258.488 260.034 258.904C258.502 258.918 257.014 259.425 255.792 260.35C252.735 262.471 249.14 263.685 245.423 263.85C240.002 264.26 234.704 265.679 229.804 268.036C226.671 269.539 223.42 270.78 220.082 271.746C218.438 272.302 216.881 273.09 215.459 274.086C212.586 275.988 209.752 278.024 206.67 279.679C204.507 280.709 202.724 282.393 201.571 284.492C200.981 285.655 200.078 286.63 198.965 287.308C196.509 288.756 194.694 291.081 193.885 293.815C193.399 295.256 192.72 296.626 191.868 297.886C189.522 300.789 188.366 304.475 188.634 308.197C188.583 309.945 188.064 311.647 187.131 313.125C185.723 316.561 185.244 320.308 185.742 323.988C186.522 331.598 187.169 339.208 187.911 346.685C188.139 349.063 188.482 351.441 188.71 353.819C188.744 354.802 188.972 355.768 189.38 356.662C189.788 357.557 190.369 358.362 191.088 359.032C193.496 361.268 195.128 364.214 195.749 367.441C195.976 368.837 196.482 370.174 197.237 371.37C197.992 372.567 198.981 373.598 200.144 374.404C201.611 375.369 202.751 376.755 203.416 378.38C204.313 380.119 205.497 381.695 206.917 383.041C207.822 384.131 208.965 385 210.258 385.58C211.55 386.161 212.959 386.438 214.375 386.39C218.941 386.256 223.507 386.294 228.054 385.99C230.649 385.781 233.258 385.781 235.854 385.99C239.088 386.294 242.36 386.39 245.614 386.39C320.648 386.39 395.669 386.39 470.678 386.39C474.159 386.448 477.633 386.045 481.008 385.191C482.839 384.55 484.78 384.285 486.716 384.411C493.831 385.438 501.079 384.411 508.157 385.933C511.363 386.615 514.685 386.544 517.859 385.724C521.249 384.86 524.8 384.86 528.19 385.724C530.709 386.425 533.392 386.251 535.8 385.229C537.097 384.655 538.5 384.358 539.919 384.358C541.337 384.358 542.74 384.655 544.038 385.229C546.697 386.231 549.588 386.456 552.37 385.876C560.121 384.754 567.991 384.715 575.752 385.762C583.519 386.78 591.386 386.78 599.153 385.762C601.303 385.31 603.511 385.195 605.697 385.419C612.821 386.294 620.005 386.58 627.176 386.275C657.178 386.275 687.181 386.275 717.183 386.275C726.105 386.275 735.028 386.39 743.932 386.39C746.974 386.517 750.022 386.396 753.045 386.028C757.304 385.134 761.703 385.134 765.962 386.028C768.124 386.412 770.351 386.091 772.317 385.115C775.174 383.933 778.377 383.899 781.258 385.02C785.772 386.753 790.762 386.787 795.299 385.115C798.614 383.964 802.219 383.964 805.534 385.115C807.971 385.997 810.555 386.398 813.144 386.294C817.805 385.895 820.183 382.299 818.395 378.038C817.181 375.251 815.815 372.533 814.305 369.895C813.433 368.368 812.101 367.156 810.5 366.432C809.184 365.901 808.031 365.035 807.153 363.92C806.276 362.806 805.704 361.481 805.496 360.078C805.37 358.99 804.912 357.967 804.183 357.148C799.865 353.02 797.848 347.331 794.31 342.67C791.699 338.919 790.01 334.603 789.382 330.076C788.91 327.755 788.095 325.518 786.966 323.436C782.933 315.351 780.383 306.885 781.525 297.715C782.077 293.401 782.077 289.034 781.525 284.721C780.593 277.51 781.848 270.414 783.218 263.375C783.353 261.85 783.841 260.378 784.645 259.075C787.404 255.689 788.031 251.617 788.849 247.66C789.301 244.406 790.844 241.401 793.225 239.137C794.257 238.32 795.062 237.252 795.565 236.036C797.601 230.329 801.577 225.515 803.803 219.865C804.487 218.255 805.684 216.917 807.208 216.06C810.768 213.929 813.793 211.014 816.055 207.537C816.576 206.579 817.371 205.797 818.338 205.292C822.333 203.922 825.168 200.707 828.916 198.976C832.353 197.129 835.676 195.077 838.866 192.831C844.687 189.197 850.547 185.221 857.548 184.06C860.124 183.651 862.574 182.669 864.721 181.187C867.813 179.159 871.326 177.858 874.994 177.382C878.799 176.774 882.604 175.708 886.409 174.738C891.018 173.392 895.782 172.651 900.582 172.531C903.859 172.763 907.122 171.929 909.886 170.153C912.853 168.041 916.525 168.25 919.931 167.756C923.736 167.09 927.674 166.709 931.555 166.291C933.27 165.995 935.016 165.924 936.749 166.082C941.726 166.548 946.732 166.624 951.721 166.31C963.669 166.31 975.635 166.31 987.564 166.824C994.508 167.109 1001.43 168.041 1008.3 169.011C1012.79 169.756 1017.23 170.727 1021.62 171.922C1025.42 172.874 1029.23 173.577 1033.03 174.281C1038.36 175.29 1043.69 176.184 1049 177.325C1052.8 178.086 1056.13 180.274 1059.92 181.34C1062.98 182.372 1066.19 182.924 1069.43 182.976C1072.71 182.798 1075.95 183.796 1078.56 185.791C1081.62 187.805 1085.06 189.177 1088.66 189.825C1095.34 191.518 1102.17 192.678 1108.68 195.532C1116.04 198.671 1123.74 201.049 1130.73 205.045C1132.29 205.793 1133.97 206.269 1135.69 206.452C1139.97 207.289 1144.21 208.012 1147.32 211.646C1148.95 213.549 1151.6 213.777 1153.94 213.986C1157.65 214.225 1161.2 215.629 1164.08 218C1167.01 220.27 1170.41 221.861 1174.03 222.662C1177.89 223.425 1181.47 225.22 1184.4 227.855C1185.64 229.088 1187.23 229.911 1188.96 230.214C1192.22 230.697 1195.23 232.21 1197.56 234.533C1199.49 236.315 1201.98 237.377 1204.6 237.539C1209.35 238.123 1213.78 240.256 1217.19 243.608C1218.87 245.302 1221 246.489 1223.32 247.032C1226.98 247.738 1230.35 249.512 1233 252.131C1234.07 253.236 1235.45 253.981 1236.96 254.262C1239.75 254.838 1242.34 256.152 1244.46 258.067C1246.54 260.004 1249.23 261.166 1252.07 261.358C1253.18 261.328 1254.28 261.573 1255.28 262.071C1256.27 262.568 1257.13 263.304 1257.77 264.212C1258.79 265.631 1260.08 266.828 1261.57 267.731C1263.06 268.634 1264.72 269.223 1266.45 269.463C1269.08 269.805 1271.46 271.173 1273.09 273.268C1274.56 274.879 1276.46 276.029 1278.57 276.578C1282.56 278.195 1286.84 279.356 1289.6 283.161C1290.36 283.927 1291.33 284.461 1292.38 284.702C1297.2 286.061 1301.68 288.428 1305.53 291.646C1306.57 292.441 1307.72 293.081 1308.95 293.548C1310.19 293.968 1311.36 294.543 1312.45 295.26C1315.9 298.601 1320.18 300.947 1324.86 302.052C1325.3 302.128 1325.7 302.349 1326 302.68C1329.69 307.056 1335.15 308.216 1340.04 310.423C1341.69 310.995 1343.09 312.116 1344.01 313.6C1344.69 314.843 1345.67 315.9 1346.85 316.676C1348.04 317.453 1349.39 317.925 1350.81 318.052C1353.41 318.466 1355.8 319.723 1357.62 321.629C1358.92 323.133 1360.75 324.068 1362.73 324.235C1363.94 324.298 1365.11 324.644 1366.15 325.246C1367.19 325.848 1368.07 326.688 1368.73 327.698C1370.61 330.12 1373.24 331.863 1376.2 332.663C1377.7 332.915 1379.12 333.522 1380.33 334.433C1383.52 337.704 1387.56 340.012 1391.99 341.091C1395.69 342.233 1396.86 345.429 1395.27 348.911C1394.01 351.669 1392.39 354.276 1390.87 356.901C1390.07 358.222 1388.82 359.213 1387.35 359.698C1385.45 360.364 1383.55 360.934 1381.76 361.448C1380.61 361.805 1379.38 361.843 1378.21 361.559C1377.03 361.274 1375.96 360.677 1375.1 359.831L1372.68 357.643C1370.3 355.384 1367.22 353.991 1363.95 353.686C1359.14 353.475 1354.52 351.713 1350.79 348.663C1348.12 346.74 1345 345.547 1341.73 345.201C1337.67 344.379 1333.84 342.685 1330.51 340.235C1328.24 338.548 1325.58 337.48 1322.78 337.134C1318.91 336.64 1315.17 335.406 1311.77 333.5C1308.08 331.427 1303.62 330.685 1299.5 329.429C1295.37 328.173 1291.6 327.07 1288.4 324.178C1287.37 323.384 1286.18 322.831 1284.9 322.561C1281.97 321.762 1279.01 321.096 1276.04 320.449C1272.23 319.65 1268.43 318.756 1265.46 315.807C1264.16 314.627 1262.51 313.905 1260.76 313.753C1257.98 313.353 1255.19 312.896 1252.41 312.402C1248.98 311.793 1245.37 311.47 1242.52 309.396C1239.82 307.533 1236.66 306.454 1233.38 306.276C1226.09 305.261 1219.01 303.029 1212.46 299.674C1209.36 298.11 1206.01 297.111 1202.56 296.725C1198.85 296.621 1195.25 295.445 1192.2 293.339C1189.78 291.84 1186.97 291.079 1184.13 291.151C1176.03 290.738 1168.14 288.494 1161.03 284.587C1158.24 283.373 1155.26 282.628 1152.22 282.381C1149.45 281.886 1146.63 281.544 1143.83 281.258C1138.19 280.829 1132.65 279.546 1127.4 277.453C1122.92 275.713 1118.19 274.717 1113.39 274.504C1100.84 273.515 1088.41 271.517 1075.92 270.052C1064.06 268.683 1052.36 265.886 1040.32 266.247C1038.39 266.19 1036.47 265.89 1034.61 265.353C1031.03 264.364 1027.24 264.364 1023.65 265.353C1021.39 266.127 1018.94 266.2 1016.63 265.563C1013.68 264.752 1010.57 264.699 1007.6 265.41C1004.4 266.085 1001.1 266.143 997.876 265.582C994.64 265.096 991.344 265.173 988.135 265.81C985.358 266.36 982.49 266.249 979.764 265.487C975.758 264.369 971.531 264.303 967.493 265.296C964.296 265.964 961.037 266.283 957.771 266.247C954.291 266.162 950.819 266.617 947.479 267.598C940.458 269.9 933.134 271.004 926.133 273.42C922.061 274.809 917.686 275.208 913.9 277.529C910.114 279.85 906.176 281.334 902.39 283.465C894.78 287.574 889.396 294.252 883.46 300.264C882.524 301.186 881.825 302.322 881.424 303.574C880.631 306.728 879.299 309.721 877.486 312.421C876.193 314.323 876.44 316.587 876.421 318.756C876.64 323.322 876.295 327.897 875.393 332.378C874.86 334.744 875.219 337.224 876.402 339.341C878.734 344.262 880.214 349.544 880.778 354.96C881.037 358.473 882.518 361.785 884.963 364.321C888.277 367.771 890.916 371.81 892.744 376.23C894.332 379.57 897.136 382.176 900.582 383.517C904.712 385.477 909.215 386.521 913.786 386.58C941.181 386.428 968.577 386.275 995.973 386.275C1086.65 386.275 1177.33 386.275 1268.03 386.275C1273.74 386.275 1279.33 386.18 1284.98 386.275C1290.84 386.426 1296.71 385.928 1302.46 384.791C1309.5 383.23 1316.82 383.406 1323.77 385.305C1328.61 386.655 1333.69 386.882 1338.63 385.971C1342.49 385.344 1346.4 385.077 1350.31 385.172C1355.09 385.264 1359.87 385.004 1364.62 384.392C1370 383.439 1375.54 383.845 1380.73 385.571C1382.79 386.32 1385.03 386.439 1387.16 385.914C1389.93 385.344 1392.76 385.114 1395.59 385.229C1397.76 385.23 1399.92 385.02 1402.04 384.601C1405.65 383.672 1409.46 383.911 1412.92 385.286C1415.59 386.259 1418.43 386.655 1421.25 386.447C1431.26 386.447 1441.25 386.351 1451.26 386.351H1848.44H1858.88C1861.47 386.424 1864.05 386.03 1866.49 385.191C1869.08 384.342 1871.88 384.485 1874.37 385.593C1876.85 386.701 1878.83 388.694 1879.93 391.184C1881.16 394.361 1882.46 397.158 1885.63 398.68C1886.03 398.876 1886.36 399.179 1886.58 399.555C1890.39 406.347 1895.98 411.978 1900.22 418.58C1901.5 420.358 1902.58 422.272 1903.44 424.287C1904.28 427.003 1906.09 429.309 1908.54 430.755C1909.85 431.551 1910.89 432.725 1911.53 434.123C1913.35 437.84 1915.67 441.295 1918.41 444.396C1921.02 447.345 1920.31 450.522 1917.04 452.634C1913.95 454.697 1910.32 455.802 1906.6 455.811C1878.56 455.634 1850.51 455.532 1822.45 455.507C1820.28 455.469 1818.11 455.564 1815.94 455.792C1813.97 455.931 1812.1 456.746 1810.65 458.1C1809.2 459.455 1808.26 461.267 1807.99 463.231C1807.12 467.271 1806.67 471.389 1806.64 475.521C1806.64 509.88 1806.64 544.239 1806.76 578.579C1806.76 588.091 1806.13 597.603 1807.38 607.249C1807.93 611.416 1805.48 615.201 1803.01 618.531C1798.99 624.048 1793.82 627.758 1786.53 627.453C1785.01 627.423 1783.48 627.563 1781.98 627.872C1775.97 628.918 1770 629.565 1763.95 627.701C1761.81 627.266 1759.62 627.202 1757.46 627.511C1744.43 628.329 1731.38 627.625 1718.35 627.701C1705.73 627.701 1693.12 627.929 1680.53 627.263C1673.37 626.883 1666.18 627.606 1659.01 627.701C1650.13 627.815 1641.21 627.859 1632.26 627.834C1621.16 627.942 1610.11 629.153 1599.25 631.449C1597.15 631.984 1595.15 632.831 1593.3 633.96C1590.02 635.748 1586.73 637.251 1582.78 636.395C1581.59 636.191 1580.37 636.273 1579.22 636.634C1578.06 636.994 1577.02 637.623 1576.16 638.469C1574.99 639.458 1573.91 640.923 1572.58 641.247C1563.54 643.491 1559.26 652.053 1551.99 656.581C1551.27 657.05 1550.68 657.707 1550.3 658.483C1548.83 661.875 1546.85 665.019 1544.42 667.805C1543.32 669.443 1542.76 671.387 1542.82 673.36C1542.45 677.26 1541.81 681.131 1540.92 684.947C1540.12 688.346 1540.01 691.874 1540.62 695.315C1541.87 702.811 1543.22 710.307 1544.55 717.784C1544.71 718.665 1545.04 719.507 1545.53 720.257C1550.91 728.418 1556.46 736.561 1564.55 742.345C1568.85 745.465 1573.13 749.003 1578.82 749.821C1580.97 750.212 1583.02 750.992 1584.89 752.123C1593.66 757.146 1603.23 758.287 1613.06 758.459C1622.46 758.63 1631.67 756.823 1640.95 755.89C1641.4 755.899 1641.83 755.801 1642.23 755.605C1648.22 751.267 1656.08 752.161 1662.38 748.471C1664.28 747.291 1666.77 746.777 1668.46 744.951C1669.51 743.834 1670.87 743.058 1672.36 742.725C1675.51 741.817 1678.45 740.319 1681.04 738.311C1682.63 737.179 1684.3 736.174 1686.04 735.305C1687.82 734.484 1689.41 733.298 1690.7 731.824C1691.44 730.751 1692.42 729.865 1693.56 729.237C1699.07 727.182 1702.71 722.673 1707.01 719.096C1710.17 716.103 1713.73 713.544 1717.57 711.486C1719.77 710.512 1721.55 708.776 1722.57 706.597C1723.04 705.49 1723.75 704.501 1724.64 703.705C1725.54 702.908 1726.61 702.323 1727.76 701.993C1729.4 701.378 1730.81 700.284 1731.82 698.854C1735.32 695.049 1738.48 690.787 1743.54 688.714C1745.07 687.879 1746.25 686.531 1746.88 684.909C1748.07 682.586 1749.85 680.617 1752.04 679.201C1753.44 678.09 1755.22 677.57 1756.99 677.751C1758.77 677.933 1760.41 678.801 1761.55 680.171C1770.15 689.398 1780.23 696.989 1789.42 705.57C1792.43 708.385 1794.94 711.715 1798.94 713.313C1799.53 713.613 1800 714.101 1800.29 714.701C1801 716.289 1802.03 717.712 1803.32 718.884C1804.6 720.056 1806.12 720.95 1807.76 721.512C1807.97 721.595 1808.15 721.733 1808.28 721.912C1810.52 725.717 1814.1 728.133 1817.56 730.758C1821.02 733.384 1824.05 736.466 1827.3 739.396C1830.08 741.831 1833.01 744.171 1835.71 746.606C1837.39 747.971 1838.95 749.48 1840.37 751.115C1842.52 754.13 1845.18 756.745 1848.23 758.839C1849.16 759.422 1849.92 760.242 1850.42 761.216C1850.93 762.189 1851.16 763.28 1851.1 764.375C1851.32 766.977 1851.32 769.593 1851.1 772.195C1850.17 777.122 1848.63 781.707 1843.49 784.371C1839.1 786.68 1834.88 789.306 1830.86 792.228C1825.64 796.149 1819.8 799.165 1813.59 801.151C1810.05 802.216 1806.96 804.499 1803.14 804.708C1802.49 804.791 1801.88 805.085 1801.41 805.545C1798.14 808.513 1794.07 809.065 1789.99 809.521C1785.19 809.818 1780.57 811.481 1776.68 814.316C1774.17 816.218 1770.97 816.599 1768.1 817.169C1762.54 818.235 1756.95 819.072 1751.35 819.852C1748.35 820.378 1745.29 820.468 1742.26 820.118C1739.23 819.755 1736.16 820.007 1733.22 820.86C1721.7 823.885 1710.07 823.809 1698.28 822.763C1688.99 822.002 1679.75 820.175 1670.33 820.86C1666.84 821.022 1663.35 820.578 1660.02 819.547C1655.62 818.324 1651.1 817.553 1646.55 817.245C1642.84 817.182 1639.19 816.285 1635.87 814.62C1633.52 813.307 1630.83 813.326 1628.26 812.546C1622.11 810.405 1615.82 808.676 1609.43 807.372C1607.27 807.048 1605.24 806.125 1603.57 804.708C1602.22 803.599 1600.6 802.865 1598.87 802.577C1594.4 801.683 1589.93 800.865 1586.54 797.307C1585.74 796.47 1584.13 796.451 1582.95 795.9C1580.21 794.606 1576.97 793.75 1574.92 791.733C1571.25 788.099 1566.64 786.235 1562.36 783.762C1560.41 782.814 1558.65 781.526 1557.15 779.957C1556.8 779.399 1556.32 778.94 1555.74 778.625C1550.72 776.723 1547.35 772.48 1543.39 769.227C1538.77 765.422 1533.73 761.826 1530.21 756.765C1529.94 756.404 1529.75 755.947 1529.41 755.757C1524.35 752.77 1522.22 747.196 1518.3 743.201C1517.38 742.281 1516.62 741.222 1516.04 740.062C1514.72 737.556 1513.08 735.24 1511.15 733.175C1509.2 731.111 1507.74 728.633 1506.89 725.926C1506.34 723.799 1505.05 721.937 1503.25 720.675C1501.53 719.32 1500.4 717.348 1500.11 715.177C1499.14 710.935 1498.02 706.73 1494.2 703.914C1492.97 702.654 1492.22 701.007 1492.07 699.253C1490.96 694.837 1489.45 690.532 1487.56 686.393C1485.18 681.006 1483.78 675.241 1483.41 669.365C1483.13 665.479 1482.37 661.644 1481.13 657.95C1479.84 654.248 1479.28 650.336 1479.45 646.421C1479.66 642.509 1479.38 638.586 1478.63 634.74C1478.22 632.604 1478.07 630.425 1478.2 628.253C1478.42 619.787 1479.43 611.36 1481.22 603.083C1482.34 598.155 1484.25 593.57 1485.71 588.89C1486.15 587.659 1486.71 586.473 1487.39 585.351C1487.78 584.59 1488.43 583.963 1488.79 583.183C1491.65 577.076 1495.81 571.768 1499.48 566.25C1499.88 565.476 1500.39 564.769 1501.01 564.158C1507 559.497 1511.38 552.876 1517.98 549.128C1523.06 546.255 1528 543.211 1532.76 539.863C1534.47 538.907 1536.34 538.263 1538.28 537.961C1542.56 537.143 1546.57 535.281 1549.96 532.538C1552.9 530.222 1556.59 529.07 1560.33 529.304C1561.62 529.304 1562.93 529.495 1564.23 529.475C1568.17 529.652 1572.09 528.848 1575.64 527.135C1581.35 524.034 1587.72 523.749 1593.83 522.322C1595.98 521.977 1598.19 522.08 1600.3 522.627C1603.3 523.245 1606.39 523.206 1609.37 522.512C1617.97 520.42 1626.65 520.933 1635.34 521.409C1639.03 521.599 1642.7 521.923 1646.39 522.075C1648.13 522.19 1649.87 522.113 1651.59 521.846C1653.46 521.686 1655.2 520.802 1656.44 519.382C1657.68 517.962 1658.31 516.116 1658.21 514.237C1658.21 509.88 1658.51 505.561 1658.78 501.224C1658.92 499.296 1658.7 497.359 1658.11 495.516C1657.01 491.751 1656.91 487.764 1657.83 483.949C1659.02 477.967 1659.25 471.835 1658.51 465.78C1658.34 463.283 1657.29 460.927 1655.55 459.126C1653.81 457.324 1651.49 456.191 1649 455.925C1647.05 455.745 1645.1 455.688 1643.14 455.754H1608.31C1607.44 455.678 1606.57 455.678 1605.7 455.754C1595.29 457.828 1584.91 455.754 1574.5 455.754C1570.16 455.754 1565.81 455.754 1561.47 455.754H1444.03C1441.64 455.664 1439.24 455.785 1436.87 456.116C1433.48 456.951 1429.93 456.898 1426.56 455.963C1426.15 455.849 1425.72 455.773 1425.29 455.735C1418.42 454.993 1414.92 458.037 1415.01 464.886C1415.19 476.187 1415.01 487.488 1415.01 498.788C1415.01 512.74 1415.01 526.691 1415.01 540.643C1415.01 617.618 1415.01 694.592 1415.01 771.567C1415.01 782.011 1415.13 792.494 1415.13 802.882C1415.13 805.488 1414.88 808.094 1414.77 810.701C1414.76 812.017 1414.32 813.294 1413.53 814.346C1412.74 815.397 1411.63 816.167 1410.37 816.542C1407.75 817.531 1405.29 819.034 1402.34 819.053C1400.35 819.097 1398.4 819.605 1396.64 820.537C1395.06 821.284 1393.33 821.671 1391.59 821.671C1389.84 821.671 1388.11 821.284 1386.53 820.537C1384.19 819.389 1381.66 818.661 1379.06 818.387C1370.93 817.949 1363.29 815.438 1355.71 812.813C1350.56 811.024 1345.29 809.845 1340.02 808.551C1335.32 807.69 1330.72 806.339 1326.3 804.518C1324.52 803.656 1322.57 803.177 1320.59 803.11C1312.34 802.882 1305.03 799.686 1297.76 796.052C1296.05 795.119 1294.17 794.524 1292.23 794.301C1287.49 793.696 1282.78 792.833 1278.13 791.714C1275.59 791.197 1273.23 789.993 1271.32 788.233C1264.95 782.677 1264.87 782.753 1266.22 774.516C1266.26 774.08 1266.33 773.648 1266.43 773.222C1269.3 765.327 1268.03 757.412 1266.6 749.479C1265.85 745.841 1265.94 742.08 1266.87 738.483C1267.92 735.049 1268.23 731.429 1267.76 727.867C1267.06 722.255 1267.23 716.569 1268.28 711.011C1268.62 708.861 1269.21 706.616 1267.25 704.923C1264.85 702.849 1262.38 703.914 1259.9 704.923C1256.86 706.141 1254.22 708.199 1252.29 710.858C1249.73 714.359 1246.59 717.384 1243.71 720.618C1236.75 728.399 1228.49 734.925 1221.76 742.839C1217.37 747.957 1212.57 752.675 1207.81 757.431C1205.53 759.733 1203.04 761.864 1200.64 764.071C1199.64 764.891 1198.68 765.767 1197.77 766.696C1186.47 780.014 1173.51 791.562 1161.49 804.099C1160.17 805.226 1158.99 806.503 1157.97 807.904C1156.07 811.367 1153.82 814.468 1149.9 816.028C1148.69 816.504 1148.31 817.93 1147.7 819.148C1144.75 824.589 1139.46 826.492 1134.02 823.638C1126.77 819.833 1119.03 816.903 1112.31 812.014C1110.24 810.81 1107.99 809.955 1105.65 809.483C1103.92 809.265 1102.28 808.574 1100.91 807.486C1098.09 804.718 1094.4 803.011 1090.47 802.653C1087.88 802.288 1085.46 801.17 1083.51 799.438C1080.67 796.87 1076.83 796.356 1073.37 795.215C1070.88 794.503 1068.6 793.197 1066.73 791.41C1063.95 788.622 1060.43 786.693 1056.59 785.854C1052.54 784.951 1048.72 783.243 1045.34 780.832C1043.72 779.747 1041.94 778.937 1040.05 778.435C1036.04 777.401 1032.28 775.591 1028.96 773.108C1027.55 772.082 1025.94 771.374 1024.22 771.034C1019.93 770.209 1015.97 768.161 1012.81 765.136C1011.56 763.895 1009.95 763.088 1008.21 762.834C1006.08 762.397 1003.98 761.864 1001.87 761.35C1000.7 761.088 999.605 760.531 998.704 759.733C997.802 758.934 997.118 757.92 996.715 756.784C995.687 754.379 995.156 751.79 995.155 749.175C995.155 745.807 996.544 743.581 999.759 742.934C1002.71 742.245 1005.44 740.862 1007.75 738.901C1012.33 735.42 1017.98 734.24 1023.43 732.737C1025.79 732.241 1028.02 731.228 1029.95 729.769C1032.31 728.165 1035.06 727.238 1037.9 727.087C1042.42 726.334 1046.69 724.5 1050.35 721.741C1052.61 720.055 1055.3 719.016 1058.11 718.735C1062.24 718.278 1066.23 717.365 1069.24 714.017C1070.62 712.967 1072.27 712.31 1073.99 712.114C1080.26 710.303 1086.29 707.748 1091.95 704.504C1093.67 703.57 1095.59 703.073 1097.55 703.058C1102.17 702.678 1106.39 701.688 1109.89 698.093C1112.46 695.683 1115.88 694.39 1119.41 694.497C1120.93 694.497 1122.45 694.326 1123.97 694.25C1129.2 693.964 1132.8 690.882 1135.82 687.02C1136.59 686.077 1136.98 684.885 1136.93 683.671C1136.87 682.457 1136.37 681.306 1135.52 680.438C1133.74 678.198 1131.2 676.694 1128.39 676.214C1126.48 675.891 1124.58 675.586 1122.56 675.415C1119.31 675.217 1116.17 674.146 1113.47 672.314C1110.97 670.567 1108.17 669.278 1105.21 668.509C1100.59 667.251 1096.32 664.946 1092.73 661.774C1091.43 660.634 1089.93 659.744 1088.3 659.149C1080.74 656.37 1073.96 651.801 1068.55 645.832C1067.52 644.426 1066.13 643.312 1064.54 642.597C1061.29 641.321 1058.4 639.278 1056.11 636.642C1053.49 634.036 1050.75 631.544 1048.08 629.033C1046.57 627.782 1045.38 626.182 1044.62 624.371C1044.23 623.119 1043.58 621.964 1042.71 620.981C1041.84 619.997 1040.77 619.208 1039.58 618.664C1038.79 618.283 1038.1 617.733 1037.55 617.052C1037 616.371 1036.61 615.576 1036.4 614.726C1035.58 612.255 1034.21 609.999 1032.41 608.124C1029.9 605.103 1028.03 601.601 1026.93 597.832C1025.94 593.582 1023.99 589.617 1021.22 586.246C1019.05 583.829 1019.05 580.538 1018.73 577.627C1018.12 572.015 1017.72 566.365 1017.17 560.752C1017.11 559.011 1016.83 557.284 1016.33 555.616C1014.81 551.292 1014.24 546.691 1014.66 542.127C1015.08 535.618 1014.9 529.083 1014.1 522.607C1013.84 520.01 1013.75 517.398 1013.84 514.788C1013.84 500.837 1013.84 486.917 1013.84 473.029C1013.84 470.651 1013.84 468.253 1013.84 465.856C1013.65 459.94 1012.73 458.741 1007.33 456.82C1004.67 455.842 1001.85 455.365 999.017 455.412C991.407 455.583 983.797 455.031 976.187 456.363C974.031 456.678 971.836 456.62 969.7 456.192C962.591 455.204 955.397 454.974 948.24 455.507C941.771 455.792 938.366 459.103 937.3 465.4C936.765 469.059 936.543 472.757 936.635 476.453C936.635 552.997 936.635 629.54 936.635 706.083C936.635 710.649 936.635 715.215 936.635 719.781C936.379 724.785 936.834 729.801 937.985 734.678C938.373 735.907 938.553 737.193 938.518 738.483C937.681 747.995 938.632 757.507 937.414 767.02C935.814 778.678 936.219 790.523 938.613 802.045C939.812 807.543 937.376 811.766 934.18 815.762C933.64 816.448 932.932 816.986 932.126 817.322C924.516 820.156 916.906 822.801 908.782 819.224C906.355 818.235 903.786 817.638 901.172 817.455C893.405 816.573 885.835 814.426 878.761 811.1C876.144 809.994 873.326 809.443 870.485 809.483C865.257 809.248 860.151 807.83 855.551 805.336C850.705 802.856 845.371 801.478 839.931 801.303C836.936 801.021 833.985 800.383 831.142 799.4C824.026 797.498 817.463 793.693 809.891 793.445C809.453 793.441 809.019 793.351 808.616 793.179C801.824 790.363 794.937 787.814 788.05 785.246C787.023 784.851 786.161 784.117 785.608 783.165C785.054 782.214 784.842 781.102 785.006 780.014C785.102 774.592 785.273 769.151 785.273 763.71C785.273 710.44 785.273 657.17 785.273 603.901C785.273 559.332 785.273 514.757 785.273 470.175C785.273 468.272 785.273 466.256 785.273 464.315C784.968 459.559 783.599 457.961 778.899 456.515C775.971 455.666 772.929 455.275 769.882 455.355C757.477 455.355 745.08 455.355 732.688 455.355H645.174C640.392 455.049 635.6 455.762 631.114 457.447C629.561 457.968 628.223 458.987 627.308 460.345C626.393 461.704 625.952 463.327 626.054 464.962C626.149 472.8 626.149 480.62 626.149 488.439C626.149 503.659 626.149 518.879 625.863 534.099C625.654 544.524 625.179 555.026 626.472 565.375C626.66 566.34 626.608 567.336 626.319 568.275C626.03 569.214 625.514 570.067 624.817 570.759C623.103 572.415 621.676 574.344 620.594 576.467C619.784 578.029 618.568 579.343 617.074 580.272C615.231 581.435 613.592 582.895 612.223 584.59C610.557 586.635 608.149 587.935 605.526 588.205C602.524 588.724 599.476 588.922 596.432 588.795C589.919 588.29 583.371 588.463 576.893 589.309C574.955 589.565 572.991 589.565 571.053 589.309C559.789 588.297 548.461 588.246 537.189 589.156C535.679 589.321 534.159 589.371 532.642 589.309C519.324 588.148 506.14 588.852 492.88 588.852C479.619 588.852 465.921 588.852 452.433 588.738C446.335 588.434 440.231 589.201 434.397 591.002C427.316 593.7 420.041 595.856 412.633 597.451C411.788 597.667 410.98 598.007 410.236 598.46C400.438 603.653 390.716 609.114 383.22 617.484C379.53 621.575 375.04 625.247 373.004 630.802C372.632 631.814 371.97 632.693 371.102 633.332C368.804 635.019 367.243 637.526 366.745 640.333C366.197 642.678 365.153 644.877 363.682 646.783C362.903 647.696 362.323 648.761 361.98 649.911C361.636 651.061 361.535 652.27 361.684 653.461C361.919 656.504 361.642 659.564 360.866 662.516C358.355 675.967 359.611 689.379 361.247 702.773C361.591 704.703 362.192 706.578 363.035 708.347C365.535 714.119 367.552 720.088 369.066 726.193C369.336 727.475 369.962 728.656 370.873 729.598C373.573 732.455 375.624 735.862 376.885 739.586C377.189 740.385 377.456 741.489 378.084 741.85C383.43 745.198 385.465 751.362 390.088 755.358C391.249 756.347 392.314 757.431 393.551 758.345C395.365 759.555 396.813 761.239 397.736 763.215C398.163 764.219 398.807 765.116 399.623 765.84C400.439 766.564 401.407 767.097 402.455 767.4C403.509 767.681 404.498 768.166 405.365 768.827C410.083 773.165 416.019 775.524 421.289 778.948C422.588 779.725 423.943 780.405 425.341 780.984C428.309 782.316 431.658 783.115 434.207 784.998C437.836 787.386 441.973 788.891 446.288 789.393C461.186 792.313 476.393 793.336 491.548 792.437C493.931 792.321 496.306 792.079 498.663 791.714C504.45 790.701 510.297 790.065 516.166 789.812C519.858 789.671 523.53 789.213 527.143 788.442C528.704 788.271 530.199 787.722 531.5 786.844C535.077 784.35 539.188 782.727 543.505 782.107C550.144 780.737 554.691 776.399 559.086 771.966C560.317 770.682 560.994 768.966 560.973 767.187C560.951 765.408 560.233 763.709 558.972 762.454C554.653 758.649 553.512 753.74 552.96 748.49C552.814 746.092 551.877 743.811 550.297 742.002C547.57 739.133 546.022 735.344 545.959 731.386C545.935 727.878 544.574 724.51 542.154 721.969C541.263 721.012 540.507 719.936 539.909 718.773C537.759 714.625 538.33 711.962 542.078 709.165C544.886 707.132 547.926 705.439 551.134 704.124C556.651 701.727 562.663 700.642 567.819 697.237C570.981 695.271 574.656 694.291 578.377 694.421C590.325 694.421 602.292 693.964 614.239 694.706C618.803 695.03 623.216 696.481 627.081 698.93C630.368 701.039 633.846 702.835 637.469 704.295C638.966 704.633 640.33 705.408 641.388 706.521C643.195 709.244 645.707 711.427 648.655 712.837C649.334 713.216 649.926 713.734 650.391 714.357C650.856 714.979 651.186 715.693 651.357 716.452C652.656 720.391 654.806 723.995 657.654 727.011C659.893 729.431 661.083 732.638 660.964 735.933C660.964 744.19 660.964 752.434 660.964 760.666C661.071 762.294 660.808 763.925 660.195 765.437C659.582 766.949 658.635 768.303 657.426 769.398C655.109 771.722 653.38 774.566 652.384 777.693C651.455 780.136 649.947 782.316 647.989 784.047C644.184 787.319 641.616 791.771 637.316 794.53C634.938 796.033 632.674 797.764 630.315 799.286C628.11 800.667 626.175 802.441 624.608 804.518C623.911 805.376 623.531 806.447 623.531 807.552C623.531 808.657 623.911 809.729 624.608 810.587C625.369 811.633 626.244 812.603 627.062 813.631C632.066 819.89 637.069 826.13 642.016 832.446C642.71 833.553 643.345 834.697 643.918 835.871C644.614 837.218 645.512 838.45 646.581 839.524C649.333 842.005 651.648 844.931 653.43 848.18C654.782 850.149 656.303 851.995 657.977 853.697C661.497 857.787 665.378 861.669 667.166 867.015C667.606 868.495 668.592 869.753 669.925 870.534C672.583 872.065 674.582 874.525 675.537 877.44C676.01 878.665 676.721 879.784 677.63 880.731C681.911 885.069 684.346 890.91 689.14 894.829C689.46 895.121 689.747 895.446 689.996 895.799C692.717 899.49 694.087 903.904 687.2 905.464C681.911 906.681 681.359 910.62 680.921 914.843L629.802 914.881ZM1262.72 520.077C1262.72 504.629 1262.72 489.194 1262.72 473.771C1262.72 471.164 1262.72 468.558 1262.61 465.951C1262.69 463.309 1261.72 460.741 1259.91 458.811C1258.1 456.882 1255.6 455.748 1252.96 455.659C1250.58 455.452 1248.19 455.37 1245.81 455.412H1182.55C1180.59 455.37 1178.64 455.434 1176.69 455.602C1173.96 455.799 1171.39 456.97 1169.46 458.901C1167.52 460.832 1166.34 463.395 1166.13 466.123C1165.88 468.71 1165.88 471.336 1165.88 473.942C1165.88 512.41 1165.88 550.885 1165.88 589.366C1165.88 592.638 1166.36 595.853 1166.65 599.087C1167.33 607.287 1167.96 615.506 1166.44 623.82C1165.01 631.349 1165.67 639.124 1168.34 646.307C1170.31 651.119 1172.6 655.797 1175.19 660.309C1178.14 665.846 1183.16 667.501 1188.98 666.74C1196.31 665.684 1203.34 663.091 1209.6 659.13C1211.91 657.569 1214.49 656.452 1217.21 655.839C1221.72 655.04 1226.12 654.107 1229.77 651.006C1230.83 650.234 1232.05 649.725 1233.35 649.522C1238.6 648.135 1243.65 646.083 1248.38 643.415C1249.95 642.667 1251.58 642.062 1253.27 641.608C1255.83 640.975 1258.12 639.496 1259.74 637.407C1261.37 635.319 1262.24 632.744 1262.23 630.098C1262.84 621.229 1262.8 612.326 1262.09 603.463C1261.27 595.674 1261.22 587.824 1261.92 580.025C1262.47 573.29 1262.72 566.593 1262.72 559.839C1262.71 546.598 1262.71 533.344 1262.72 520.077Z" fill="#D5421C"/>
<path d="M1433.49 297.905C1429.13 297.733 1423.46 297.714 1417.85 297.258C1414.36 296.847 1411.05 295.536 1408.22 293.453C1405.88 291.878 1403.32 290.666 1400.61 289.857C1396.6 288.773 1392.99 286.553 1390.21 283.465C1389.02 282.191 1387.67 281.084 1386.19 280.173C1383.2 278.271 1380.48 276.064 1379.95 272.24C1379.75 271.382 1379.29 270.606 1378.64 270.014C1373.84 265.524 1373.84 258.999 1371.58 253.424C1371.33 252.592 1371.28 251.71 1371.45 250.856C1372.47 243.532 1372.17 236.074 1373.84 228.825C1374.12 226.9 1374.77 225.047 1375.75 223.365C1378.71 218.8 1382.07 214.515 1385.81 210.561C1387.29 208.976 1388.98 207.6 1390.83 206.471C1394.07 204.702 1397.44 203.218 1399.89 200.288C1400.83 199.352 1402.08 198.808 1403.41 198.766C1408.2 198.521 1412.85 197.089 1416.95 194.6C1417.91 194.074 1418.97 193.757 1420.06 193.667C1426.71 192.537 1433.47 192.173 1440.2 192.583C1441.94 192.662 1443.66 192.995 1445.3 193.572C1451.22 195.723 1457.34 197.291 1463.57 198.252C1469.31 199.402 1474.64 202.092 1478.98 206.034C1484.07 210.295 1487.84 215.546 1492.12 220.416C1494.3 222.861 1495.68 225.915 1496.08 229.168C1496.65 232.374 1497.55 235.511 1498.78 238.528C1499.79 241.061 1500.24 243.78 1500.12 246.504C1499.99 249.227 1499.28 251.891 1498.04 254.319C1497.01 256.481 1496.37 258.804 1496.14 261.187C1495.58 265.315 1494.71 269.329 1491.04 272.069C1490.2 272.778 1489.55 273.678 1489.13 274.694C1487.69 277.11 1485.88 279.281 1483.75 281.125C1478.82 286.395 1472.34 288.887 1466 291.664C1464.57 292.122 1463.2 292.761 1461.93 293.567C1458.73 295.872 1454.88 297.104 1450.93 297.087C1445.63 297.6 1440.2 297.695 1433.49 297.905Z" fill="#D5421C"/>
</svg>
