<svg width="1920" height="1080" viewBox="0 0 1920 1080" fill="none" xmlns="http://www.w3.org/2000/svg">
<g clip-path="url(#clip0_16878_14275)">
<path d="M306.641 331H8.03037V345.573H212.953L0 749H298.61V734.427H93.6875L306.641 331Z" fill="#E5C349"/>
<path d="M345.008 644.463V435.389H418.471C433.194 435.389 445.388 437.768 454.905 442.526C464.72 447.136 472.007 453.53 476.766 461.709C481.524 469.739 483.904 478.661 483.904 488.624C483.904 498.587 481.524 508.401 476.766 515.539C472.156 522.676 466.059 528.178 458.474 532.045C451.039 535.762 443.306 538.141 434.829 538.885L438.993 535.911C447.916 536.06 456.244 538.439 463.828 543.049C471.412 547.658 477.361 553.755 481.822 561.636C486.432 569.369 488.663 578.142 488.663 587.659C488.663 597.176 486.134 607.882 480.93 616.656C475.725 625.281 468.141 632.121 457.879 637.325C447.916 642.233 435.573 644.76 420.851 644.76H345.008V644.463ZM370.14 623.496H418.174C432.301 623.496 443.306 620.225 451.039 613.682C459.069 606.842 462.936 597.622 462.936 585.577C462.936 573.532 458.92 564.462 450.741 557.473C442.711 550.335 431.706 546.766 417.579 546.766H370.14V623.496ZM370.14 526.84H416.687C430.219 526.84 440.48 523.717 447.47 517.323C454.608 510.929 458.177 502.304 458.177 491.3C458.177 480.297 454.608 472.267 447.47 465.872C440.48 459.478 429.922 456.356 415.794 456.356H370.14V526.84Z" fill="url(#paint0_linear_16878_14275)"/>
<path d="M598.262 648.032C583.986 648.032 570.899 645.206 559.151 639.407C547.552 633.608 538.332 624.834 531.342 613.087C524.353 601.191 520.933 585.875 520.933 567.436V435.389H546.065V567.733C546.065 581.265 548.295 592.269 552.608 600.893C557.218 609.518 563.464 615.764 571.494 619.779C579.525 623.793 588.596 625.727 599.006 625.727C609.415 625.727 618.784 623.793 626.517 619.779C634.25 615.764 640.347 609.518 644.808 600.893C649.121 592.269 651.352 581.265 651.352 567.733V435.389H676.484V567.436C676.484 586.023 673.063 601.191 666.074 613.087C659.085 624.834 649.716 633.608 637.968 639.407C626.22 645.206 613.133 648.032 598.559 648.032H598.262Z" fill="url(#paint1_linear_16878_14275)"/>
<path d="M783.406 648.032C768.089 648.032 754.705 645.207 743.403 639.705C732.101 634.203 723.327 626.322 717.081 616.359C710.836 606.396 707.861 594.797 707.861 581.711H734.183C734.183 589.89 736.116 597.474 739.834 604.463C743.552 611.303 749.054 616.656 756.341 620.969C763.776 624.984 772.848 626.917 783.555 626.917C794.262 626.917 800.954 625.43 807.497 622.456C814.338 619.333 819.394 615.021 822.666 609.667C826.235 604.314 828.019 598.217 828.019 591.377C828.019 584.537 826.235 576.656 822.666 571.6C819.245 566.395 814.635 562.232 808.687 559.109C802.739 555.986 795.749 553.161 787.719 550.782C779.986 548.254 771.807 545.428 763.182 542.752C746.675 537.25 734.481 530.261 726.748 521.785C719.015 513.457 715.148 502.602 715.148 489.219C715.148 475.836 717.676 467.955 722.881 459.33C728.235 450.705 735.819 444.163 745.634 439.255C755.597 434.348 767.345 431.82 780.878 431.82C794.411 431.82 805.713 434.348 815.528 439.255C825.491 444.163 833.224 451.152 838.875 459.925C844.377 468.55 847.203 478.513 847.203 489.814H820.881C820.881 484.015 819.394 478.364 816.42 472.713C813.446 467.211 808.836 462.602 802.739 459.033C796.79 455.315 789.206 453.382 779.986 453.382C772.402 453.233 765.71 454.423 759.613 457.248C753.813 459.776 749.203 463.642 745.931 468.55C742.808 473.457 741.172 479.554 741.172 486.84C741.172 494.126 742.511 499.033 745.336 503.346C748.311 507.509 752.474 511.078 757.828 514.052C763.479 516.878 769.874 519.406 777.309 521.785C784.745 524.164 792.924 526.841 801.846 529.815C811.959 533.235 821.03 537.398 828.763 542.306C836.793 547.064 842.89 553.309 847.352 560.893C851.962 568.477 854.192 578.143 854.192 589.89C854.192 601.637 851.516 609.37 846.162 618.292C840.957 627.065 833.224 634.203 822.814 639.854C812.405 645.504 799.467 648.181 783.704 648.181L783.406 648.032Z" fill="url(#paint2_linear_16878_14275)"/>
<path d="M887.95 644.463V435.389H913.082V644.463H887.95Z" fill="url(#paint3_linear_16878_14275)"/>
<path d="M955.911 644.463V435.389H981.043L1092.43 602.975V435.389H1117.56V644.463H1092.43L981.043 476.876V644.463H955.911Z" fill="url(#paint4_linear_16878_14275)"/>
<path d="M1160.54 644.463V435.389H1289.91V456.058H1185.67V528.922H1280.99V549.294H1185.67V623.942H1289.91V644.612H1160.54V644.463Z" fill="url(#paint5_linear_16878_14275)"/>
<path d="M1394.01 648.032C1378.69 648.032 1365.31 645.207 1354.01 639.705C1342.71 634.203 1333.93 626.322 1327.69 616.359C1321.44 606.396 1318.47 594.797 1318.47 581.711H1344.79C1344.79 589.89 1346.72 597.474 1350.44 604.463C1354.16 611.303 1359.66 616.656 1366.95 620.969C1374.38 624.984 1383.45 626.917 1394.16 626.917C1404.87 626.917 1411.56 625.43 1418.1 622.456C1424.94 619.333 1430 615.021 1433.27 609.667C1436.84 604.314 1438.62 598.217 1438.62 591.377C1438.62 584.537 1436.84 576.656 1433.27 571.6C1429.85 566.395 1425.24 562.232 1419.29 559.109C1413.34 555.986 1406.35 553.161 1398.32 550.782C1390.59 548.254 1382.41 545.428 1373.79 542.752C1357.28 537.25 1345.09 530.261 1337.35 521.785C1329.62 513.457 1325.75 502.602 1325.75 489.219C1325.75 475.836 1328.28 467.955 1333.49 459.33C1338.84 450.705 1346.42 444.163 1356.24 439.255C1366.2 434.348 1377.95 431.82 1391.48 431.82C1405.02 431.82 1416.32 434.348 1426.13 439.255C1436.1 444.163 1443.83 451.152 1449.48 459.925C1454.98 468.55 1457.81 478.513 1457.81 489.814H1431.49C1431.49 484.015 1430 478.364 1427.02 472.713C1424.05 467.211 1419.44 462.602 1413.34 459.033C1407.4 455.315 1399.81 453.382 1390.59 453.382C1383.01 453.233 1376.31 454.423 1370.22 457.248C1364.42 459.776 1359.81 463.642 1356.54 468.55C1353.41 473.457 1351.78 479.554 1351.78 486.84C1351.78 494.126 1353.12 499.033 1355.94 503.346C1358.92 507.509 1363.08 511.078 1368.43 514.052C1373.94 516.878 1380.48 519.406 1387.91 521.785C1395.35 524.164 1403.38 526.841 1412.45 529.815C1422.56 533.235 1431.63 537.398 1439.37 542.306C1447.4 547.064 1453.5 553.309 1457.96 560.893C1462.57 568.477 1464.8 578.143 1464.8 589.89C1464.8 601.637 1462.12 609.37 1456.77 618.292C1451.56 627.065 1443.83 634.203 1433.42 639.854C1423.01 645.504 1410.07 648.181 1394.31 648.181L1394.01 648.032Z" fill="url(#paint6_linear_16878_14275)"/>
<path d="M1565.33 648.032C1550.01 648.032 1536.62 645.207 1525.32 639.705C1514.02 634.203 1505.25 626.322 1499 616.359C1492.75 606.396 1489.78 594.797 1489.78 581.711H1516.1C1516.1 589.89 1518.04 597.474 1521.75 604.463C1525.47 611.303 1530.97 616.656 1538.26 620.969C1545.7 624.984 1554.77 626.917 1565.47 626.917C1576.18 626.917 1582.87 625.43 1589.42 622.456C1596.26 619.333 1601.31 615.021 1604.59 609.667C1608.15 604.314 1609.94 598.217 1609.94 591.377C1609.94 584.537 1608.15 576.656 1604.59 571.6C1601.16 566.395 1596.55 562.232 1590.61 559.109C1584.66 555.986 1577.67 553.161 1569.64 550.782C1561.91 548.254 1553.73 545.428 1545.1 542.752C1528.59 537.25 1516.4 530.261 1508.67 521.785C1500.93 513.457 1497.07 502.602 1497.07 489.219C1497.07 475.836 1499.6 467.955 1504.8 459.33C1510.15 450.705 1517.74 444.163 1527.55 439.255C1537.52 434.348 1549.26 431.82 1562.8 431.82C1576.33 431.82 1587.63 434.348 1597.45 439.255C1607.41 444.163 1615.14 451.152 1620.79 459.925C1626.3 468.55 1629.12 478.513 1629.12 489.814H1602.8C1602.8 484.015 1601.31 478.364 1598.34 472.713C1595.37 467.211 1590.76 462.602 1584.66 459.033C1578.71 455.315 1571.13 453.382 1561.91 453.382C1554.32 453.233 1547.63 454.423 1541.53 457.248C1535.73 459.776 1531.12 463.642 1527.85 468.55C1524.73 473.457 1523.09 479.554 1523.09 486.84C1523.09 494.126 1524.43 499.033 1527.26 503.346C1530.23 507.509 1534.39 511.078 1539.75 514.052C1545.4 516.878 1551.79 519.406 1559.23 521.785C1566.66 524.164 1574.84 526.841 1583.77 529.815C1593.88 533.235 1602.95 537.398 1610.68 542.306C1618.71 547.064 1624.81 553.309 1629.27 560.893C1633.88 568.477 1636.11 578.143 1636.11 589.89C1636.11 601.637 1633.44 609.37 1628.08 618.292C1622.88 627.065 1615.14 634.203 1604.73 639.854C1594.32 645.504 1581.39 648.181 1565.62 648.181L1565.33 648.032Z" fill="url(#paint7_linear_16878_14275)"/>
<path d="M1736.64 502.305C1745.71 502.305 1753.59 503.94 1760.58 507.063C1767.72 510.335 1773.22 514.944 1777.09 521.041C1781.1 527.138 1783.04 534.127 1783.04 542.305V544.685H1765.64V542.603C1765.64 536.803 1764.15 532.045 1761.33 528.327C1758.5 524.461 1754.93 521.636 1750.62 519.703C1746.16 517.918 1741.55 516.877 1736.49 516.877C1728.61 516.877 1721.92 518.811 1716.42 522.677C1710.76 526.394 1707.79 532.491 1707.64 540.67H1723.11V555.54H1707.79V642.679H1689.94V555.54H1674.63V540.67H1689.94C1690.24 532.64 1692.32 525.651 1696.34 520C1700.35 514.201 1705.86 509.888 1712.7 506.914C1719.54 503.94 1727.57 502.305 1736.49 502.305H1736.64Z" fill="url(#paint8_linear_16878_14275)"/>
<path d="M1758.35 580.373C1755.08 580.373 1752.55 580.967 1750.47 582.306C1748.39 583.644 1747.5 585.726 1747.5 588.7C1747.5 591.674 1747.94 592.12 1748.98 593.458C1750.02 594.797 1751.36 595.838 1753.15 596.581C1755.08 596.284 1757.31 595.986 1759.99 595.986C1769.51 595.986 1776.79 598.217 1782.15 602.827C1787.5 607.436 1790.62 613.236 1791.51 620.522H1774.41C1773.82 617.697 1772.18 615.318 1769.65 613.384C1767.13 611.303 1763.71 610.262 1759.69 610.262C1755.68 610.262 1751.07 611.749 1748.09 614.871C1745.27 617.845 1743.78 621.86 1743.78 626.768C1743.78 631.675 1745.27 635.541 1748.09 638.664C1751.07 641.638 1754.93 643.125 1759.69 643.125C1764.45 643.125 1766.83 642.233 1769.36 640.151C1772.03 638.069 1773.67 635.69 1774.41 633.013H1791.51C1790.62 640.299 1787.35 646.396 1781.55 651.006C1775.9 655.616 1768.61 657.846 1759.69 657.846C1750.77 657.846 1746.9 656.508 1741.85 653.831C1736.94 651.155 1733.07 647.437 1730.39 642.827C1727.72 638.069 1726.38 632.567 1726.38 626.47C1726.38 620.373 1727.57 616.21 1729.8 612.046C1732.18 607.734 1735.45 604.165 1739.76 601.637C1736.49 599.853 1734.11 597.622 1732.33 595.094C1730.54 592.269 1729.65 589.146 1729.65 585.577C1729.65 580.075 1731.58 575.763 1735.6 572.64C1739.61 569.517 1745.12 567.882 1751.81 567.882H1765.64V555.837H1714.48V540.967H1800.88V555.837H1782.59V580.67H1758.2L1758.35 580.373Z" fill="url(#paint9_linear_16878_14275)"/>
<path d="M1806.24 522.677C1806.24 525.651 1805.2 528.179 1803.11 530.261C1801.03 532.343 1798.5 533.235 1795.53 533.235C1792.56 533.235 1789.88 532.194 1787.8 530.261C1785.71 528.179 1784.82 525.651 1784.82 522.677C1784.82 519.703 1785.86 517.175 1787.8 515.093C1789.88 513.012 1792.56 511.971 1795.53 511.971C1798.5 511.971 1801.03 513.012 1803.11 515.093C1805.2 517.175 1806.24 519.703 1806.24 522.677Z" fill="url(#paint10_linear_16878_14275)"/>
<path d="M1839.7 583.347C1833.6 583.347 1828.69 584.982 1824.97 588.105C1821.26 591.228 1819.32 595.54 1819.32 601.191C1819.32 606.842 1820.81 610.262 1823.93 613.384C1826.91 616.358 1831.07 617.845 1836.13 617.845C1841.18 617.845 1843.86 616.507 1846.69 613.979C1849.66 611.451 1851.3 607.734 1851.3 602.975H1867.65V646.545H1850.25V623.794C1848.17 626.47 1845.5 628.552 1842.22 630.039C1838.95 631.377 1835.09 632.121 1830.92 632.121C1826.76 632.121 1820.36 630.931 1815.9 628.552C1811.44 626.173 1807.87 622.604 1805.2 617.994C1802.52 613.236 1801.18 607.585 1801.18 600.893C1801.18 594.202 1802.82 588.105 1805.94 583.198C1809.21 578.291 1813.52 574.573 1819.03 572.045C1824.68 569.517 1830.92 568.328 1838.06 568.328H1844.9V555.837H1790.18V540.967H1880.29V555.837H1862.9V583.644H1839.85L1839.7 583.347Z" fill="url(#paint11_linear_16878_14275)"/>
<path d="M1920 540.669V555.54H1904.68V642.679H1886.84V555.54H1871.52V540.669H1887.43V535.167C1887.43 530.26 1886.54 525.948 1884.61 522.676C1882.82 519.256 1879.4 517.472 1874.49 517.472C1869.59 517.472 1866.17 519.256 1864.23 522.676C1862.3 526.097 1861.41 530.26 1861.41 535.167V544.684H1844.16V536.208C1844.16 525.799 1846.54 517.621 1851.44 511.524C1856.2 505.427 1863.94 502.453 1874.49 502.453C1894.57 502.453 1904.53 513.754 1904.53 536.208V540.818H1919.85L1920 540.669Z" fill="url(#paint12_linear_16878_14275)"/>
</g>
<defs>
<linearGradient id="paint0_linear_16878_14275" x1="613.579" y1="46.6828" x2="371.503" y2="625.588" gradientUnits="userSpaceOnUse">
<stop stop-color="#806020"/>
<stop offset="1" stop-color="#E6C44A"/>
</linearGradient>
<linearGradient id="paint1_linear_16878_14275" x1="766.602" y1="110.625" x2="524.526" y2="689.53" gradientUnits="userSpaceOnUse">
<stop stop-color="#806020"/>
<stop offset="1" stop-color="#E6C44A"/>
</linearGradient>
<linearGradient id="paint2_linear_16878_14275" x1="934.05" y1="180.663" x2="691.974" y2="759.569" gradientUnits="userSpaceOnUse">
<stop stop-color="#806020"/>
<stop offset="1" stop-color="#E6C44A"/>
</linearGradient>
<linearGradient id="paint3_linear_16878_14275" x1="1033.39" y1="222.151" x2="791.313" y2="801.056" gradientUnits="userSpaceOnUse">
<stop stop-color="#806020"/>
<stop offset="1" stop-color="#E6C44A"/>
</linearGradient>
<linearGradient id="paint4_linear_16878_14275" x1="1149.38" y1="270.627" x2="907.307" y2="849.681" gradientUnits="userSpaceOnUse">
<stop stop-color="#806020"/>
<stop offset="1" stop-color="#E6C44A"/>
</linearGradient>
<linearGradient id="paint5_linear_16878_14275" x1="1309.69" y1="337.692" x2="1067.77" y2="916.597" gradientUnits="userSpaceOnUse">
<stop stop-color="#806020"/>
<stop offset="1" stop-color="#E6C44A"/>
</linearGradient>
<linearGradient id="paint6_linear_16878_14275" x1="1453.79" y1="397.916" x2="1211.87" y2="976.97" gradientUnits="userSpaceOnUse">
<stop stop-color="#806020"/>
<stop offset="1" stop-color="#E6C44A"/>
</linearGradient>
<linearGradient id="paint7_linear_16878_14275" x1="1599.68" y1="458.884" x2="1357.6" y2="1037.79" gradientUnits="userSpaceOnUse">
<stop stop-color="#806020"/>
<stop offset="1" stop-color="#E6C44A"/>
</linearGradient>
<linearGradient id="paint8_linear_16878_14275" x1="1878.96" y1="467.806" x2="1658.13" y2="607.448" gradientUnits="userSpaceOnUse">
<stop stop-color="#806020"/>
<stop offset="1" stop-color="#997326"/>
</linearGradient>
<linearGradient id="paint9_linear_16878_14275" x1="1899.48" y1="500.074" x2="1678.65" y2="639.865" gradientUnits="userSpaceOnUse">
<stop stop-color="#806020"/>
<stop offset="1" stop-color="#997326"/>
</linearGradient>
<linearGradient id="paint10_linear_16878_14275" x1="1879.85" y1="469.293" x2="1659.17" y2="608.936" gradientUnits="userSpaceOnUse">
<stop stop-color="#806020"/>
<stop offset="1" stop-color="#997326"/>
</linearGradient>
<linearGradient id="paint11_linear_16878_14275" x1="1921.49" y1="534.87" x2="1700.66" y2="674.661" gradientUnits="userSpaceOnUse">
<stop stop-color="#806020"/>
<stop offset="1" stop-color="#997326"/>
</linearGradient>
<linearGradient id="paint12_linear_16878_14275" x1="1927.73" y1="544.982" x2="1707.05" y2="684.624" gradientUnits="userSpaceOnUse">
<stop stop-color="#806020"/>
<stop offset="1" stop-color="#997326"/>
</linearGradient>
<clipPath id="clip0_16878_14275">
<rect width="1920" height="418" fill="white" transform="translate(0 331)"/>
</clipPath>
</defs>
</svg>
