<svg width="51" height="51" viewBox="0 0 51 51" fill="none" xmlns="http://www.w3.org/2000/svg">
<path d="M0.260084 0.00202763L50.6785 0L50.6619 46.582L46.8203 46.605L46.8056 50.0901C46.2281 50.5039 38.1759 50.3049 36.8215 50.2957L36.816 46.611L13.8846 46.5855L13.8717 50.2888C10.5523 50.337 7.12586 50.2957 3.79538 50.2984L3.78799 46.617L0.0774168 46.5785C0.0774168 42.3864 -0.18644 1.12765 0.260084 0.00202763Z" fill="#5C3930"/>
<path d="M6.81186 1.02731L43.9176 1.02344C45.0653 4.63028 46.1576 5.47925 49.7077 6.50632L49.6837 39.6173C46.189 40.5141 44.3586 41.9406 43.7386 45.6013L6.99822 45.6445C6.14023 42.1382 4.59399 40.5071 1.04395 39.6969L1.05687 6.60672C4.56818 5.38236 5.66049 4.6013 6.81186 1.02731Z" fill="white"/>
<path d="M16.4749 5.92755C19.7759 5.94546 42.2515 5.5505 43.7129 6.30368C44.3402 6.62666 44.807 7.292 44.9731 7.96656C45.3126 9.35113 45.2148 25.8812 45.0321 28.0879C44.9565 28.983 44.8365 30.0688 44.3513 30.8419C42.5154 32.1739 37.2419 31.6793 34.7805 31.6455L17.582 31.666C16.0376 31.6671 8.50942 31.7917 7.42447 31.4406C6.7713 31.2308 6.23806 30.7531 5.9576 30.1266C5.30257 28.6621 5.76756 19.9487 5.64209 17.6234C5.52584 15.4493 5.47971 8.68117 6.24176 6.83318C7.76584 5.46542 14.1113 5.91943 16.4749 5.92755Z" fill="#5C3930"/>
<path d="M7.59256 6.96541C17.7279 6.39254 28.7102 7.32383 38.9175 6.92094C40.1925 6.87055 42.6226 6.91337 43.7204 7.49307C44.5729 9.41544 43.809 19.3646 44.0101 21.9907C44.1688 24.0744 44.1245 27.2075 43.9769 29.3072C43.9326 29.9478 43.451 30.3011 42.9436 30.6242C41.8347 30.7248 40.6593 30.6958 39.5412 30.6966C29.9335 30.7104 20.3296 30.7422 10.7219 30.739C9.78645 30.7387 7.84351 30.6696 7.02611 30.0312C6.73827 29.6918 6.62201 28.6539 6.61832 28.2549C6.56666 22.4315 6.71059 16.614 6.55928 10.7885C6.54268 10.1804 6.5722 9.56511 6.6294 8.97268C6.72535 7.95059 6.80468 7.61691 7.59256 6.96541Z" fill="white"/>
<path d="M9.52431 9.42067C20.0582 9.22356 30.7342 9.48951 41.2939 9.34629C41.401 13.3335 41.257 17.5557 41.329 21.568C41.3511 22.8353 41.449 27.4327 41.2349 28.4299C31.0387 28.6689 19.6394 28.5185 9.40992 28.3897C9.38409 25.9675 9.05196 10.8425 9.52431 9.42067Z" fill="#5C3930"/>
<path d="M10.3865 10.3809L40.3423 10.396L40.3368 24.1768C30.5483 24.0185 20.21 24.1383 10.4049 24.1936C10.2056 19.9576 10.368 14.6916 10.3865 10.3809Z" fill="white"/>
<path d="M31.8998 13.1006C32.3371 13.3088 32.1453 13.1654 32.4552 13.5959C32.2763 14.867 29.527 18.9871 28.7022 20.303C28.8572 20.5116 29.0104 20.7221 29.1598 20.9342C29.4772 21.386 29.8628 21.936 29.7687 22.4803C28.7816 22.419 27.2114 20.6756 26.4456 19.9319C25.4972 21.0881 24.7038 22.0694 23.6447 23.1334C23.1078 22.7802 22.4933 22.3151 21.9638 21.9325C20.853 21.7433 20.4581 22.8014 19.3732 22.476L19.2588 22.0755C19.6204 21.5311 21.0947 20.8906 21.7608 20.549L23.5727 21.9419C24.761 20.6743 25.2168 19.1144 26.4622 18.7968C27.1339 18.8599 27.3756 19.1826 27.8941 19.6368C29.313 17.5101 30.6488 15.3297 31.8998 13.1006Z" fill="#5C3930"/>
<path d="M10.4004 25.0713C20.2202 25.2793 30.4441 25.0202 40.3304 25.1016C40.3562 25.9057 40.3249 26.6581 40.299 27.4608C30.339 27.5772 20.3789 27.6025 10.4207 27.5363L10.4004 25.0713Z" fill="white"/>
<path d="M27.3872 35.6375C28.9814 35.6167 30.5738 35.6218 32.1662 35.653C32.1975 36.7436 32.3894 39.8935 31.9466 40.7227L27.057 40.712C27.0367 39.5314 26.7728 36.4446 27.3872 35.6375Z" fill="#5C3930"/>
<path d="M28.0322 36.5957L31.1468 36.6357L31.1154 39.693L28.0341 39.7563L28.0322 36.5957Z" fill="white"/>
<path d="M18.8627 35.62C20.5012 35.6001 22.1379 35.6006 23.7745 35.6218C23.7948 36.8019 23.9018 39.7008 23.6269 40.7179L18.6911 40.7061C18.6856 39.655 18.573 36.4012 18.8627 35.62Z" fill="#5C3930"/>
<path d="M19.6318 36.5625L22.7852 36.6289L22.7723 39.7199L19.6484 39.7402L19.6318 36.5625Z" fill="white"/>
<path d="M10.3535 35.5967L15.3889 35.602C15.3999 36.9288 15.4737 39.5097 15.2449 40.709L10.2262 40.7051C10.2059 39.5544 10.0933 36.5643 10.3535 35.5967Z" fill="#5C3930"/>
<path d="M11.1757 36.585L14.3272 36.6198L14.3364 39.7655L11.1738 39.7387L11.1757 36.585Z" fill="white"/>
<path d="M35.9948 35.6412L40.543 35.6406C40.5836 36.7443 40.8586 39.9481 40.2847 40.7217L35.4781 40.7206C35.4541 39.3602 35.3969 37.7367 35.48 36.3805C35.5095 35.88 35.6387 35.8926 35.9948 35.6412Z" fill="#5C3930"/>
<path d="M36.4424 36.5674L39.5754 36.6192L39.5588 39.7411L36.4498 39.7588L36.4424 36.5674Z" fill="white"/>
<path d="M37.7783 46.584L45.8471 46.598C45.8619 47.5492 45.9006 48.3687 45.7715 49.3121C43.1182 49.2924 40.4649 49.3029 37.8097 49.3433L37.7783 46.584Z" fill="white"/>
<path d="M4.82324 46.6148C7.46179 46.5779 10.2 46.615 12.8459 46.6196L12.8201 49.305C10.1428 49.2896 7.46734 49.2935 4.79004 49.3166L4.82324 46.6148Z" fill="white"/>
<path d="M49.2327 40.7168L49.3914 40.752C49.9523 41.3539 49.6885 44.601 49.6645 45.5855C48.229 45.6438 46.7326 45.6379 45.2915 45.6538L44.8561 45.5329L44.7158 45.1807C45.1956 42.921 47.0518 41.2828 49.2327 40.7168Z" fill="white"/>
<path d="M1.05241 40.6904C3.44372 41.2884 5.77043 42.8837 5.91066 45.5681C4.3017 45.6392 2.64477 45.6261 1.03027 45.6344L1.05241 40.6904Z" fill="white"/>
<path d="M44.9873 1.06082C46.4653 1.01837 48.1794 1.0645 49.6777 1.06801L49.6758 5.41863C47.159 4.83745 45.5741 3.69411 44.9873 1.06082Z" fill="white"/>
<path d="M1.05416 1.03711L5.86628 1.05722C5.35702 2.39048 5.14668 2.83785 4.25917 3.95074C3.23327 4.84013 2.35313 5.11586 1.09106 5.56231C1.00065 4.34754 1.05601 2.31463 1.05416 1.03711Z" fill="white"/>
</svg>
