<svg width="56" height="52" viewBox="0 0 56 52" fill="none" xmlns="http://www.w3.org/2000/svg">
<g clip-path="url(#clip0_15_56863)">
<path d="M13.4491 0.0224195L22.4102 0C23.3011 2.66049 24.1187 5.72741 25.1188 8.28638L32.0864 8.28285C33.1071 11.2207 34.0908 14.1711 35.0369 17.1337C31.2389 17.3076 26.4558 17.1727 22.5837 17.1718L0.484375 17.1519C1.43965 15.7749 3.15375 10.0978 3.67287 8.28868L10.8081 8.26254C11.7223 5.59534 12.4405 2.66314 13.4491 0.0224195Z" fill="#5C3930"/>
<path d="M4.41186 9.22093L13.9254 9.19922C14.7247 10.9402 15.7917 14.3668 16.4518 16.285L13.8956 16.2845C9.92129 16.3098 5.9468 16.3 1.97266 16.2554C2.72671 14.1441 3.54731 11.1627 4.41186 9.22093Z" fill="white"/>
<path d="M21.7149 9.22754L31.3614 9.26391C32.2655 11.5692 33.0301 13.9507 33.8133 16.3015L30.9676 16.2902L19.2803 16.2604C20.0763 13.9108 20.8879 11.5665 21.7149 9.22754Z" fill="white"/>
<path d="M14.0496 0.995117C16.591 1.03007 19.1608 1.0156 21.7048 1.02142C22.4967 3.03678 23.4181 6.13813 24.116 8.27232L21.6131 8.25766L11.7773 8.2536C12.3999 5.9321 13.3084 3.30744 14.0496 0.995117Z" fill="white"/>
<path d="M14.9639 9.21889L20.7746 9.21289C20.1 11.0095 19.4626 12.9721 18.8337 14.7966C18.5449 15.6179 18.6637 15.6693 18.0931 16.1797L17.6994 16.1469C16.7886 15.382 15.5402 10.7796 14.9639 9.21889Z" fill="white"/>
<path d="M40.6985 29.8535L45.0803 29.8389C45.9484 30.8034 46.5939 31.6646 47.3725 32.6964C46.9489 33.6967 46.5057 34.6046 46.0305 35.5778C46.1664 35.6367 46.3013 35.698 46.4352 35.7612C48.5313 36.7333 50.1393 38.5195 50.8868 40.7061C52.6272 45.8069 49.7923 50.1925 44.8502 51.7776C43.2418 52.058 41.7116 52.0412 40.1516 51.5298C37.9869 50.8135 36.2082 49.2444 35.2271 47.1856C34.2276 45.1427 34.103 42.7806 34.8821 40.6438C35.7844 38.1498 37.4792 36.6413 39.8133 35.5234C39.3573 34.5629 38.8645 33.6602 38.3609 32.7259L40.6985 29.8535Z" fill="#5C3930"/>
<path d="M42.3914 35.9423C46.5385 35.6779 50.1217 38.8108 50.4144 42.957C50.7068 47.1034 47.5992 50.7086 43.4559 51.0294C39.2728 51.3534 35.6259 48.2083 35.3306 44.022C35.0351 39.8357 38.2042 36.2095 42.3914 35.9423Z" fill="white"/>
<path d="M42.3458 37.3115C45.7429 37.0237 48.7343 39.5349 49.0403 42.9311C49.3464 46.3272 46.8521 49.3329 43.4585 49.6574C40.0386 49.9844 37.0057 47.4662 36.6973 44.0441C36.3889 40.6217 38.9227 37.6016 42.3458 37.3115Z" fill="#5C3930"/>
<path d="M42.6448 38.2519C45.5482 38.1282 48.0028 40.3806 48.1292 43.2844C48.2557 46.1884 46.0063 48.6457 43.1032 48.7751C40.1962 48.9047 37.7353 46.6508 37.6086 43.7429C37.482 40.8351 39.7375 38.3759 42.6448 38.2519Z" fill="white"/>
<path d="M39.8662 33.2432C40.9373 33.425 42.7926 33.7836 43.8086 33.6584C44.5665 33.565 44.7877 33.3399 45.7636 33.3187L45.9408 33.5129L45.5153 34.4753L45.2076 34.8426C44.4844 35.0691 41.6488 34.9884 40.6663 34.9926C40.3121 34.3339 40.1421 33.9301 39.8662 33.2432Z" fill="white"/>
<path d="M41.3467 30.8985C42.1371 30.8731 43.3033 30.7101 43.9153 31.0404C43.9753 31.5989 43.8012 31.6743 43.4798 32.241C43.1377 32.6707 43.3494 32.5532 42.8537 32.6541C42.2592 32.3097 41.7659 31.4876 41.3467 30.8985Z" fill="white"/>
<path d="M3.8144 22.749C4.70896 23.3191 7.80249 26.165 7.8572 27.2383C6.93511 27.2577 5.06039 25.2679 4.36194 24.5993C4.39371 25.9807 4.46061 27.2593 4.65036 28.5727C6.31944 40.1262 16.8074 48.4051 28.3159 48.29C28.3999 48.3769 28.4839 48.4638 28.5679 48.5506L28.5233 49.1195C14.2132 49.2528 3.63224 38.9268 3.45291 24.6101C2.59453 25.6106 1.29824 27.2845 0.110497 27.7918L0 27.5788C0.632085 26.0262 2.61624 24.0631 3.8144 22.749Z" fill="#5C3930"/>
<path d="M29.4463 0.73833C34.5757 0.354678 41.0725 3.25264 44.8739 6.59869C50.1381 11.2322 52.685 17.164 53.1563 24.0871C53.8641 22.9997 54.7662 21.405 55.8467 20.7461L56.0002 20.9154C55.7351 22.3535 53.8539 24.7442 52.8926 25.9174C51.8192 25.0888 48.7234 22.8899 48.2592 21.8537L48.4809 21.6263C49.2238 21.6478 51.5642 23.7078 52.2564 24.2668C52.1149 19.0291 50.2033 13.9942 46.8333 9.98287C42.3612 4.5699 36.7016 2.22191 29.8625 1.58385C29.441 1.23939 29.573 1.39529 29.4463 0.73833Z" fill="#5C3930"/>
</g>
<defs>
<clipPath id="clip0_15_56863">
<rect width="56" height="51.9579" fill="white"/>
</clipPath>
</defs>
</svg>
