<svg width="64" height="64" viewBox="0 0 64 64" fill="none" xmlns="http://www.w3.org/2000/svg">
<path d="M41.5028 15.6963C44.0435 16.0193 48.8594 19.7435 50.6713 21.685C50.7968 23.1641 50.7728 24.0144 50.651 25.4668C48.8797 26.4024 43.3424 28.3199 41.3865 28.5379C44.2244 33.3673 44.0768 38.715 40.0857 42.8582C40.4511 43.9883 40.6024 44.3535 41.1651 45.3931C43.4494 45.4738 49.2542 45.0216 50.8669 45.8815C51.3448 46.4514 51.6474 47.6854 51.4813 48.5965C50.9167 51.6811 50.8097 57.7521 48.8003 60.0733C48.5217 60.395 47.6397 60.4792 47.2707 60.4777C41.1153 60.4535 34.5522 60.6593 28.4152 60.5279C23.7359 60.4277 16.682 60.8142 12.3717 60.4273C11.368 59.915 10.7554 59.111 10.569 58.0039C10.0081 54.6685 9.35676 51.0713 9.01357 47.7282C8.69067 44.5766 14.2187 45.3907 16.3074 45.3935L26.4723 45.4068C24.474 44.334 24.1677 44.1867 22.8521 42.2759C19.4571 42.8089 17.2779 42.9721 13.8275 43.0808C13.2408 41.4378 12.4898 38.7468 12.1116 37.0918C16.0067 32.1078 20.6896 27.2425 24.5127 22.1904C26.6457 22.0717 28.7824 21.9981 30.9191 21.9696C31.1442 22.7865 31.2641 23.576 31.408 24.4099C34.423 24.3669 36.1556 24.8521 38.7775 26.2867C38.4731 23.3845 37.949 19.83 37.9048 16.9889C38.8808 16.4748 40.416 16.0425 41.5028 15.6963Z" fill="#5C3930"/>
<path d="M10.6847 46.398C15.1167 46.3814 19.6225 46.4565 24.0601 46.4896C24.0878 47.7519 23.8073 49.3572 24.6007 50.1699C26.2576 50.7412 34.4519 50.8507 35.8007 50.2236C36.6513 49.2245 36.4539 47.7916 36.4631 46.4479C38.5647 46.4048 49.2462 46.1144 50.3589 46.9617C50.8294 48.6205 49.8514 53.2957 49.5341 55.1491C49.3219 56.6482 49.3108 58.5579 47.9011 59.3945C46.556 59.6436 43.1831 59.549 41.6387 59.5482L30.4037 59.5324C24.955 59.5157 19.5007 59.5682 14.052 59.5744C13.4026 59.5752 12.718 59.438 12.17 59.0806C10.9743 57.5291 10.4263 50.2906 9.99274 47.9904C9.84513 47.2093 10.2345 46.8782 10.6847 46.398Z" fill="white"/>
<path d="M31.9691 28.1084C33.3456 28.1796 34.4564 28.304 35.7092 28.9273C37.3164 29.7159 38.5341 31.1232 39.084 32.8267C40.5361 37.2075 37.6983 41.2459 33.5154 42.5941C30.8934 42.9687 29.9838 42.6618 27.5703 41.6274C29.5059 41.3007 31.458 41.0004 33.3585 40.5134C33.0209 36.3072 32.2607 32.1849 31.9691 28.1084Z" fill="white"/>
<path d="M31.639 25.448C36.5101 25.3013 40.8757 27.5876 42.0954 32.5833C42.7283 35.2714 42.2577 38.101 40.789 40.439C37.6855 45.4505 30.8271 47.0891 25.9319 43.9281C24.9319 43.2133 24.6256 42.9344 23.7676 42.0441C24.1495 42.0011 25.4909 41.8334 25.7585 41.9469C29.1775 43.3911 31.2367 44.6628 35.1115 43.0002C37.2224 42.1061 38.8848 40.4014 39.7262 38.2688C40.6229 35.996 40.5547 33.66 39.5638 31.4325C38.7021 29.4889 36.9585 28.0774 34.879 27.6375C33.9288 27.4367 32.8364 27.3992 31.9545 27.0618C31.6334 26.6096 31.6759 26.0318 31.639 25.448Z" fill="white"/>
<path d="M33.0548 46.4208L35.4221 46.3682C35.4848 47.5545 35.4608 48.333 35.3944 49.5223C32.9607 49.7332 29.5379 49.6312 27.0286 49.6256L25.0727 49.6003C25.0413 48.5687 25.0543 47.4515 25.0469 46.4117C27.7149 46.4748 30.3867 46.4778 33.0548 46.4208Z" fill="white"/>
<path d="M26.4467 28.5273C26.9652 28.9433 30.947 37.6241 31.4821 38.8381L29.2347 37.266C27.1368 35.8049 24.9799 34.1961 22.9004 32.6888L26.4467 28.5273Z" fill="white"/>
<path d="M22.2515 33.5049C24.8088 35.1583 27.5304 37.2145 30.014 39.0245L26.3809 38.619L18.5059 37.9208C19.7366 36.4344 20.9857 34.9623 22.2515 33.5049Z" fill="white"/>
<path d="M17.7575 38.751C20.6599 39.3262 27.3374 39.5411 30.941 39.9949C29.4944 40.3179 28.3541 40.5305 26.8891 40.749C22.8538 41.3773 18.7908 41.8222 14.7148 42.0826C15.7463 40.9875 16.7593 39.8768 17.7575 38.751Z" fill="white"/>
<path d="M30.108 23.5703C30.5453 24.1836 31.9458 36.2346 32.1562 37.8928L31.0804 35.529C29.7667 32.9049 28.5212 30.1892 27.1484 27.6044C28.0009 26.6877 29.3368 24.6721 30.108 23.5703Z" fill="white"/>
<path d="M24.4343 23.9082C24.9749 24.286 25.8606 26.6223 26.1816 27.365C24.9675 28.5585 23.4102 30.8722 22.2422 31.8568L21.9193 31.766C21.1278 31.1647 20.2218 30.5459 19.4062 29.961C20.8086 28.1014 22.8917 25.7601 24.4343 23.9082Z" fill="white"/>
<path d="M18.6513 30.7539C19.2381 31.0034 20.9836 32.3847 21.587 32.8402C20.8102 33.6618 17.8469 37.427 17.2103 37.5994L13.7617 36.7366C14.985 34.9929 17.2195 32.4954 18.6513 30.7539Z" fill="white"/>
<path d="M44.7643 21.7275C45.567 22.4174 46.1371 22.7421 47.0505 23.2917L43.3325 25.624L41.3047 26.934C42.4062 25.1646 43.5613 23.4284 44.7643 21.7275Z" fill="white"/>
<path d="M41.5972 19.6914C42.3666 20.2111 43.1102 20.6415 43.9129 21.1097C43.232 22.1222 42.4829 23.3926 41.8278 24.4434L40.5215 26.2551C40.9514 23.9782 41.2909 21.9877 41.5972 19.6914Z" fill="white"/>
<path d="M38.8496 17.9971L40.7889 19.1426C40.4623 20.6149 40.215 23.123 40.0176 24.689L39.7833 25.0688C39.2906 24.4264 38.9345 19.1531 38.8496 17.9971Z" fill="white"/>
<path d="M46.0817 19.1396C47.0227 19.7576 49.0561 20.7734 48.9527 21.9261L48.2368 22.4697L47.8217 22.5988C47.1076 22.3122 45.936 21.3339 45.2754 20.8287C45.5706 20.3184 45.8363 19.6828 46.0817 19.1396Z" fill="white"/>
<path d="M25.4844 23.1336C26.6579 23.0453 28.2004 23.0872 29.4053 23.0861L27.7816 25.1403L26.8498 26.4283C26.4088 25.4688 25.7316 24.1215 25.4844 23.1336Z" fill="white"/>
<path d="M42.0761 16.7256C42.9968 17.2329 44.5098 17.902 45.0412 18.6773C45.1593 19.3349 45.008 19.3033 44.5873 20.0002L44.5061 20.1818C43.8253 20.2062 42.4562 19.2169 42.1056 18.5846C41.7606 17.9634 41.9783 17.4033 42.0761 16.7256Z" fill="white"/>
<path d="M13.2441 37.6875C14.3494 37.8366 15.7148 38.2225 16.8163 38.5001L15.3291 40.0746L14.3346 41.241C14.0209 40.0122 13.6408 38.8879 13.2441 37.6875Z" fill="white"/>
<path d="M47.6383 23.9609C47.987 24.0575 48.869 24.7946 49.2196 25.0604C47.7269 25.6349 45.998 26.188 44.4702 26.7125L43.7856 26.9144L43.627 26.8048C44.2598 26.1288 46.7379 24.5598 47.6383 23.9609Z" fill="white"/>
<path d="M39.2106 43.7285C39.5391 44.1257 39.8048 44.6962 39.7181 45.1991C39.0926 45.5791 38.3213 45.4578 37.5463 45.4423L37.2548 45.3916L37.2363 45.1793L39.2106 43.7285Z" fill="white"/>
<path d="M25.0918 4C25.9886 4.32206 26.7986 6.38302 28.1197 7.40179C29.1308 8.1821 29.5183 8.40099 30.6365 9.0488C27.5901 11.0968 27.2672 10.7916 25.5273 14.1268C24.8796 14.1185 24.6896 13.6054 24.4165 13.0201C23.5327 11.1225 21.7632 10.1873 20.0195 9.13295C22.9053 7.26872 23.433 6.97232 25.0918 4Z" fill="#5C3930"/>
<path d="M25.2898 5.86035C26.5814 7.58413 26.9024 7.96968 28.7402 9.06559C26.8545 10.1918 26.6293 10.3972 25.3377 12.2446C23.8616 10.8309 24.4355 10.535 21.998 9.06171C23.6827 7.97319 24.0978 7.48964 25.2898 5.86035Z" fill="white"/>
<path d="M16.0525 16.8574C16.7223 16.9968 18.4567 19.1102 19.7667 20.0741C18.1135 21.2706 17.678 21.6342 16.5506 23.3349L16.0562 23.1771C14.9546 21.7084 14.2756 21.0744 12.7773 20.0857C14.5284 18.8981 14.9343 18.6309 16.0525 16.8574Z" fill="#5C3930"/>
<path d="M16.2928 18.3926C16.8297 19.0075 17.4054 19.5518 17.9885 20.1206C17.2024 20.7415 16.9921 20.9078 16.3666 21.6799C16.2171 21.6183 14.8277 20.1732 14.6211 19.9674C15.4735 19.3896 15.623 19.189 16.2928 18.3926Z" fill="white"/>
<path d="M42.7196 6.74903C42.9078 6.74847 43.4429 6.82433 43.5296 6.9275C44.5537 8.12399 45.2419 8.88788 46.5169 9.80901C44.8932 10.9682 44.4835 11.3385 43.334 12.9722C42.9484 12.8275 40.6586 10.4827 39.7637 9.78724C41.1826 8.61418 41.6605 8.27791 42.7196 6.74903Z" fill="#5C3930"/>
<path d="M43.0541 8.04883C43.6076 8.50081 44.1907 8.9504 44.5173 9.58104C44.342 10.4365 43.8383 10.7131 43.1666 11.506C43.0762 11.4381 41.8104 10.1074 41.4082 9.75563C41.9544 9.23665 42.5282 8.60343 43.0541 8.04883Z" fill="white"/>
<path d="M50.5027 28.8652C51.0471 29.0365 53.2003 31.3245 54.1432 32.0821C52.3903 33.2624 52.0564 33.482 50.8828 35.2357C50.464 35.0821 48.5727 32.956 47.3457 32.0767C48.8255 30.8 49.2905 30.407 50.5027 28.8652Z" fill="#5C3930"/>
<path d="M50.5577 30.4043C50.6943 30.4562 52.1169 31.7863 52.3973 32.0242C51.6759 32.548 51.4213 32.8429 50.8161 33.4894C50.3253 33.4728 49.4562 32.4119 49.0078 31.962C49.6241 31.4786 50.0374 30.9842 50.5577 30.4043Z" fill="white"/>
</svg>
