<svg width="64" height="64" viewBox="0 0 64 64" fill="none" xmlns="http://www.w3.org/2000/svg">
<path d="M32.3535 27.8486C32.6204 27.8509 32.6581 27.8896 32.9259 27.9716C33.7178 28.7255 34.1845 29.0741 34.4159 30.1711L34.2316 30.3688C33.683 30.2833 33.4755 29.9349 33.083 29.5048C33.0637 32.1757 33.062 34.8466 33.0774 37.5174L38.8211 37.5118L41.2697 45.0491C42.942 45.0033 44.4703 44.9772 46.1415 45.015C47.0173 47.3843 47.9002 50.3663 48.6553 52.8008L52.8542 52.8043C53.7748 55.383 54.6787 58.252 55.5 60.8688C53.6401 61.0431 50.3619 60.9577 48.4101 60.9587L33.1257 60.8475C25.8756 60.8211 16.613 61.0619 9.5 60.732C10.3083 58.0552 11.1585 55.3912 12.05 52.7409L16.6644 52.7197C17.3762 50.0939 18.2147 47.5456 19.0474 44.9573L24.2415 44.9768C25.0431 42.9892 25.9374 39.668 26.5651 37.5253L32.2192 37.4906C32.2373 34.8361 32.2018 32.1376 32.1913 29.4793C31.7381 29.9645 31.4521 30.3507 30.8154 30.3733C30.6931 29.5008 31.7875 28.4645 32.3535 27.8486Z" fill="#5C3930"/>
<path d="M27.1772 38.3503L38.1817 38.3408C38.9076 40.487 39.6108 42.6409 40.2911 44.802L38.1605 44.8147L25.1777 44.7943L27.1772 38.3503Z" fill="white"/>
<path d="M35.6753 45.7525C38.9768 45.7473 42.2782 45.7795 45.5791 45.849C46.2847 48.1237 47.0223 50.3883 47.7916 52.6422L45.1933 52.6398L33.4375 52.6252L35.6753 45.7525Z" fill="white"/>
<path d="M19.6433 45.7236L29.3086 45.7406C30.106 48.0144 30.8667 50.3011 31.5904 52.5994L29.4646 52.6193L17.4814 52.5713C18.2066 50.5906 18.9956 47.7796 19.6433 45.7236Z" fill="white"/>
<path d="M37.0814 53.5264L37.1581 53.5581C37.6887 54.1745 39.112 58.9412 39.4533 60.0107L27.8827 59.9819L25.5107 59.9879C26.1688 57.8335 26.8924 55.6995 27.6803 53.5893C30.8142 53.5946 33.9478 53.5736 37.0814 53.5264Z" fill="white"/>
<path d="M15.4092 53.5281C17.5279 53.4993 19.7615 53.538 21.8883 53.5448C22.6721 55.6195 23.3799 57.8185 24.0906 59.9263L19.5979 59.9148L10.6387 59.8811C11.2809 58.1988 12.094 55.3414 12.6596 53.5472L15.4092 53.5281Z" fill="white"/>
<path d="M43.0666 53.6318L52.1848 53.632C52.9196 55.5201 53.7154 58.0834 54.3809 60.0466L52.3344 60.038L40.8867 60.0144C41.6575 57.8939 42.2595 55.7636 43.0666 53.6318Z" fill="white"/>
<path d="M30.1562 45.7053C31.7074 45.644 33.2371 45.6836 34.7887 45.7098C34.239 47.5302 33.6685 49.3442 33.0776 51.1517L32.5328 52.7538C31.7666 50.8445 30.8333 47.734 30.1562 45.7053Z" fill="white"/>
<path d="M22.8174 53.4424L26.8078 53.4549C26.2861 54.7974 25.7761 56.5195 25.3448 57.9002L24.7881 59.5514L22.8174 53.4424Z" fill="white"/>
<path d="M38.2412 53.516C39.5256 53.4749 40.8684 53.5115 42.1577 53.5261C41.6766 55.0439 41.1782 56.5559 40.6622 58.0619L40.2036 59.5442C39.4938 57.5533 38.8394 55.543 38.2412 53.516Z" fill="white"/>
<path d="M42.2252 4.04412C44.2337 3.96804 46.7072 4.01555 48.7445 4.00608L48.75 24.1825C49.6581 24.1458 50.371 24.0129 51.161 24.4361L51.2154 24.6776C50.354 25.2275 47.5734 25.0331 46.4225 25.0318L38.6698 25.026C31.5733 25.0215 24.4771 25.0092 17.3806 25.036C16.6211 25.0389 13.9972 25.1523 13.46 24.756L13.5619 24.4159C14.0805 24.0305 15.2479 24.1567 15.9664 24.1654L15.988 18.1156L22.1278 18.1271C22.127 19.8988 22.0381 22.5134 22.1928 24.1904L24.1071 24.1514C24.186 20.8746 24.0846 17.5764 24.168 14.2662C26.2794 14.2173 28.5412 14.2434 30.6631 14.2343L30.6626 24.1983L33.0893 24.1609L33.08 9.32234C35.2717 9.25557 37.5367 9.29971 39.7347 9.31463C39.8754 14.0147 39.7556 19.3833 39.774 24.1455L42.1909 24.18C42.178 17.7867 41.9927 10.3753 42.2252 4.04412Z" fill="#5C3930"/>
<path d="M43.0623 4.83008L47.841 4.83409C47.7917 9.27396 47.8469 13.724 47.8294 18.1579C47.8251 19.2559 47.9153 23.2958 47.7415 24.1722L43.0724 24.1603C43.0329 17.717 43.0296 11.2734 43.0623 4.83008Z" fill="white"/>
<path d="M33.9826 10.126C35.5918 10.1069 37.2474 10.1333 38.8606 10.1394C39.0372 14.4604 38.9144 19.8155 38.9064 24.1778L33.9685 24.2016C33.9454 19.5097 33.9501 14.8177 33.9826 10.126Z" fill="white"/>
<path d="M25.0186 15.083L29.8345 15.0963C29.8694 18.1099 29.858 21.124 29.8005 24.1372L25.0137 24.1709L25.0186 15.083Z" fill="white"/>
<path d="M16.835 18.9502L21.3132 18.9752C21.3306 20.6994 21.3046 22.4647 21.2985 24.1926L16.8242 24.2075L16.835 18.9502Z" fill="white"/>
</svg>
