<svg width="22" height="22" viewBox="0 0 22 22" fill="none" xmlns="http://www.w3.org/2000/svg">
<g clip-path="url(#clip0_15_56456)">
<path d="M18.784 8.61417C18.784 10.6797 17.9635 12.6606 16.503 14.1211C15.0424 15.5817 13.0615 16.4022 10.996 16.4022C8.9305 16.4022 6.94959 15.5817 5.48906 14.1211C4.02853 12.6606 3.20801 10.6797 3.20801 8.61417C3.20801 6.54867 4.02853 4.56776 5.48906 3.10722C6.94959 1.64669 8.9305 0.826172 10.996 0.826172C13.0615 0.826172 15.0424 1.64669 16.503 3.10722C17.9635 4.56776 18.784 6.54867 18.784 8.61417Z" stroke="black" stroke-width="1.3" stroke-linecap="round" stroke-linejoin="round"/>
<path d="M4.24956 12.4345L0.786133 18.4342L4.5277 17.4316L5.53185 21.1732L8.53642 15.9686M17.7513 12.4345L21.2147 18.4342L17.4716 17.4316L16.469 21.1732L13.4644 15.9686M11.3147 4.38559L12.388 6.54474C12.4113 6.59959 12.449 6.64712 12.4972 6.68225C12.5453 6.71739 12.6021 6.73884 12.6614 6.74431L15.0453 7.10574C15.1135 7.11446 15.1778 7.14246 15.2307 7.18646C15.2835 7.23046 15.3227 7.28862 15.3437 7.35413C15.3646 7.41963 15.3665 7.48975 15.349 7.55626C15.3315 7.62277 15.2953 7.6829 15.2448 7.7296L13.4833 9.4016C13.4569 9.45146 13.443 9.50703 13.443 9.56345C13.443 9.61988 13.4569 9.67545 13.4833 9.72531L13.8211 12.095C13.8358 12.1637 13.8301 12.2352 13.8048 12.3007C13.7796 12.3662 13.7357 12.4229 13.6787 12.4639C13.6217 12.5049 13.554 12.5284 13.4838 12.5316C13.4137 12.5347 13.3442 12.5173 13.2837 12.4816L11.1623 11.3596C11.1075 11.3349 11.048 11.3221 10.9878 11.3221C10.9277 11.3221 10.8682 11.3349 10.8134 11.3596L8.69199 12.4816C8.6316 12.5164 8.56245 12.533 8.49286 12.5293C8.42326 12.5257 8.3562 12.5021 8.29974 12.4612C8.24328 12.4204 8.19984 12.3641 8.17464 12.2991C8.14944 12.2341 8.14356 12.1633 8.15771 12.095L8.55685 9.72531C8.57416 9.67039 8.57748 9.61201 8.5665 9.55548C8.55553 9.49894 8.5306 9.44605 8.49399 9.4016L6.73556 7.71545C6.68831 7.66819 6.65508 7.60875 6.63958 7.54374C6.62407 7.47873 6.6269 7.41069 6.64774 7.34719C6.66858 7.28369 6.70662 7.22721 6.75764 7.18403C6.80865 7.14085 6.87063 7.11266 6.93671 7.1026L9.31899 6.75688C9.37834 6.75141 9.4351 6.72996 9.48324 6.69483C9.53139 6.65969 9.56911 6.61217 9.59242 6.55731L10.6657 4.39817C10.6943 4.33688 10.7395 4.28484 10.7961 4.24796C10.8528 4.21108 10.9187 4.19083 10.9863 4.18952C11.0539 4.18821 11.1205 4.20589 11.1786 4.24055C11.2366 4.27521 11.2838 4.32546 11.3147 4.38559Z" stroke="black" stroke-width="1.3" stroke-linecap="round" stroke-linejoin="round"/>
</g>
<defs>
<clipPath id="clip0_15_56456">
<rect width="22" height="22" fill="white"/>
</clipPath>
</defs>
</svg>
