<svg width="18" height="17" viewBox="0 0 18 17" fill="none" xmlns="http://www.w3.org/2000/svg">
<path fill-rule="evenodd" clip-rule="evenodd" d="M4.35799 0C4.11787 7.84013e-05 3.88148 0.0594495 3.66981 0.172842C3.45814 0.286234 3.27776 0.450138 3.14466 0.65L0.153825 5.135C-0.0286752 5.41 -0.0503418 5.76167 0.0971581 6.05667C1.73481 9.32947 4.00924 12.2425 6.78716 14.625L8.24549 15.8758C8.43127 16.0351 8.66788 16.1226 8.91257 16.1226C9.15726 16.1226 9.39388 16.0351 9.57965 15.8758L11.038 14.6258C13.8163 12.2432 16.091 9.32985 17.7288 6.05667C17.8763 5.76167 17.8538 5.41 17.6713 5.135L14.6788 0.65C14.5457 0.450409 14.3654 0.286742 14.1539 0.173504C13.9424 0.0602667 13.7062 0.000957344 13.4663 0.000833273L4.35799 0ZM4.18466 1.3425C4.20371 1.31401 4.2295 1.29067 4.25973 1.27453C4.28997 1.2584 4.32372 1.24997 4.35799 1.25H6.30799L4.71216 5.08C4.6767 5.16802 4.64882 5.2589 4.62882 5.35167C4.04194 5.30789 3.45576 5.25511 2.87049 5.19333L1.69966 5.07083L4.18466 1.3425ZM1.64549 6.32167C3.14157 9.06455 5.11531 11.5183 7.47382 13.5675L4.86966 6.6225C4.15916 6.57365 3.4496 6.51197 2.74132 6.4375L1.64549 6.32167ZM6.23382 6.7L8.91216 13.845L11.5913 6.7C9.80613 6.78092 8.01818 6.78092 6.23299 6.7M12.9555 6.6225L10.3513 13.5675C12.7098 11.5183 14.6836 9.06455 16.1797 6.32167L15.0838 6.4375C14.3755 6.51139 13.666 6.57306 12.9555 6.6225ZM16.1247 5.07083L14.953 5.19417C14.3677 5.25594 13.7815 5.30872 13.1947 5.3525C13.175 5.25948 13.1474 5.16831 13.1122 5.08L11.5163 1.25H13.4663C13.5006 1.24997 13.5343 1.2584 13.5646 1.27453C13.5948 1.29067 13.6206 1.31401 13.6397 1.3425L16.1247 5.07083ZM11.9055 5.43333C9.91049 5.53667 7.91493 5.53667 5.91882 5.43333L7.66216 1.25H10.1622L11.9055 5.43333Z" fill="url(#paint0_linear_15_31167)"/>
<defs>
<linearGradient id="paint0_linear_15_31167" x1="8.41211" y1="5.29153" x2="8.41211" y2="4.79153" gradientUnits="userSpaceOnUse">
<stop/>
<stop offset="1" stop-color="white"/>
</linearGradient>
</defs>
</svg>
