<svg width="22" height="22" viewBox="0 0 22 22" fill="none" xmlns="http://www.w3.org/2000/svg">
<path d="M2.29199 6.87533V12.3753C2.29199 15.8321 2.29199 17.5609 3.36449 18.6343C4.43974 19.7087 6.16858 19.7087 9.62533 19.7087H12.8337M2.29199 6.87533L3.54599 4.87241C4.33524 3.61108 4.73124 2.98041 5.35274 2.63574C5.97424 2.29199 6.71858 2.29199 8.20724 2.29199H13.8447C15.3664 2.29199 16.1263 2.29199 16.757 2.64858C17.3877 3.00608 17.7782 3.65783 18.561 4.96224L19.7087 6.87533M2.29199 6.87533H19.7087M19.7087 12.8337V6.87533M11.0003 6.87533V2.29199M14.667 13.292C14.667 13.292 12.3753 14.9796 12.3753 15.5837C12.3753 16.1877 14.667 17.8753 14.667 17.8753M12.8337 15.5837H17.6462C18.1932 15.5837 18.7178 15.801 19.1046 16.1878C19.4914 16.5745 19.7087 17.0992 19.7087 17.6462C19.7087 18.1932 19.4914 18.7178 19.1046 19.1046C18.7178 19.4914 18.1932 19.7087 17.6462 19.7087H16.9587M9.16699 9.62533H12.8337" stroke="black" stroke-width="1.3" stroke-linecap="round" stroke-linejoin="round"/>
</svg>
