<svg width="24" height="24" viewBox="0 0 24 24" fill="none" xmlns="http://www.w3.org/2000/svg">
              <g clip-path="url(#clip0_5402_9047)">
              <path d="M12.312 6.42343L18.924 17.8766M18.5777 17.2749L2.27482 21.0617L1.23425 19.2514L12.6634 7.02515" stroke="#666666" stroke-width="1.5" stroke-linecap="round" stroke-linejoin="round"></path>
              <path d="M5.82167 20.2371L6.71996 21.792C7.04572 22.3501 7.57984 22.7559 8.20482 22.9202C8.51428 23.0015 8.83673 23.0211 9.15376 22.9779C9.47079 22.9346 9.77619 22.8293 10.0525 22.668C10.3289 22.5067 10.5707 22.2925 10.7643 22.0378C10.9579 21.783 11.0994 21.4926 11.1807 21.1831C11.2621 20.8737 11.2817 20.5512 11.2384 20.2342C11.1951 19.9172 11.0898 19.6118 10.9285 19.3354L10.7845 19.0869M12.7611 3.14914V0.999428M20.9948 11.3829H23.1428M2.3811 11.3829H4.5291M5.41882 4.04057L6.93767 5.56114M18.5828 5.56114L20.1017 4.04057" stroke="#666666" stroke-width="1.5" stroke-linecap="round" stroke-linejoin="round"></path>
              </g>
              <defs>
              <clipPath id="clip0_5402_9047">
              <rect width="24" height="24" fill="white"></rect>
              </clipPath>
              </defs>
              </svg>