<svg width="155" height="40" viewBox="0 0 155 40" fill="none" xmlns="http://www.w3.org/2000/svg">
<path d="M30.3569 9.21401C31.9411 9.1836 33.3485 9.1388 34.5793 9.078V24.1086C34.5793 26.0161 34.6893 27.8995 34.9094 29.7621C35.1295 31.6231 35.5542 33.2809 36.1851 34.7339C36.8144 36.1869 37.7026 37.3598 38.8466 38.2527C39.9905 39.1456 41.5003 39.5633 43.3774 39.5025C44.9894 39.4721 46.3969 38.9872 47.5997 38.0495C48.8026 37.1118 49.7993 35.9149 50.5913 34.4619C51.3834 33.0089 51.9833 31.3895 52.3956 29.6021C52.8064 27.8163 53.0249 26.0449 53.0559 24.2894V14.0722C53.0265 12.528 52.7924 11.3935 52.3522 10.667C51.912 9.9405 50.9881 9.57726 49.5807 9.57726V9.1228C50.5774 9.18361 51.4423 9.22201 52.1755 9.23641C52.9087 9.25241 53.5674 9.25881 54.1549 9.25881C54.947 9.25881 55.6864 9.25241 56.3761 9.23641C57.0644 9.22201 57.8642 9.18361 58.7741 9.1228V33.5082C58.7741 34.0842 58.7803 34.7195 58.7958 35.4156C58.8097 36.1133 58.9058 36.755 59.081 37.3454C59.2577 37.9359 59.5491 38.4352 59.9614 38.8432C60.3722 39.2513 60.9736 39.4561 61.7657 39.4561V39.9553C60.2404 39.9553 58.9291 39.8353 57.8285 39.5921C56.728 39.3505 55.8274 38.9488 55.1237 38.3888C54.42 37.8287 53.8992 37.0638 53.5628 36.0957C53.2249 35.1276 53.0575 33.9162 53.0575 32.4632V28.922C52.794 30.2838 52.4049 31.6167 51.8918 32.9177C51.3788 34.2202 50.7184 35.3852 49.9124 36.4141C49.1064 37.443 48.1531 38.2831 47.0526 38.9344C45.9536 39.5857 44.7135 39.9265 43.3355 39.9569C41.0771 40.0482 39.062 39.7457 37.2872 39.048C35.5124 38.3519 34.0166 37.3294 32.8013 35.9821C31.5845 34.6363 30.6452 32.9929 29.9864 31.0551C29.3261 29.1188 28.982 26.9538 28.9525 24.5615V14.2994C28.9231 12.696 28.6952 11.5071 28.2705 10.7342C27.8458 9.9629 26.9142 9.57565 25.4773 9.57565V9.1212C27.1483 9.21241 28.7758 9.24281 30.36 9.21241L30.3569 9.21401Z" fill="#A68380"/>
<path d="M62.5558 24.6078C62.5558 22.3676 62.8999 20.3017 63.5897 18.4087C64.2779 16.5172 65.2607 14.8818 66.5364 13.5041C67.8121 12.1263 69.3513 11.0526 71.1555 10.2797C72.9583 9.50839 74.9609 9.12114 77.1589 9.12114C81.0294 9.12114 84.5635 10.2413 87.7597 12.4815L86.0888 18.5207H85.8687C85.6331 17.3109 85.275 16.1668 84.7914 15.0915C84.3078 14.0177 83.6986 13.0704 82.9654 12.2527C82.2322 11.435 81.389 10.7853 80.4357 10.3005C79.4824 9.81722 78.4191 9.57399 77.2473 9.57399C75.5174 9.57399 74.0728 9.98204 72.9149 10.7997C71.7554 11.6174 70.8176 12.6928 70.1 14.0241C69.3807 15.3571 68.8677 16.8773 68.5607 18.5879C68.2523 20.2985 68.0988 22.0315 68.0988 23.7869C68.0988 25.664 68.26 27.533 68.5825 29.3956C68.9049 31.2582 69.4474 32.9304 70.21 34.4138C70.9726 35.8972 71.9755 37.1005 73.2233 38.0239C74.4696 38.9472 76.001 39.4096 77.8192 39.4096C80.1939 39.2288 82.1733 38.4255 83.7575 37.0029C85.3417 35.5804 86.5864 33.7497 87.4962 31.5079L87.9365 31.6887C86.9103 34.2618 85.4734 36.2828 83.6257 37.7502C81.7781 39.2192 79.5196 39.9521 76.852 39.9521C74.7703 39.9521 72.8498 39.5584 71.0904 38.7712C69.3311 37.9839 67.8198 36.9021 66.5596 35.5244C65.2979 34.1466 64.3167 32.5272 63.613 30.6662C62.9092 28.8035 62.5574 26.7841 62.5574 24.6046L62.5558 24.6078Z" fill="#A68380"/>
<path d="M89.9925 39.5026C91.4294 39.5026 92.3594 39.1169 92.7857 38.344C93.2104 37.5727 93.4383 36.3694 93.4677 34.734V17.6599C93.4677 16.7222 93.46 15.8885 93.446 15.162C93.4305 14.4355 93.3437 13.8226 93.1825 13.3234C93.0213 12.8241 92.7501 12.4385 92.3687 12.1648C91.9874 11.8928 91.4294 11.7264 90.6978 11.6656V11.2111C91.3132 11.1503 91.9952 11.0607 92.7439 10.9391C93.491 10.8191 94.2397 10.6671 94.9868 10.4846C95.7339 10.3038 96.4749 10.099 97.208 9.87177C97.9412 9.64454 98.6 9.39491 99.1874 9.12288V35.006C99.2169 36.5502 99.4587 37.6847 99.9129 38.4112C100.367 39.1377 101.283 39.501 102.663 39.501V39.9554C101.782 39.8946 100.742 39.8498 99.5393 39.8194C98.3365 39.789 97.0608 39.7746 95.7122 39.7746C94.7729 39.7746 93.8211 39.7906 92.8524 39.8194C91.8851 39.8498 90.9318 39.8946 89.9925 39.9554V39.501V39.5026Z" fill="#A68380"/>
<path d="M105.993 39.5025C107.43 39.5025 108.36 39.1169 108.786 38.344C109.211 37.5727 109.439 36.3694 109.468 34.734V15.5716C109.468 14.6339 109.46 13.8002 109.446 13.0737C109.431 12.3472 109.344 11.7344 109.183 11.2351C109.022 10.7358 108.75 10.3502 108.369 10.0766C107.988 9.80452 107.43 9.6381 106.698 9.5773V9.12284C107.313 9.06203 107.995 8.97242 108.744 8.85081C109.491 8.73079 110.24 8.57877 110.987 8.39635C111.734 8.21553 112.475 8.01071 113.208 7.78348C113.941 7.55625 114.6 7.30662 115.188 7.03458V19.6137C115.363 18.1303 115.752 16.7238 116.353 15.3908C116.953 14.0594 117.79 12.9089 118.861 11.9392C119.931 10.9711 121.236 10.2286 122.775 9.71331C124.314 9.19965 126.125 9.00283 128.208 9.12284L128.12 15.026C127.446 14.8755 126.771 14.7619 126.097 14.6851C125.423 14.6099 124.762 14.5715 124.118 14.5715C122.826 14.5715 121.639 14.7379 120.556 15.0708C119.471 15.4036 118.533 15.9045 117.741 16.5685C116.949 17.2342 116.325 18.0823 115.871 19.1113C115.416 20.1402 115.189 21.3515 115.189 22.7437V35.0044C115.219 36.5486 115.46 37.6831 115.915 38.4096C116.369 39.1361 117.285 39.4993 118.664 39.4993V39.9538C117.198 39.893 116.011 39.8402 115.101 39.7954C114.191 39.7506 113.342 39.7266 112.549 39.7266C111.699 39.7266 110.82 39.749 109.91 39.7954C109 39.8402 107.783 39.8946 106.259 39.9538H105.996V39.4993L105.993 39.5025Z" fill="#A68380"/>
<path d="M125.134 31.0101C125.134 29.5875 125.426 28.3538 126.014 27.3088C126.6 26.2639 127.392 25.379 128.389 24.6525C129.385 23.926 130.545 23.3436 131.864 22.9035C133.183 22.4651 134.576 22.1082 136.043 21.8362C134.694 21.5641 133.586 21.0633 132.721 20.3368C131.856 19.6103 131.247 18.7702 130.895 17.8165C130.543 16.8628 130.433 15.8787 130.565 14.8641C130.697 13.8496 131.07 12.9119 131.687 12.0494C132.303 11.1869 133.146 10.4828 134.217 9.93714C135.286 9.39147 136.584 9.11943 138.109 9.11943C139.927 9.11943 141.635 9.29386 143.234 9.6411C144.832 9.98994 146.247 10.5564 147.478 11.3437C148.71 12.131 149.713 13.1679 150.491 14.4545C151.267 15.741 151.729 17.3236 151.877 19.1991C151.936 19.7143 151.965 20.236 151.965 20.7656V30.9605C151.965 32.0502 151.973 33.1032 151.987 34.1161C152.001 35.1306 152.097 36.0315 152.272 36.8172C152.447 37.6045 152.74 38.2398 153.152 38.7246C153.563 39.2095 154.178 39.4511 155 39.4511V39.9504C153.475 39.9504 152.17 39.8304 151.085 39.5871C150 39.3455 149.105 38.9439 148.401 38.3838C147.698 37.8237 147.177 37.0588 146.841 36.0907C146.503 35.1226 146.335 33.9113 146.335 32.4583C145.514 34.8506 144.224 36.6972 142.465 37.9981C140.705 39.3007 138.476 39.9664 135.779 39.9968C132.289 40.0576 129.643 39.2703 127.84 37.6349C126.037 35.9995 125.135 33.7912 125.135 31.0053L125.134 31.0101ZM130.763 31.4646C130.763 33.7656 131.262 35.5739 132.262 36.8908C133.262 38.2078 134.88 38.8655 137.114 38.8655C138.379 38.8655 139.577 38.6606 140.708 38.2526C141.84 37.8445 142.818 37.1852 143.641 36.2779C144.464 35.369 145.118 34.1897 145.604 32.7351C146.089 31.2821 146.331 29.4963 146.331 27.3777V21.7466C145.419 21.7466 144.404 21.7546 143.286 21.769C142.169 21.785 141.029 21.8826 139.868 22.0634C138.707 22.2442 137.582 22.5323 136.494 22.9259C135.406 23.3196 134.435 23.8796 133.583 24.6061C132.73 25.3326 132.045 26.2559 131.532 27.3761C131.018 28.4962 130.76 29.858 130.76 31.463L130.763 31.4646ZM130.94 15.8899C130.969 16.5555 131.131 17.2516 131.425 17.9781C132.042 19.2807 132.947 20.204 134.138 20.7481C135.33 21.2937 136.601 21.5657 137.954 21.5657C139.189 21.4153 140.395 21.3161 141.572 21.2697C142.748 21.2249 143.895 21.2009 145.013 21.2009H146.337C146.307 19.5367 146.152 17.9989 145.873 16.5923C145.594 15.1842 145.131 13.9744 144.483 12.9599C143.835 11.9454 142.99 11.1437 141.945 10.5532C140.902 9.96274 139.585 9.6523 137.997 9.6219C137.086 9.6219 136.204 9.75151 135.35 10.0075C134.497 10.2652 133.747 10.6588 133.101 11.1885C132.453 11.7182 131.932 12.3774 131.534 13.1631C131.137 13.9504 130.938 14.8593 130.938 15.8883L130.94 15.8899ZM142.265 1.30408L137.229 7.9433H136.481L140.622 1.30408H142.265Z" fill="#A68380"/>
<path d="M3.34192 4.65014C3.25357 3.99887 3.09237 3.4628 2.85831 3.03875C2.6227 2.6147 2.27084 2.29786 1.80272 2.08503C1.33305 1.87381 0.731627 1.7666 0 1.7666V1.31214C1.4369 1.37295 2.62425 1.42575 3.56358 1.47056C4.50137 1.51536 5.39575 1.53937 6.24673 1.53937C7.09771 1.53937 8.00604 1.51696 8.97328 1.47056C9.94051 1.42575 11.1573 1.37295 12.6237 1.31214V1.7666C11.8905 1.7666 11.2968 1.86581 10.8426 2.06263C10.3869 2.25946 10.0366 2.54749 9.78706 2.92514C9.5375 3.30438 9.36234 3.78764 9.25849 4.37811C9.15619 4.96858 9.10503 5.67267 9.10503 6.49037V39.4576H9.10968C11.162 39.4576 12.9585 39.3296 14.4977 39.0719C16.0369 38.8159 17.4149 38.3678 18.6332 37.7326C19.85 37.0973 20.9707 36.2572 21.9984 35.2123C23.0245 34.1673 24.0801 32.8744 25.1652 31.3302C25.1946 31.3302 25.238 31.3462 25.2969 31.375C25.3558 31.4054 25.3915 31.4278 25.407 31.4438C25.4209 31.4598 25.4581 31.4822 25.517 31.5126L24.0212 39.8224V39.9584H0.571971V39.504C1.21679 39.504 1.72986 39.3984 2.11118 39.1855C2.49249 38.9743 2.78545 38.6783 2.99161 38.3006C3.19622 37.923 3.32797 37.4685 3.38687 36.9389C3.44577 36.4092 3.47523 35.8107 3.47523 35.1451V6.94642C3.47523 6.06952 3.43182 5.30462 3.34347 4.65334L3.34192 4.65014Z" fill="#A68380"/>
<path d="M99.3374 4.1637C97.9935 4.1637 95.3042 6.94005 95.3042 8.32741C95.3042 6.94005 92.6148 4.1637 91.2709 4.1637C92.6148 4.1637 95.3042 1.38737 95.3042 0C95.3042 1.38737 97.9935 4.1637 99.3374 4.1637Z" fill="#A68380"/>
</svg>
