<svg width="20" height="20" viewBox="0 0 24 24" fill="none" xmlns="http://www.w3.org/2000/svg">
<path d="M8.27231 21L3 15.7277V8.27231L8.27231 3H15.7277L21 8.27231V15.7277L15.7277 21H8.27231Z" stroke="#785754" stroke-miterlimit="10" stroke-linecap="round" stroke-linejoin="round"></path>
<path d="M9.24487 18.6521L5.34787 14.7562M9.24487 18.6521H14.7562M9.24487 18.6521L8.27231 21M5.34787 14.7562V9.24544M5.34787 14.7562L3 15.7283M5.34787 9.24544L9.24487 5.34844M5.34787 9.24544L3 8.27231M9.24487 5.34844H14.7557M9.24487 5.34844L8.27231 3M14.7557 5.34844L18.6521 9.24544M14.7557 5.34844L15.7283 3M18.6521 9.24544V14.7562M18.6521 9.24544L21 8.27231M18.6521 14.7562L14.7562 18.6521M18.6521 14.7562L21 15.7283M14.7562 18.6521L15.7283 21" stroke="#785754" stroke-width="0.5" stroke-miterlimit="10" stroke-linecap="round" stroke-linejoin="round"></path>
<path d="M13.8896 7.4375L16.5625 10.1104V13.8906L13.8906 16.5625H10.1104L7.4375 13.8896V10.1104L10.1104 7.4375H13.8896Z" stroke="#785754" stroke-miterlimit="10" stroke-linecap="round" stroke-linejoin="round"></path>
</svg>