<svg width="16" height="16" viewBox="0 0 16 16" fill="none" xmlns="http://www.w3.org/2000/svg">
<path d="M7.39233 0.370226C7.43171 0.261741 7.50353 0.168011 7.59803 0.101772C7.69254 0.0355338 7.80515 0 7.92056 0C8.03597 0 8.14858 0.0355338 8.24309 0.101772C8.3376 0.168011 8.40942 0.261741 8.44879 0.370226L8.98602 1.83803C9.40734 2.98871 10.0745 4.03369 10.941 4.90016C11.8074 5.76664 12.8524 6.43378 14.0031 6.85511L15.4698 7.39233C15.5783 7.43171 15.672 7.50353 15.7382 7.59803C15.8045 7.69254 15.84 7.80515 15.84 7.92056C15.84 8.03597 15.8045 8.14858 15.7382 8.24309C15.672 8.3376 15.5783 8.40942 15.4698 8.44879L14.0031 8.98602C12.8524 9.40734 11.8074 10.0745 10.941 10.941C10.0745 11.8074 9.40734 12.8524 8.98602 14.0031L8.44879 15.4698C8.40942 15.5783 8.3376 15.672 8.24309 15.7382C8.14858 15.8045 8.03597 15.84 7.92056 15.84C7.80515 15.84 7.69254 15.8045 7.59803 15.7382C7.50353 15.672 7.43171 15.5783 7.39233 15.4698L6.85511 14.0031C6.43378 12.8524 5.76664 11.8074 4.90016 10.941C4.03369 10.0745 2.98871 9.40734 1.83803 8.98602L0.370226 8.44879C0.261741 8.40942 0.168011 8.3376 0.101772 8.24309C0.0355338 8.14858 0 8.03597 0 7.92056C0 7.80515 0.0355338 7.69254 0.101772 7.59803C0.168011 7.50353 0.261741 7.43171 0.370226 7.39233L1.83803 6.85511C2.98871 6.43378 4.03369 5.76664 4.90016 4.90016C5.76664 4.03369 6.43378 2.98871 6.85511 1.83803L7.39233 0.370226Z" fill="white"/>
</svg>
