<svg width="32" height="32" viewBox="0 0 32 32" fill="none" xmlns="http://www.w3.org/2000/svg">
<path d="M1 19V31M1 29H23C23 27.9391 22.5786 26.9217 21.8284 26.1716C21.0783 25.4214 20.0609 25 19 25H14M14 25C14 23.9391 13.5786 22.9217 12.8284 22.1716C12.0783 21.4214 11.0609 21 10 21H1M14 25H9M8.84 1H29.16C29.6528 1.00703 30.1227 1.20862 30.4674 1.56081C30.8121 1.913 31.0036 2.38721 31 2.88V14.4533C31.0036 14.9461 30.8121 15.4203 30.4674 15.7725C30.1227 16.1247 29.6528 16.3263 29.16 16.3333H8.84C8.34725 16.3263 7.87727 16.1247 7.53257 15.7725C7.18787 15.4203 6.99643 14.9461 7 14.4533V2.88C6.99643 2.38721 7.18787 1.913 7.53257 1.56081C7.87727 1.20862 8.34725 1.00703 8.84 1Z" stroke="black" stroke-width="2.46154" stroke-linecap="round" stroke-linejoin="round"/>
<path d="M10.667 5.33325H12.667M25.3337 11.9999H27.3337M16.0003 8.66659C16.0003 9.46223 16.3164 10.2253 16.879 10.7879C17.4416 11.3505 18.2047 11.6666 19.0003 11.6666C19.796 11.6666 20.559 11.3505 21.1216 10.7879C21.6843 10.2253 22.0003 9.46223 22.0003 8.66659C22.0003 7.87094 21.6843 7.10787 21.1216 6.54527C20.559 5.98266 19.796 5.66659 19.0003 5.66659C18.2047 5.66659 17.4416 5.98266 16.879 6.54527C16.3164 7.10787 16.0003 7.87094 16.0003 8.66659Z" stroke="black" stroke-width="2.46154" stroke-linecap="round" stroke-linejoin="round"/>
</svg>
